<?xml version="1.0" encoding="UTF-8"?>
<!DOCTYPE svg PUBLIC "-//W3C//DTD SVG 1.1//EN" "http://www.w3.org/Graphics/SVG/1.1/DTD/svg11.dtd">
<svg xmlns="http://www.w3.org/2000/svg" version="1.1" width="681px" height="586px" style="shape-rendering:geometricPrecision; text-rendering:geometricPrecision; image-rendering:optimizeQuality; fill-rule:evenodd; clip-rule:evenodd" xmlns:xlink="http://www.w3.org/1999/xlink">
<g><path style="opacity:1" fill="#3c557e" d="M -0.5,-0.5 C 0.5,-0.5 1.5,-0.5 2.5,-0.5C 2.16667,0.166667 1.83333,0.833333 1.5,1.5C 0.833333,2.5 0.166667,3.5 -0.5,4.5C -0.5,2.83333 -0.5,1.16667 -0.5,-0.5 Z"/></g>
<g><path style="opacity:1" fill="#fefefe" d="M 2.5,-0.5 C 228.5,-0.5 454.5,-0.5 680.5,-0.5C 680.5,2.5 680.5,5.5 680.5,8.5C 457.5,8.5 234.5,8.5 11.5,8.5C 11.5,170.5 11.5,332.5 11.5,494.5C 234.5,494.5 457.5,494.5 680.5,494.5C 680.5,524.833 680.5,555.167 680.5,585.5C 453.833,585.5 227.167,585.5 0.5,585.5C 0.171301,390.812 0.504635,196.145 1.5,1.5C 1.83333,0.833333 2.16667,0.166667 2.5,-0.5 Z"/></g>
<g><path style="opacity:1" fill="#e0e4ea" d="M 1.5,1.5 C 0.504635,196.145 0.171301,390.812 0.5,585.5C 0.166667,585.5 -0.166667,585.5 -0.5,585.5C -0.5,391.833 -0.5,198.167 -0.5,4.5C 0.166667,3.5 0.833333,2.5 1.5,1.5 Z"/></g>
<g><path style="opacity:1" fill="#f4f4f4" d="M 680.5,8.5 C 680.5,8.83333 680.5,9.16667 680.5,9.5C 457.833,9.5 235.167,9.5 12.5,9.5C 12.5,170.833 12.5,332.167 12.5,493.5C 235.167,493.5 457.833,493.5 680.5,493.5C 680.5,493.833 680.5,494.167 680.5,494.5C 457.5,494.5 234.5,494.5 11.5,494.5C 11.5,332.5 11.5,170.5 11.5,8.5C 234.5,8.5 457.5,8.5 680.5,8.5 Z"/></g>
<g><path style="opacity:1" fill="#e9eaea" d="M 680.5,9.5 C 680.5,170.833 680.5,332.167 680.5,493.5C 457.833,493.5 235.167,493.5 12.5,493.5C 12.5,332.167 12.5,170.833 12.5,9.5C 235.167,9.5 457.833,9.5 680.5,9.5 Z"/></g>
<g><path style="opacity:1" fill="#1d7ed8" d="M 45.5,62.5 C 49.099,61.9376 51.099,63.4376 51.5,67C 50.4061,72.2821 48.9061,77.4488 47,82.5C 46.3333,86.1667 46.3333,89.8333 47,93.5C 53.9775,100.809 61.3108,107.809 69,114.5C 70.1662,119.333 68.3329,121.167 63.5,120C 56.3235,113.656 49.3235,107.156 42.5,100.5C 37.8934,108.513 33.7267,116.846 30,125.5C 25.3137,127.15 23.3137,125.484 24,120.5C 28.3333,111.5 32.6667,102.5 37,93.5C 38.1434,82.5819 40.9768,72.2486 45.5,62.5 Z"/></g>
<g><path style="opacity:1" fill="#227fd8" d="M 325.5,92.5 C 333.167,92.5 340.833,92.5 348.5,92.5C 348.5,84.1667 348.5,75.8333 348.5,67.5C 351.258,65.9521 353.758,66.2854 356,68.5C 356.647,85.0188 357.481,101.519 358.5,118C 357.914,122.183 355.747,123.35 352,121.5C 349.719,114.721 348.886,107.721 349.5,100.5C 341.493,100.666 333.493,100.5 325.5,100C 322.998,97.2991 322.998,94.7991 325.5,92.5 Z"/></g>
<g><path style="opacity:1" fill="#1f7fd8" d="M 252.5,86.5 C 252.59,83.8478 251.924,81.5145 250.5,79.5C 249.865,76.5071 249.699,73.5071 250,70.5C 252.592,69.0183 254.925,69.3517 257,71.5C 260.165,86.798 264.165,101.798 269,116.5C 269.667,122.167 269.667,127.833 269,133.5C 266.667,136.167 264.333,136.167 262,133.5C 261.667,127.5 261.333,121.5 261,115.5C 258.006,105.855 255.173,96.1886 252.5,86.5 Z"/></g>
<g><path style="opacity:1" fill="#147cd7" d="M 141.5,81.5 C 143.722,81.178 145.556,81.8446 147,83.5C 148.084,93.6751 149.917,103.675 152.5,113.5C 157.743,114.805 163.076,115.639 168.5,116C 172.674,117.508 173.341,119.841 170.5,123C 165.011,123.932 159.677,123.432 154.5,121.5C 153.668,132.485 153.168,143.485 153,154.5C 151.815,156.844 149.982,157.677 147.5,157C 144.454,153.746 142.954,149.913 143,145.5C 143.667,144.833 144.333,144.167 145,143.5C 145.831,135.812 145.665,128.145 144.5,120.5C 140.5,117.5 140.5,114.5 144.5,111.5C 143.208,109.333 142.375,107 142,104.5C 141.412,98.1304 140.579,91.7971 139.5,85.5C 139.752,83.9271 140.418,82.5938 141.5,81.5 Z"/></g>
<g><path style="opacity:1" fill="#73b0e1" d="M 314.5,83.5 C 304.781,83.2181 295.114,83.5514 285.5,84.5C 285.611,83.8826 285.944,83.3826 286.5,83C 296.009,82.1757 305.343,82.3424 314.5,83.5 Z"/></g>
<g><path style="opacity:1" fill="#167cd7" d="M 314.5,83.5 C 315.947,84.1342 316.613,85.3009 316.5,87C 316.613,88.6991 315.947,89.8658 314.5,90.5C 308.167,90.5 301.833,90.5 295.5,90.5C 295.5,98.1667 295.5,105.833 295.5,113.5C 296.791,113.737 297.791,113.404 298.5,112.5C 311.846,112.604 325.18,113.104 338.5,114C 340.648,116.075 340.982,118.408 339.5,121C 332.654,121.821 325.987,121.654 319.5,120.5C 312.679,119.345 305.679,119.179 298.5,120C 297.944,120.383 297.611,120.883 297.5,121.5C 295.262,122.537 292.929,122.703 290.5,122C 289.177,121.184 288.511,120.017 288.5,118.5C 289.14,108.442 288.473,98.7755 286.5,89.5C 284.403,88.1214 284.07,86.4547 285.5,84.5C 295.114,83.5514 304.781,83.2181 314.5,83.5 Z"/></g>
<g><path style="opacity:1" fill="#7eb3e1" d="M 250.5,79.5 C 251.924,81.5145 252.59,83.8478 252.5,86.5C 251.076,84.4855 250.41,82.1522 250.5,79.5 Z"/></g>
<g><path style="opacity:1" fill="#1a7dd8" d="M 208.5,86.5 C 214.684,86.1958 217.184,89.1958 216,95.5C 216.75,94.8742 217.584,94.3742 218.5,94C 238.228,89.4301 245.728,96.9301 241,116.5C 239.551,119.616 237.384,122.116 234.5,124C 228.167,124.667 221.833,124.667 215.5,124C 211.632,123.987 209.132,122.153 208,118.5C 207.213,107.787 207.38,97.1202 208.5,86.5 Z"/></g>
<g><path style="opacity:1" fill="#1d7ed8" d="M 96.5,89.5 C 105.6,91.8242 114.934,92.9909 124.5,93C 126.286,93.7845 127.786,94.9512 129,96.5C 130.604,104.73 130.937,113.063 130,121.5C 126.746,126.223 122.246,127.723 116.5,126C 112.531,124.016 108.531,122.016 104.5,120C 103.5,119.333 102.5,119.333 101.5,120C 105.361,125.374 109.694,130.374 114.5,135C 116.833,135.667 119.167,135.667 121.5,135C 126,130.534 131.333,129.367 137.5,131.5C 138.78,133.702 138.78,135.868 137.5,138C 132.147,137.894 127.48,139.561 123.5,143C 119.044,143.867 114.711,143.534 110.5,142C 101.452,134.036 94.7858,124.536 90.5,113.5C 90.3898,111.626 91.0564,110.126 92.5,109C 94.8333,108.333 97.1667,108.333 99.5,109C 106.764,113.304 114.431,116.47 122.5,118.5C 122.5,112.5 122.5,106.5 122.5,100.5C 117.489,100.666 112.489,100.499 107.5,100C 104.431,98.1539 101.098,97.1539 97.5,97C 94.0547,94.8522 93.7214,92.3522 96.5,89.5 Z"/></g>
<g><path style="opacity:1" fill="#55a0dd" d="M 286.5,89.5 C 288.473,98.7755 289.14,108.442 288.5,118.5C 287.81,108.932 287.143,99.2655 286.5,89.5 Z"/></g>
<g><path style="opacity:1" fill="#a0c6e4" d="M 314.5,90.5 C 308.69,91.4896 302.69,91.8229 296.5,91.5C 295.872,98.9131 296.539,105.913 298.5,112.5C 297.791,113.404 296.791,113.737 295.5,113.5C 295.5,105.833 295.5,98.1667 295.5,90.5C 301.833,90.5 308.167,90.5 314.5,90.5 Z"/></g>
<g><path style="opacity:1" fill="#b1cee5" d="M 348.5,67.5 C 348.5,75.8333 348.5,84.1667 348.5,92.5C 340.833,92.5 333.167,92.5 325.5,92.5C 332.648,91.5084 339.981,91.175 347.5,91.5C 347.174,83.3159 347.508,75.3159 348.5,67.5 Z"/></g>
<g><path style="opacity:1" fill="#e1e5ea" d="M 219.5,101.5 C 224.167,101.5 228.833,101.5 233.5,101.5C 234.037,106.739 233.37,111.739 231.5,116.5C 226.171,117.612 220.838,117.612 215.5,116.5C 214.615,110.699 215.948,105.699 219.5,101.5 Z"/></g>
<g><path style="opacity:1" fill="#6bacdf" d="M 319.5,120.5 C 312.11,120.236 304.777,120.57 297.5,121.5C 297.611,120.883 297.944,120.383 298.5,120C 305.679,119.179 312.679,119.345 319.5,120.5 Z"/></g>
<g><path style="opacity:1" fill="#6babdf" d="M 79.5,131.5 C 62.1635,131.333 44.8301,131.5 27.5,132C 25.9632,133.11 25.2965,134.61 25.5,136.5C 24.1134,134.511 24.4468,132.678 26.5,131C 44.3381,130.171 62.0048,130.338 79.5,131.5 Z"/></g>
<g><path style="opacity:1" fill="#0278d7" d="M 79.5,131.5 C 80.9468,132.134 81.6134,133.301 81.5,135C 81.472,136.07 81.1386,136.903 80.5,137.5C 62.12,137.807 43.7867,137.474 25.5,136.5C 25.2965,134.61 25.9632,133.11 27.5,132C 44.8301,131.5 62.1635,131.333 79.5,131.5 Z"/></g>
<g><path style="opacity:1" fill="#2b8cd9" d="M 25.5,136.5 C 43.7867,137.474 62.12,137.807 80.5,137.5C 62.6714,138.662 44.6714,138.829 26.5,138C 25.944,137.617 25.6107,137.117 25.5,136.5 Z"/></g>
<g><path style="opacity:1" fill="#187cd7" d="M 336.5,237.5 C 337.609,238.29 338.942,238.79 340.5,239C 345.489,239.499 350.489,239.666 355.5,239.5C 365.341,240.167 375.341,240.833 385.5,241.5C 386.819,243.532 386.819,245.532 385.5,247.5C 376.5,247.5 367.5,247.5 358.5,247.5C 358.5,256.167 358.5,264.833 358.5,273.5C 357.866,274.947 356.699,275.613 355,275.5C 353.301,275.613 352.134,274.947 351.5,273.5C 351.5,264.5 351.5,255.5 351.5,246.5C 347.833,246.5 344.167,246.5 340.5,246.5C 340.167,246.5 339.833,246.5 339.5,246.5C 335.455,244.823 331.122,244.156 326.5,244.5C 321.456,244.273 316.456,244.606 311.5,245.5C 306.685,244.006 301.685,243.006 296.5,242.5C 295.265,240.684 295.265,239.017 296.5,237.5C 302.634,236.914 308.634,236.248 314.5,235.5C 318.491,231.009 322.657,226.676 327,222.5C 326.443,220.159 326.61,217.826 327.5,215.5C 329.776,214.787 332.109,214.287 334.5,214C 340.054,206.381 345.721,198.881 351.5,191.5C 352.043,191.44 352.376,191.107 352.5,190.5C 344.343,189.18 336.343,189.18 328.5,190.5C 327.584,190.982 326.584,191.315 325.5,191.5C 321.061,189.862 316.394,189.029 311.5,189C 309.398,187.267 309.065,185.267 310.5,183C 314.152,182.501 317.818,182.335 321.5,182.5C 321.68,172.649 321.346,162.815 320.5,153C 319.882,146.36 322.382,144.86 328,148.5C 329.165,159.47 329.665,170.47 329.5,181.5C 340.172,181.333 350.839,181.5 361.5,182C 364.791,184.332 365.291,187.165 363,190.5C 355.315,198.719 348.482,207.552 342.5,217C 342.645,217.772 342.978,218.439 343.5,219C 350.693,221.846 357.526,225.346 364,229.5C 364.833,234 363,235.833 358.5,235C 351.671,230.836 344.504,227.336 337,224.5C 332.545,227.952 328.378,231.786 324.5,236C 328.395,237.266 332.395,237.766 336.5,237.5 Z"/></g>
<g><path style="opacity:1" fill="#1c7dd8" d="M 66.5,176.5 C 59.4684,176.17 52.4684,176.503 45.5,177.5C 45.7093,178.086 46.0426,178.586 46.5,179C 55.1603,179.5 63.8269,179.666 72.5,179.5C 75.1339,181.54 75.1339,183.707 72.5,186C 62.8333,186.667 53.1667,186.667 43.5,186C 40.6667,183.167 37.8333,180.333 35,177.5C 33.7978,175.323 33.2978,172.989 33.5,170.5C 43.4607,169.576 53.4607,169.242 63.5,169.5C 63.5,167.167 63.5,164.833 63.5,162.5C 53.4944,162.666 43.4944,162.5 33.5,162C 31.7215,159.865 31.0548,157.365 31.5,154.5C 44.1711,154.333 56.8377,154.5 69.5,155C 70.1258,155.75 70.6258,156.584 71,157.5C 71.6667,162.5 71.6667,167.5 71,172.5C 70.2525,174.751 68.7525,176.084 66.5,176.5 Z"/></g>
<g><path style="opacity:1" fill="#7cb2e0" d="M 66.5,176.5 C 65.7375,177.268 64.7375,177.768 63.5,178C 66.6946,178.181 69.6946,178.681 72.5,179.5C 63.8269,179.666 55.1603,179.5 46.5,179C 46.0426,178.586 45.7093,178.086 45.5,177.5C 52.4684,176.503 59.4684,176.17 66.5,176.5 Z"/></g>
<g><path style="opacity:1" fill="#99c2e4" d="M 328.5,190.5 C 336.343,189.18 344.343,189.18 352.5,190.5C 352.376,191.107 352.043,191.44 351.5,191.5C 344.018,190.508 336.352,190.175 328.5,190.5 Z"/></g>
<g><path style="opacity:1" fill="#207ed8" d="M 438.5,195.5 C 441.238,194.965 443.072,195.965 444,198.5C 444.5,208.494 444.666,218.494 444.5,228.5C 452.507,228.334 460.507,228.5 468.5,229C 471.172,231.679 470.838,234.012 467.5,236C 459.841,236.5 452.174,236.666 444.5,236.5C 444.666,241.844 444.499,247.177 444,252.5C 441.667,255.167 439.333,255.167 437,252.5C 436.333,234.167 436.333,215.833 437,197.5C 437.717,196.956 438.217,196.289 438.5,195.5 Z"/></g>
<g><path style="opacity:1" fill="#70aee0" d="M 396.5,199.5 C 390.441,199.254 384.441,199.587 378.5,200.5C 378.611,199.883 378.944,199.383 379.5,199C 385.349,198.182 391.015,198.348 396.5,199.5 Z"/></g>
<g><path style="opacity:1" fill="#1a7dd8" d="M 396.5,199.5 C 402.201,201.847 407.868,204.347 413.5,207C 417.457,206.604 420.29,208.104 422,211.5C 423.386,224.475 422.052,237.141 418,249.5C 417.667,256.833 417.333,264.167 417,271.5C 415.778,275.89 413.445,276.556 410,273.5C 408.558,259.871 409.891,246.537 414,233.5C 414.5,227.175 414.666,220.842 414.5,214.5C 412.801,214.66 411.134,214.494 409.5,214C 400.539,207.796 390.539,205.129 379.5,206C 377.447,204.322 377.113,202.489 378.5,200.5C 384.441,199.587 390.441,199.254 396.5,199.5 Z"/></g>
<g><path style="opacity:1" fill="#7cb3e0" d="M 314.5,235.5 C 308.634,236.248 302.634,236.914 296.5,237.5C 296.611,236.883 296.944,236.383 297.5,236C 303.157,235.501 308.824,235.334 314.5,235.5 Z"/></g>
<g><path style="opacity:1" fill="#8fbde2" d="M 336.5,237.5 C 343.026,237.697 349.359,238.364 355.5,239.5C 350.489,239.666 345.489,239.499 340.5,239C 338.942,238.79 337.609,238.29 336.5,237.5 Z"/></g>
<g><path style="opacity:1" fill="#79b0e0" d="M 326.5,244.5 C 331.122,244.156 335.455,244.823 339.5,246.5C 334.951,246.376 330.618,245.709 326.5,244.5 Z"/></g>
<g><path style="opacity:1" fill="#abcbe6" d="M 340.5,246.5 C 344.167,246.5 347.833,246.5 351.5,246.5C 351.5,255.5 351.5,264.5 351.5,273.5C 350.507,265.016 350.174,256.349 350.5,247.5C 346.958,247.813 343.625,247.479 340.5,246.5 Z"/></g>
<g><path style="opacity:1" fill="#61a6df" d="M 385.5,247.5 C 377.016,248.493 368.349,248.826 359.5,248.5C 359.826,257.017 359.493,265.35 358.5,273.5C 358.5,264.833 358.5,256.167 358.5,247.5C 367.5,247.5 376.5,247.5 385.5,247.5 Z"/></g>
<g><path style="opacity:1" fill="#040404" d="M 201.5,319.5 C 203.265,320.461 205.265,320.795 207.5,320.5C 207.5,321.5 207.5,322.5 207.5,323.5C 205.265,323.205 203.265,323.539 201.5,324.5C 201.5,332.167 201.5,339.833 201.5,347.5C 199.833,347.5 198.167,347.5 196.5,347.5C 196.5,332.833 196.5,318.167 196.5,303.5C 198.167,303.5 199.833,303.5 201.5,303.5C 201.5,308.833 201.5,314.167 201.5,319.5 Z"/></g>
<g><path style="opacity:1" fill="#030303" d="M 296.5,303.5 C 298.167,303.5 299.833,303.5 301.5,303.5C 301.5,310.833 301.5,318.167 301.5,325.5C 299.833,325.5 298.167,325.5 296.5,325.5C 296.5,324.167 296.5,322.833 296.5,321.5C 293.713,320.523 290.713,320.19 287.5,320.5C 287.5,321.833 287.5,323.167 287.5,324.5C 280.833,324.5 274.167,324.5 267.5,324.5C 267.5,318.167 267.5,311.833 267.5,305.5C 269.167,305.5 270.833,305.5 272.5,305.5C 272.5,307.167 272.5,308.833 272.5,310.5C 275.833,310.5 279.167,310.5 282.5,310.5C 282.5,308.833 282.5,307.167 282.5,305.5C 284.167,305.5 285.833,305.5 287.5,305.5C 287.5,306.5 287.5,307.5 287.5,308.5C 290.5,308.5 293.5,308.5 296.5,308.5C 296.5,306.833 296.5,305.167 296.5,303.5 Z"/></g>
<g><path style="opacity:1" fill="#555555" d="M 324.5,307.5 C 323.566,306.432 323.232,305.099 323.5,303.5C 322.167,303.5 320.833,303.5 319.5,303.5C 319.768,305.099 319.434,306.432 318.5,307.5C 318.5,305.833 318.5,304.167 318.5,302.5C 320.5,302.5 322.5,302.5 324.5,302.5C 324.5,304.167 324.5,305.833 324.5,307.5 Z"/></g>
<g><path style="opacity:1" fill="#0f0f0f" d="M 324.5,307.5 C 327.625,308.479 330.958,308.813 334.5,308.5C 334.5,309.833 334.5,311.167 334.5,312.5C 325.833,312.5 317.167,312.5 308.5,312.5C 308.5,311.167 308.5,309.833 308.5,308.5C 312.042,308.813 315.375,308.479 318.5,307.5C 319.434,306.432 319.768,305.099 319.5,303.5C 320.833,303.5 322.167,303.5 323.5,303.5C 323.232,305.099 323.566,306.432 324.5,307.5 Z"/></g>
<g><path style="opacity:1" fill="#464646" d="M 343.5,316.5 C 342.515,312.366 342.182,308.032 342.5,303.5C 341.167,303.5 339.833,303.5 338.5,303.5C 338.5,314.167 338.5,324.833 338.5,335.5C 339.833,335.5 341.167,335.5 342.5,335.5C 342.181,330.637 342.514,325.97 343.5,321.5C 343.5,326.5 343.5,331.5 343.5,336.5C 341.5,336.5 339.5,336.5 337.5,336.5C 337.5,325.167 337.5,313.833 337.5,302.5C 339.5,302.5 341.5,302.5 343.5,302.5C 343.5,307.167 343.5,311.833 343.5,316.5 Z"/></g>
<g><path style="opacity:1" fill="#060606" d="M 343.5,316.5 C 345.5,316.5 347.5,316.5 349.5,316.5C 349.5,318.167 349.5,319.833 349.5,321.5C 347.5,321.5 345.5,321.5 343.5,321.5C 342.514,325.97 342.181,330.637 342.5,335.5C 341.167,335.5 339.833,335.5 338.5,335.5C 338.5,324.833 338.5,314.167 338.5,303.5C 339.833,303.5 341.167,303.5 342.5,303.5C 342.182,308.032 342.515,312.366 343.5,316.5 Z"/></g>
<g><path style="opacity:1" fill="#4c4c4c" d="M 398.5,313.5 C 397.521,310.375 397.187,307.042 397.5,303.5C 396.167,303.5 394.833,303.5 393.5,303.5C 393.5,311.833 393.5,320.167 393.5,328.5C 392.507,320.016 392.174,311.349 392.5,302.5C 394.5,302.5 396.5,302.5 398.5,302.5C 398.5,306.167 398.5,309.833 398.5,313.5 Z"/></g>
<g><path style="opacity:1" fill="#0c0c0c" d="M 398.5,313.5 C 400.5,313.5 402.5,313.5 404.5,313.5C 404.5,315.167 404.5,316.833 404.5,318.5C 402.5,318.5 400.5,318.5 398.5,318.5C 398.5,321.833 398.5,325.167 398.5,328.5C 396.833,328.5 395.167,328.5 393.5,328.5C 393.5,320.167 393.5,311.833 393.5,303.5C 394.833,303.5 396.167,303.5 397.5,303.5C 397.187,307.042 397.521,310.375 398.5,313.5 Z"/></g>
<g><path style="opacity:1" fill="#666666" d="M 443.5,303.5 C 441.833,303.5 440.167,303.5 438.5,303.5C 438.5,313.833 438.5,324.167 438.5,334.5C 440.167,334.5 441.833,334.5 443.5,334.5C 441.735,335.461 439.735,335.795 437.5,335.5C 437.5,324.5 437.5,313.5 437.5,302.5C 439.735,302.205 441.735,302.539 443.5,303.5 Z"/></g>
<g><path style="opacity:1" fill="#030303" d="M 443.5,303.5 C 443.5,313.833 443.5,324.167 443.5,334.5C 441.833,334.5 440.167,334.5 438.5,334.5C 438.5,324.167 438.5,313.833 438.5,303.5C 440.167,303.5 441.833,303.5 443.5,303.5 Z"/></g>
<g><path style="opacity:1" fill="#4f4f4f" d="M 487.5,303.5 C 488.496,317.99 488.829,332.657 488.5,347.5C 486.5,347.5 484.5,347.5 482.5,347.5C 482.5,332.5 482.5,317.5 482.5,302.5C 484.415,302.216 486.081,302.549 487.5,303.5 Z"/></g>
<g><path style="opacity:1" fill="#000000" d="M 487.5,303.5 C 487.5,317.833 487.5,332.167 487.5,346.5C 486.167,346.5 484.833,346.5 483.5,346.5C 483.5,332.167 483.5,317.833 483.5,303.5C 484.833,303.5 486.167,303.5 487.5,303.5 Z"/></g>
<g><path style="opacity:1" fill="#5c5c5c" d="M 526.5,303.5 C 527.919,302.549 529.585,302.216 531.5,302.5C 531.5,317.5 531.5,332.5 531.5,347.5C 529.5,347.5 527.5,347.5 525.5,347.5C 525.171,332.657 525.504,317.99 526.5,303.5 Z"/></g>
<g><path style="opacity:1" fill="#000000" d="M 526.5,303.5 C 527.833,303.5 529.167,303.5 530.5,303.5C 530.5,317.833 530.5,332.167 530.5,346.5C 529.167,346.5 527.833,346.5 526.5,346.5C 526.5,332.167 526.5,317.833 526.5,303.5 Z"/></g>
<g><path style="opacity:1" fill="#070707" d="M 227.5,304.5 C 237.167,304.5 246.833,304.5 256.5,304.5C 256.5,305.5 256.5,306.5 256.5,307.5C 248.316,307.174 240.316,307.508 232.5,308.5C 232.5,309.5 232.5,310.5 232.5,311.5C 240.5,311.5 248.5,311.5 256.5,311.5C 256.5,312.833 256.5,314.167 256.5,315.5C 248.5,315.5 240.5,315.5 232.5,315.5C 232.5,316.5 232.5,317.5 232.5,318.5C 240.833,318.5 249.167,318.5 257.5,318.5C 257.5,319.833 257.5,321.167 257.5,322.5C 247.5,322.5 237.5,322.5 227.5,322.5C 227.5,316.5 227.5,310.5 227.5,304.5 Z"/></g>
<g><path style="opacity:1" fill="#0c0c0c" d="M 473.5,303.5 C 475.167,303.5 476.833,303.5 478.5,303.5C 478.5,317.5 478.5,331.5 478.5,345.5C 476.833,345.5 475.167,345.5 473.5,345.5C 473.5,338.167 473.5,330.833 473.5,323.5C 472.167,323.5 470.833,323.5 469.5,323.5C 469.329,328.859 467.329,333.359 463.5,337C 455.637,338.81 451.471,335.644 451,327.5C 448.955,319.503 450.788,312.669 456.5,307C 465.051,306.509 469.384,310.676 469.5,319.5C 470.833,319.5 472.167,319.5 473.5,319.5C 473.5,314.167 473.5,308.833 473.5,303.5 Z"/></g>
<g><path style="opacity:1" fill="#0b0b0b" d="M 506.5,313.5 C 503.038,312.518 499.371,312.185 495.5,312.5C 495.5,311.167 495.5,309.833 495.5,308.5C 500.833,308.5 506.167,308.5 511.5,308.5C 511.5,310.5 511.5,312.5 511.5,314.5C 511.167,316.5 510.833,318.5 510.5,320.5C 512.5,320.5 514.5,320.5 516.5,320.5C 516.5,314.833 516.5,309.167 516.5,303.5C 518.167,303.5 519.833,303.5 521.5,303.5C 521.5,317.5 521.5,331.5 521.5,345.5C 519.833,345.5 518.167,345.5 516.5,345.5C 516.5,338.5 516.5,331.5 516.5,324.5C 513.813,324.336 511.146,324.503 508.5,325C 505.667,330.5 501.5,334.667 496,337.5C 494.322,336.534 493.655,335.201 494,333.5C 501.234,328.763 505.401,322.096 506.5,313.5 Z"/></g>
<g><path style="opacity:1" fill="#020202" d="M 47.5,305.5 C 47.5,309.5 47.5,313.5 47.5,317.5C 56.1667,317.5 64.8333,317.5 73.5,317.5C 73.5,318.833 73.5,320.167 73.5,321.5C 63.1667,321.5 52.8333,321.5 42.5,321.5C 42.5,316.167 42.5,310.833 42.5,305.5C 44.1667,305.5 45.8333,305.5 47.5,305.5 Z"/></g>
<g><path style="opacity:1" fill="#0e0e0e" d="M 417.5,305.5 C 419.5,305.5 421.5,305.5 423.5,305.5C 421.93,314.478 425.263,320.811 433.5,324.5C 432.5,325.833 431.5,327.167 430.5,328.5C 426.544,326.212 423.211,323.212 420.5,319.5C 418.313,324.013 414.813,327.013 410,328.5C 408.231,327.629 407.564,326.296 408,324.5C 415.413,320.341 418.579,314.008 417.5,305.5 Z"/></g>
<g><path style="opacity:1" fill="#080808" d="M 85.5,305.5 C 95.5,305.5 105.5,305.5 115.5,305.5C 115.653,311.869 115.32,318.203 114.5,324.5C 116.5,324.5 118.5,324.5 120.5,324.5C 120.5,325.833 120.5,327.167 120.5,328.5C 114.642,328.178 108.975,328.511 103.5,329.5C 102.511,334.975 102.178,340.642 102.5,346.5C 100.833,346.5 99.1667,346.5 97.5,346.5C 97.5,340.5 97.5,334.5 97.5,328.5C 91.8333,328.5 86.1667,328.5 80.5,328.5C 80.5,327.167 80.5,325.833 80.5,324.5C 90.1667,324.5 99.8333,324.5 109.5,324.5C 109.5,322.167 109.5,319.833 109.5,317.5C 110.473,315.052 110.806,312.385 110.5,309.5C 102.167,309.5 93.8333,309.5 85.5,309.5C 85.5,308.167 85.5,306.833 85.5,305.5 Z"/></g>
<g><path style="opacity:1" fill="#030303" d="M 133.5,312.5 C 140.313,313.491 147.313,313.825 154.5,313.5C 154.5,311.167 154.5,308.833 154.5,306.5C 156.167,306.5 157.833,306.5 159.5,306.5C 159.5,313.833 159.5,321.167 159.5,328.5C 155.167,328.5 150.833,328.5 146.5,328.5C 146.5,331.5 146.5,334.5 146.5,337.5C 152.167,337.5 157.833,337.5 163.5,337.5C 163.5,338.833 163.5,340.167 163.5,341.5C 150.167,341.5 136.833,341.5 123.5,341.5C 123.5,340.167 123.5,338.833 123.5,337.5C 129.5,337.5 135.5,337.5 141.5,337.5C 141.5,334.5 141.5,331.5 141.5,328.5C 137.167,328.5 132.833,328.5 128.5,328.5C 128.5,321.167 128.5,313.833 128.5,306.5C 130.167,306.5 131.833,306.5 133.5,306.5C 133.5,308.5 133.5,310.5 133.5,312.5 Z"/></g>
<g><path style="opacity:1" fill="#020202" d="M 365.5,306.5 C 371.833,306.5 378.167,306.5 384.5,306.5C 384.5,307.833 384.5,309.167 384.5,310.5C 379.833,310.5 375.167,310.5 370.5,310.5C 370.5,314.167 370.5,317.833 370.5,321.5C 376.878,321.705 383.211,321.372 389.5,320.5C 389.5,321.833 389.5,323.167 389.5,324.5C 381.529,325.323 373.529,325.656 365.5,325.5C 365.5,319.167 365.5,312.833 365.5,306.5 Z"/></g>
<g><path style="opacity:1" fill="#111111" d="M 168.5,307.5 C 175.5,307.5 182.5,307.5 189.5,307.5C 189.5,308.833 189.5,310.167 189.5,311.5C 184.5,311.5 179.5,311.5 174.5,311.5C 174.5,318.167 174.5,324.833 174.5,331.5C 180.545,331.697 186.545,331.363 192.5,330.5C 192.5,332.167 192.5,333.833 192.5,335.5C 184.517,336.166 176.517,336.499 168.5,336.5C 168.5,326.833 168.5,317.167 168.5,307.5 Z"/></g>
<g><path style="opacity:1" fill="#4d4d4d" d="M 227.5,304.5 C 237.319,303.506 247.319,303.173 257.5,303.5C 257.5,305.167 257.5,306.833 257.5,308.5C 249.167,308.5 240.833,308.5 232.5,308.5C 240.316,307.508 248.316,307.174 256.5,307.5C 256.5,306.5 256.5,305.5 256.5,304.5C 246.833,304.5 237.167,304.5 227.5,304.5 Z"/></g>
<g><path style="opacity:1" fill="#828282" d="M 85.5,305.5 C 85.5,306.833 85.5,308.167 85.5,309.5C 93.8333,309.5 102.167,309.5 110.5,309.5C 110.806,312.385 110.473,315.052 109.5,317.5C 109.5,315.167 109.5,312.833 109.5,310.5C 101.167,310.5 92.8333,310.5 84.5,310.5C 84.2155,308.585 84.5489,306.919 85.5,305.5 Z"/></g>
<g><path style="opacity:1" fill="#9d9d9d" d="M 159.5,306.5 C 157.833,306.5 156.167,306.5 154.5,306.5C 154.5,308.833 154.5,311.167 154.5,313.5C 147.313,313.825 140.313,313.491 133.5,312.5C 140.167,312.5 146.833,312.5 153.5,312.5C 153.5,310.167 153.5,307.833 153.5,305.5C 155.735,305.205 157.735,305.539 159.5,306.5 Z"/></g>
<g><path style="opacity:1" fill="#e3e3e3" d="M 458.5,311.5 C 460.39,311.297 461.89,311.963 463,313.5C 464.949,319.14 464.949,324.807 463,330.5C 459.773,333.399 457.44,332.732 456,328.5C 455.333,324.167 455.333,319.833 456,315.5C 456.662,314.016 457.496,312.683 458.5,311.5 Z"/></g>
<g><path style="opacity:1" fill="#a2a2a2" d="M 511.5,314.5 C 511.5,312.5 511.5,310.5 511.5,308.5C 506.167,308.5 500.833,308.5 495.5,308.5C 495.5,309.833 495.5,311.167 495.5,312.5C 499.371,312.185 503.038,312.518 506.5,313.5C 502.5,313.5 498.5,313.5 494.5,313.5C 494.5,311.5 494.5,309.5 494.5,307.5C 500.5,307.5 506.5,307.5 512.5,307.5C 512.802,310.059 512.468,312.393 511.5,314.5 Z"/></g>
<g><path style="opacity:1" fill="#eaebea" d="M 296.5,313.5 C 296.5,314.5 296.5,315.5 296.5,316.5C 293.833,316.5 291.167,316.5 288.5,316.5C 288.5,315.5 288.5,314.5 288.5,313.5C 291.167,313.5 293.833,313.5 296.5,313.5 Z"/></g>
<g><path style="opacity:1" fill="#5f5f5f" d="M 296.5,303.5 C 298.265,302.539 300.265,302.205 302.5,302.5C 302.825,310.352 302.492,318.018 301.5,325.5C 301.5,318.167 301.5,310.833 301.5,303.5C 299.833,303.5 298.167,303.5 296.5,303.5 Z"/></g>
<g><path style="opacity:1" fill="#111111" d="M 316.5,314.5 C 322.701,313.285 327.868,314.952 332,319.5C 333.019,324.96 330.853,328.46 325.5,330C 319.064,331.945 314.231,330.112 311,324.5C 310.333,322.833 310.333,321.167 311,319.5C 312.73,317.598 314.563,315.931 316.5,314.5 Z"/></g>
<g><path style="opacity:1" fill="#cecece" d="M 272.5,314.5 C 275.833,314.5 279.167,314.5 282.5,314.5C 282.5,316.5 282.5,318.5 282.5,320.5C 279.167,320.5 275.833,320.5 272.5,320.5C 272.5,318.5 272.5,316.5 272.5,314.5 Z"/></g>
<g><path style="opacity:1" fill="#b1b1b1" d="M 47.5,305.5 C 48.4816,308.962 48.815,312.629 48.5,316.5C 57.0168,316.174 65.3501,316.507 73.5,317.5C 64.8333,317.5 56.1667,317.5 47.5,317.5C 47.5,313.5 47.5,309.5 47.5,305.5 Z"/></g>
<g><path style="opacity:1" fill="#505050" d="M 296.5,313.5 C 293.833,313.5 291.167,313.5 288.5,313.5C 288.5,314.5 288.5,315.5 288.5,316.5C 291.167,316.5 293.833,316.5 296.5,316.5C 293.713,317.477 290.713,317.81 287.5,317.5C 287.5,315.833 287.5,314.167 287.5,312.5C 290.713,312.19 293.713,312.523 296.5,313.5 Z"/></g>
<g><path style="opacity:1" fill="#eaebea" d="M 133.5,317.5 C 140.167,317.5 146.833,317.5 153.5,317.5C 153.5,319.833 153.5,322.167 153.5,324.5C 146.833,324.5 140.167,324.5 133.5,324.5C 133.5,322.167 133.5,319.833 133.5,317.5 Z"/></g>
<g><path style="opacity:1" fill="#e3e3e3" d="M 318.5,318.5 C 324.917,317.163 327.25,319.496 325.5,325.5C 317.497,328.057 315.164,325.724 318.5,318.5 Z"/></g>
<g><path style="opacity:1" fill="#454545" d="M 201.5,319.5 C 203.833,319.5 206.167,319.5 208.5,319.5C 208.5,321.167 208.5,322.833 208.5,324.5C 206.167,324.5 203.833,324.5 201.5,324.5C 203.265,323.539 205.265,323.205 207.5,323.5C 207.5,322.5 207.5,321.5 207.5,320.5C 205.265,320.795 203.265,320.461 201.5,319.5 Z"/></g>
<g><path style="opacity:1" fill="#7b7b7b" d="M 296.5,321.5 C 293.833,321.5 291.167,321.5 288.5,321.5C 288.737,322.791 288.404,323.791 287.5,324.5C 287.5,323.167 287.5,321.833 287.5,320.5C 290.713,320.19 293.713,320.523 296.5,321.5 Z"/></g>
<g><path style="opacity:1" fill="#010101" d="M 37.5,327.5 C 50.8333,327.5 64.1667,327.5 77.5,327.5C 77.5,328.833 77.5,330.167 77.5,331.5C 71.5,331.5 65.5,331.5 59.5,331.5C 59.5,336.833 59.5,342.167 59.5,347.5C 57.8333,347.5 56.1667,347.5 54.5,347.5C 54.5,342.167 54.5,336.833 54.5,331.5C 48.8333,331.5 43.1667,331.5 37.5,331.5C 37.5,330.167 37.5,328.833 37.5,327.5 Z"/></g>
<g><path style="opacity:1" fill="#000000" d="M 301.5,327.5 C 301.5,331.167 301.5,334.833 301.5,338.5C 293.648,338.175 285.982,338.508 278.5,339.5C 278.5,340.5 278.5,341.5 278.5,342.5C 286.833,342.5 295.167,342.5 303.5,342.5C 303.5,343.833 303.5,345.167 303.5,346.5C 293.5,346.5 283.5,346.5 273.5,346.5C 273.5,342.833 273.5,339.167 273.5,335.5C 281.167,335.5 288.833,335.5 296.5,335.5C 296.5,334.167 296.5,332.833 296.5,331.5C 288.833,331.5 281.167,331.5 273.5,331.5C 273.5,330.167 273.5,328.833 273.5,327.5C 282.833,327.5 292.167,327.5 301.5,327.5 Z"/></g>
<g><path style="opacity:1" fill="#545454" d="M 103.5,329.5 C 103.5,335.5 103.5,341.5 103.5,347.5C 101.265,347.795 99.2646,347.461 97.5,346.5C 99.1667,346.5 100.833,346.5 102.5,346.5C 102.178,340.642 102.511,334.975 103.5,329.5 Z"/></g>
<g><path style="opacity:1" fill="#505050" d="M 221.5,325.5 C 235.167,325.5 248.833,325.5 262.5,325.5C 262.5,327.167 262.5,328.833 262.5,330.5C 248.833,330.5 235.167,330.5 221.5,330.5C 221.5,328.833 221.5,327.167 221.5,325.5 Z"/></g>
<g><path style="opacity:1" fill="#000000" d="M 222.5,326.5 C 235.5,326.5 248.5,326.5 261.5,326.5C 261.5,327.5 261.5,328.5 261.5,329.5C 248.5,329.5 235.5,329.5 222.5,329.5C 222.5,328.5 222.5,327.5 222.5,326.5 Z"/></g>
<g><path style="opacity:1" fill="#101010" d="M 377.5,329.5 C 384.292,328.667 390.625,329.834 396.5,333C 399.89,339.226 398.224,343.559 391.5,346C 386.167,346.667 380.833,346.667 375.5,346C 370.076,343.983 368.242,340.15 370,334.5C 372.426,332.548 374.926,330.881 377.5,329.5 Z"/></g>
<g><path style="opacity:1" fill="#0d0d0d" d="M 414.5,332.5 C 416.167,332.5 417.833,332.5 419.5,332.5C 419.5,335.833 419.5,339.167 419.5,342.5C 427.833,342.5 436.167,342.5 444.5,342.5C 444.5,343.833 444.5,345.167 444.5,346.5C 434.5,346.5 424.5,346.5 414.5,346.5C 414.5,341.833 414.5,337.167 414.5,332.5 Z"/></g>
<g><path style="opacity:1" fill="#444444" d="M 226.5,334.5 C 236.653,333.506 246.986,333.172 257.5,333.5C 257.819,338.363 257.486,343.03 256.5,347.5C 256.5,343.167 256.5,338.833 256.5,334.5C 246.5,334.5 236.5,334.5 226.5,334.5 Z"/></g>
<g><path style="opacity:1" fill="#030303" d="M 315.5,333.5 C 317.167,333.5 318.833,333.5 320.5,333.5C 320.5,336.5 320.5,339.5 320.5,342.5C 328.5,342.5 336.5,342.5 344.5,342.5C 344.5,343.5 344.5,344.5 344.5,345.5C 334.833,345.5 325.167,345.5 315.5,345.5C 315.5,341.5 315.5,337.5 315.5,333.5 Z"/></g>
<g><path style="opacity:1" fill="#040404" d="M 226.5,334.5 C 236.5,334.5 246.5,334.5 256.5,334.5C 256.5,338.833 256.5,343.167 256.5,347.5C 254.833,347.5 253.167,347.5 251.5,347.5C 251.5,344.167 251.5,340.833 251.5,337.5C 243.167,337.5 234.833,337.5 226.5,337.5C 226.5,336.5 226.5,335.5 226.5,334.5 Z"/></g>
<g><path style="opacity:1" fill="#e0e0e0" d="M 376.5,334.5 C 381.511,334.334 386.511,334.501 391.5,335C 394.192,337.632 393.859,339.966 390.5,342C 386.167,342.667 381.833,342.667 377.5,342C 373.88,340.006 373.547,337.506 376.5,334.5 Z"/></g>
<g><path style="opacity:1" fill="#707070" d="M 301.5,327.5 C 302.483,331.298 302.817,335.298 302.5,339.5C 294.5,339.5 286.5,339.5 278.5,339.5C 285.982,338.508 293.648,338.175 301.5,338.5C 301.5,334.833 301.5,331.167 301.5,327.5 Z"/></g>
<g><path style="opacity:1" fill="#494949" d="M 315.5,333.5 C 315.5,337.5 315.5,341.5 315.5,345.5C 325.167,345.5 334.833,345.5 344.5,345.5C 344.5,344.5 344.5,343.5 344.5,342.5C 345.434,343.568 345.768,344.901 345.5,346.5C 335.167,346.5 324.833,346.5 314.5,346.5C 314.182,341.968 314.515,337.634 315.5,333.5 Z"/></g>
<g><path style="opacity:1" fill="#80b886" d="M 515.5,367.5 C 508.833,367.5 502.167,367.5 495.5,367.5C 494.86,377.558 495.527,387.225 497.5,396.5C 497.5,402.833 497.5,409.167 497.5,415.5C 344.167,415.5 190.833,415.5 37.5,415.5C 37.5,410.833 37.5,406.167 37.5,401.5C 50.8333,401.5 64.1667,401.5 77.5,401.5C 77.5,400.167 77.5,398.833 77.5,397.5C 71.5,397.5 65.5,397.5 59.5,397.5C 59.5,395.167 59.5,392.833 59.5,390.5C 64.1667,390.5 68.8333,390.5 73.5,390.5C 73.5,389.167 73.5,387.833 73.5,386.5C 64.8333,386.5 56.1667,386.5 47.5,386.5C 47.5,384.5 47.5,382.5 47.5,380.5C 55.8333,380.5 64.1667,380.5 72.5,380.5C 72.5,375.833 72.5,371.167 72.5,366.5C 62.3468,365.506 52.0135,365.172 41.5,365.5C 41.2155,367.415 41.5489,369.081 42.5,370.5C 50.8333,370.5 59.1667,370.5 67.5,370.5C 67.5,372.5 67.5,374.5 67.5,376.5C 59.1667,376.5 50.8333,376.5 42.5,376.5C 42.5,381.167 42.5,385.833 42.5,390.5C 46.5,390.5 50.5,390.5 54.5,390.5C 54.5,392.833 54.5,395.167 54.5,397.5C 48.8333,397.5 43.1667,397.5 37.5,397.5C 37.5,383.833 37.5,370.167 37.5,356.5C 190.833,356.5 344.167,356.5 497.5,356.5C 497.5,359.833 497.5,363.167 497.5,366.5C 503.69,366.177 509.69,366.51 515.5,367.5 Z"/></g>
<g><path style="opacity:1" fill="#3f5b41" d="M 117.5,363.5 C 115.833,363.5 114.167,363.5 112.5,363.5C 112.81,366.713 112.477,369.713 111.5,372.5C 111.5,369.167 111.5,365.833 111.5,362.5C 113.735,362.205 115.735,362.539 117.5,363.5 Z"/></g>
<g><path style="opacity:1" fill="#090d09" d="M 117.5,363.5 C 117.5,370.833 117.5,378.167 117.5,385.5C 115.5,385.5 113.5,385.5 111.5,385.5C 111.5,382.833 111.5,380.167 111.5,377.5C 108.833,377.5 106.167,377.5 103.5,377.5C 103.5,376.167 103.5,374.833 103.5,373.5C 106.385,373.806 109.052,373.473 111.5,372.5C 112.477,369.713 112.81,366.713 112.5,363.5C 114.167,363.5 115.833,363.5 117.5,363.5 Z"/></g>
<g><path style="opacity:1" fill="#334935" d="M 160.5,363.5 C 158.833,363.5 157.167,363.5 155.5,363.5C 155.5,377.833 155.5,392.167 155.5,406.5C 157.167,406.5 158.833,406.5 160.5,406.5C 158.735,407.461 156.735,407.795 154.5,407.5C 154.5,392.5 154.5,377.5 154.5,362.5C 156.735,362.205 158.735,362.539 160.5,363.5 Z"/></g>
<g><path style="opacity:1" fill="#030503" d="M 160.5,363.5 C 160.5,377.833 160.5,392.167 160.5,406.5C 158.833,406.5 157.167,406.5 155.5,406.5C 155.5,392.167 155.5,377.833 155.5,363.5C 157.167,363.5 158.833,363.5 160.5,363.5 Z"/></g>
<g><path style="opacity:1" fill="#050705" d="M 196.5,363.5 C 198.167,363.5 199.833,363.5 201.5,363.5C 201.5,368.833 201.5,374.167 201.5,379.5C 203.833,379.5 206.167,379.5 208.5,379.5C 208.5,381.167 208.5,382.833 208.5,384.5C 206.167,384.5 203.833,384.5 201.5,384.5C 201.5,392.167 201.5,399.833 201.5,407.5C 199.833,407.5 198.167,407.5 196.5,407.5C 196.5,392.833 196.5,378.167 196.5,363.5 Z"/></g>
<g><path style="opacity:1" fill="#2b3e2d" d="M 339.5,362.5 C 341.5,362.5 343.5,362.5 345.5,362.5C 345.5,377.5 345.5,392.5 345.5,407.5C 343.5,407.5 341.5,407.5 339.5,407.5C 339.5,392.5 339.5,377.5 339.5,362.5 Z"/></g>
<g><path style="opacity:1" fill="#000000" d="M 340.5,363.5 C 341.833,363.5 343.167,363.5 344.5,363.5C 344.5,377.833 344.5,392.167 344.5,406.5C 343.167,406.5 341.833,406.5 340.5,406.5C 340.5,392.167 340.5,377.833 340.5,363.5 Z"/></g>
<g><path style="opacity:1" fill="#030503" d="M 405.5,362.5 C 407.167,362.5 408.833,362.5 410.5,362.5C 410.5,364.167 410.5,365.833 410.5,367.5C 413.833,367.5 417.167,367.5 420.5,367.5C 420.5,368.833 420.5,370.167 420.5,371.5C 411.833,371.5 403.167,371.5 394.5,371.5C 394.5,370.167 394.5,368.833 394.5,367.5C 398.167,367.5 401.833,367.5 405.5,367.5C 405.5,365.833 405.5,364.167 405.5,362.5 Z"/></g>
<g><path style="opacity:1" fill="#000000" d="M 424.5,363.5 C 426.167,363.5 427.833,363.5 429.5,363.5C 429.5,367.167 429.5,370.833 429.5,374.5C 431.5,374.5 433.5,374.5 435.5,374.5C 435.5,375.833 435.5,377.167 435.5,378.5C 433.5,378.5 431.5,378.5 429.5,378.5C 429.5,382.167 429.5,385.833 429.5,389.5C 427.833,389.5 426.167,389.5 424.5,389.5C 424.5,380.833 424.5,372.167 424.5,363.5 Z"/></g>
<g><path style="opacity:1" fill="#000000" d="M 524.5,383.5 C 521.038,382.518 517.371,382.185 513.5,382.5C 513.5,381.167 513.5,379.833 513.5,378.5C 517.167,378.5 520.833,378.5 524.5,378.5C 525.487,373.695 525.821,368.695 525.5,363.5C 526.833,363.5 528.167,363.5 529.5,363.5C 529.5,377.833 529.5,392.167 529.5,406.5C 528.167,406.5 526.833,406.5 525.5,406.5C 525.825,398.648 525.492,390.982 524.5,383.5 Z"/></g>
<g><path style="opacity:1" fill="#4b4b4b" d="M 524.5,383.5 C 525.492,390.982 525.825,398.648 525.5,406.5C 526.833,406.5 528.167,406.5 529.5,406.5C 529.5,392.167 529.5,377.833 529.5,363.5C 528.167,363.5 526.833,363.5 525.5,363.5C 525.821,368.695 525.487,373.695 524.5,378.5C 524.5,373.167 524.5,367.833 524.5,362.5C 526.5,362.5 528.5,362.5 530.5,362.5C 530.5,377.5 530.5,392.5 530.5,407.5C 528.5,407.5 526.5,407.5 524.5,407.5C 524.5,399.5 524.5,391.5 524.5,383.5 Z"/></g>
<g><path style="opacity:1" fill="#010101" d="M 577.5,384.5 C 575.167,384.5 572.833,384.5 570.5,384.5C 570.5,392.167 570.5,399.833 570.5,407.5C 568.833,407.5 567.167,407.5 565.5,407.5C 565.5,392.833 565.5,378.167 565.5,363.5C 567.167,363.5 568.833,363.5 570.5,363.5C 570.5,369.167 570.5,374.833 570.5,380.5C 572.833,380.5 575.167,380.5 577.5,380.5C 577.5,381.833 577.5,383.167 577.5,384.5 Z"/></g>
<g><path style="opacity:1" fill="#141414" d="M 608.5,363.5 C 610.167,363.5 611.833,363.5 613.5,363.5C 613.179,369.026 613.512,374.36 614.5,379.5C 616.5,379.5 618.5,379.5 620.5,379.5C 620.5,381.167 620.5,382.833 620.5,384.5C 618.5,384.5 616.5,384.5 614.5,384.5C 614.5,392.167 614.5,399.833 614.5,407.5C 612.5,407.5 610.5,407.5 608.5,407.5C 608.5,392.833 608.5,378.167 608.5,363.5 Z"/></g>
<g><path style="opacity:1" fill="#6a6a6a" d="M 608.5,363.5 C 610.265,362.539 612.265,362.205 614.5,362.5C 614.5,368.167 614.5,373.833 614.5,379.5C 613.512,374.36 613.179,369.026 613.5,363.5C 611.833,363.5 610.167,363.5 608.5,363.5 Z"/></g>
<g><path style="opacity:1" fill="#000000" d="M 215.5,364.5 C 217.167,364.5 218.833,364.5 220.5,364.5C 220.5,368.167 220.5,371.833 220.5,375.5C 228.833,375.5 237.167,375.5 245.5,375.5C 245.5,376.833 245.5,378.167 245.5,379.5C 235.5,379.5 225.5,379.5 215.5,379.5C 215.5,374.5 215.5,369.5 215.5,364.5 Z"/></g>
<g><path style="opacity:1" fill="#080b08" d="M 278.5,364.5 C 284.678,364.107 290.678,364.94 296.5,367C 300.277,369.955 301.443,373.788 300,378.5C 298.048,380.894 295.548,382.394 292.5,383C 286.388,383.909 280.388,383.576 274.5,382C 268.741,378.108 268.074,373.441 272.5,368C 274.727,367.059 276.727,365.892 278.5,364.5 Z"/></g>
<g><path style="opacity:1" fill="#090c09" d="M 450.5,363.5 C 457.313,363.225 463.979,364.058 470.5,366C 475.6,372.646 473.933,376.646 465.5,378C 459.833,378.667 454.167,378.667 448.5,378C 443.254,376.763 441.42,373.596 443,368.5C 445.17,366.177 447.67,364.51 450.5,363.5 Z"/></g>
<g><path style="opacity:1" fill="#030303" d="M 551.5,369.5 C 554.625,370.479 557.958,370.813 561.5,370.5C 561.5,371.5 561.5,372.5 561.5,373.5C 553.167,373.5 544.833,373.5 536.5,373.5C 536.5,372.5 536.5,371.5 536.5,370.5C 540.042,370.813 543.375,370.479 546.5,369.5C 546.5,367.5 546.5,365.5 546.5,363.5C 548.167,363.5 549.833,363.5 551.5,363.5C 551.5,365.5 551.5,367.5 551.5,369.5 Z"/></g>
<g><path style="opacity:1" fill="#405d43" d="M 72.5,366.5 C 62.5,366.5 52.5,366.5 42.5,366.5C 42.5,367.833 42.5,369.167 42.5,370.5C 41.5489,369.081 41.2155,367.415 41.5,365.5C 52.0135,365.172 62.3468,365.506 72.5,366.5 Z"/></g>
<g><path style="opacity:1" fill="#080c08" d="M 103.5,365.5 C 102.439,377.229 96.1061,384.229 84.5,386.5C 82.8333,386.167 81.8333,385.167 81.5,383.5C 85.9383,382.115 89.9383,379.948 93.5,377C 89.5138,376.501 85.5138,376.334 81.5,376.5C 81.5,375.167 81.5,373.833 81.5,372.5C 86.8333,372.5 92.1667,372.5 97.5,372.5C 97.5,371.5 97.5,370.5 97.5,369.5C 93.3656,368.515 89.0323,368.182 84.5,368.5C 84.5,367.5 84.5,366.5 84.5,365.5C 90.8333,365.5 97.1667,365.5 103.5,365.5 Z"/></g>
<g><path style="opacity:1" fill="#040604" d="M 72.5,366.5 C 72.5,371.167 72.5,375.833 72.5,380.5C 64.1667,380.5 55.8333,380.5 47.5,380.5C 47.5,382.5 47.5,384.5 47.5,386.5C 56.1667,386.5 64.8333,386.5 73.5,386.5C 73.5,387.833 73.5,389.167 73.5,390.5C 68.8333,390.5 64.1667,390.5 59.5,390.5C 59.5,392.833 59.5,395.167 59.5,397.5C 65.5,397.5 71.5,397.5 77.5,397.5C 77.5,398.833 77.5,400.167 77.5,401.5C 64.1667,401.5 50.8333,401.5 37.5,401.5C 37.5,400.167 37.5,398.833 37.5,397.5C 43.1667,397.5 48.8333,397.5 54.5,397.5C 54.5,395.167 54.5,392.833 54.5,390.5C 50.5,390.5 46.5,390.5 42.5,390.5C 42.5,385.833 42.5,381.167 42.5,376.5C 50.8333,376.5 59.1667,376.5 67.5,376.5C 67.5,374.5 67.5,372.5 67.5,370.5C 59.1667,370.5 50.8333,370.5 42.5,370.5C 42.5,369.167 42.5,367.833 42.5,366.5C 52.5,366.5 62.5,366.5 72.5,366.5 Z"/></g>
<g><path style="opacity:1" fill="#080b08" d="M 132.5,366.5 C 139.617,365.14 144.451,367.807 147,374.5C 148.356,381.612 147.356,388.279 144,394.5C 135.521,399.955 129.521,397.955 126,388.5C 125.333,383.833 125.333,379.167 126,374.5C 127.305,371.039 129.471,368.372 132.5,366.5 Z"/></g>
<g><path style="opacity:1" fill="#070a07" d="M 174.5,383.5 C 173.523,386.287 173.19,389.287 173.5,392.5C 178.695,392.821 183.695,392.487 188.5,391.5C 189.833,391.5 191.167,391.5 192.5,391.5C 192.5,392.833 192.5,394.167 192.5,395.5C 184.534,396.365 176.534,396.698 168.5,396.5C 168.5,390.833 168.5,385.167 168.5,379.5C 173.5,379.5 178.5,379.5 183.5,379.5C 183.5,376.833 183.5,374.167 183.5,371.5C 178.5,371.5 173.5,371.5 168.5,371.5C 168.5,369.833 168.5,368.167 168.5,366.5C 175.167,366.5 181.833,366.5 188.5,366.5C 188.5,372.167 188.5,377.833 188.5,383.5C 183.833,383.5 179.167,383.5 174.5,383.5 Z"/></g>
<g><path style="opacity:1" fill="#354d38" d="M 311.5,367.5 C 311.5,376.833 311.5,386.167 311.5,395.5C 313.167,395.5 314.833,395.5 316.5,395.5C 314.735,396.461 312.735,396.795 310.5,396.5C 310.173,386.652 310.506,376.986 311.5,367.5 Z"/></g>
<g><path style="opacity:1" fill="#080c08" d="M 311.5,367.5 C 313.167,367.5 314.833,367.5 316.5,367.5C 316.5,375.5 316.5,383.5 316.5,391.5C 323.239,391.488 329.905,390.821 336.5,389.5C 336.5,391.167 336.5,392.833 336.5,394.5C 329.863,395.276 323.196,395.609 316.5,395.5C 314.833,395.5 313.167,395.5 311.5,395.5C 311.5,386.167 311.5,376.833 311.5,367.5 Z"/></g>
<g><path style="opacity:1" fill="#080b08" d="M 356.5,367.5 C 366.833,367.5 377.167,367.5 387.5,367.5C 387.809,376.259 387.142,384.925 385.5,393.5C 383.833,393.5 382.167,393.5 380.5,393.5C 380.833,390.167 381.167,386.833 381.5,383.5C 372.822,383.584 364.155,383.917 355.5,384.5C 355.5,382.833 355.5,381.167 355.5,379.5C 364.167,379.5 372.833,379.5 381.5,379.5C 381.5,376.833 381.5,374.167 381.5,371.5C 373.167,371.5 364.833,371.5 356.5,371.5C 356.5,370.167 356.5,368.833 356.5,367.5 Z"/></g>
<g><path style="opacity:1" fill="#090909" d="M 515.5,367.5 C 515.5,368.833 515.5,370.167 515.5,371.5C 510.5,371.5 505.5,371.5 500.5,371.5C 500.5,378.167 500.5,384.833 500.5,391.5C 506.176,391.334 511.843,391.501 517.5,392C 518.337,393.011 518.67,394.178 518.5,395.5C 511.524,396.232 504.524,396.565 497.5,396.5C 495.527,387.225 494.86,377.558 495.5,367.5C 502.167,367.5 508.833,367.5 515.5,367.5 Z"/></g>
<g><path style="opacity:1" fill="#050505" d="M 581.5,367.5 C 588.167,367.5 594.833,367.5 601.5,367.5C 601.5,368.833 601.5,370.167 601.5,371.5C 596.5,371.5 591.5,371.5 586.5,371.5C 586.5,378.167 586.5,384.833 586.5,391.5C 592.561,391.79 598.561,391.457 604.5,390.5C 605.452,392.045 605.785,393.712 605.5,395.5C 597.517,396.166 589.517,396.499 581.5,396.5C 581.5,386.833 581.5,377.167 581.5,367.5 Z"/></g>
<g><path style="opacity:1" fill="#2c3f2d" d="M 103.5,365.5 C 97.1667,365.5 90.8333,365.5 84.5,365.5C 84.5,366.5 84.5,367.5 84.5,368.5C 89.0323,368.182 93.3656,368.515 97.5,369.5C 92.8333,369.5 88.1667,369.5 83.5,369.5C 83.5,367.833 83.5,366.167 83.5,364.5C 90.3543,364.176 97.021,364.509 103.5,365.5 Z"/></g>
<g><path style="opacity:1" fill="#79af7f" d="M 451.5,367.5 C 455.846,367.334 460.179,367.501 464.5,368C 469.062,369.699 469.395,371.699 465.5,374C 460.5,374.667 455.5,374.667 450.5,374C 449.09,373.632 448.09,372.799 447.5,371.5C 448.549,369.784 449.882,368.451 451.5,367.5 Z"/></g>
<g><path style="opacity:1" fill="#7db583" d="M 278.5,369.5 C 282.846,369.334 287.179,369.501 291.5,370C 296.833,373 296.833,376 291.5,379C 287.167,379.667 282.833,379.667 278.5,379C 274.586,375.714 274.586,372.548 278.5,369.5 Z"/></g>
<g><path style="opacity:1" fill="#7eb584" d="M 133.5,371.5 C 137.49,370.616 140.323,371.949 142,375.5C 142.667,379.5 142.667,383.5 142,387.5C 137.776,394.366 134.109,394.033 131,386.5C 129.776,381.043 130.609,376.043 133.5,371.5 Z"/></g>
<g><path style="opacity:1" fill="#080c08" d="M 402.5,373.5 C 407.412,373.063 412.078,373.896 416.5,376C 419.69,381.051 418.69,385.051 413.5,388C 409.044,388.867 404.711,388.534 400.5,387C 397.651,384.441 396.817,381.274 398,377.5C 399.667,376.267 401.167,374.933 402.5,373.5 Z"/></g>
<g><path style="opacity:1" fill="#454545" d="M 546.5,369.5 C 543.375,370.479 540.042,370.813 536.5,370.5C 536.5,371.5 536.5,372.5 536.5,373.5C 544.833,373.5 553.167,373.5 561.5,373.5C 561.5,372.5 561.5,371.5 561.5,370.5C 557.958,370.813 554.625,370.479 551.5,369.5C 555.167,369.5 558.833,369.5 562.5,369.5C 562.5,371.167 562.5,372.833 562.5,374.5C 553.5,374.5 544.5,374.5 535.5,374.5C 535.5,372.833 535.5,371.167 535.5,369.5C 539.167,369.5 542.833,369.5 546.5,369.5 Z"/></g>
<g><path style="opacity:1" fill="#7eb684" d="M 404.5,377.5 C 406.857,377.337 409.19,377.503 411.5,378C 414.167,380 414.167,382 411.5,384C 408.833,384.667 406.167,384.667 403.5,384C 402.144,381.586 402.478,379.419 404.5,377.5 Z"/></g>
<g><path style="opacity:1" fill="#0b0b0b" d="M 543.5,377.5 C 548.734,376.835 553.568,377.835 558,380.5C 561.69,386.386 560.856,391.553 555.5,396C 543.07,399.9 537.57,395.4 539,382.5C 540.707,380.963 542.207,379.296 543.5,377.5 Z"/></g>
<g><path style="opacity:1" fill="#010101" d="M 438.5,381.5 C 451.833,381.5 465.167,381.5 478.5,381.5C 478.5,382.833 478.5,384.167 478.5,385.5C 465.167,385.5 451.833,385.5 438.5,385.5C 438.5,384.167 438.5,382.833 438.5,381.5 Z"/></g>
<g><path style="opacity:1" fill="#dbdbdb" d="M 546.5,381.5 C 554.52,381.392 556.854,384.892 553.5,392C 546.243,394.746 543.077,392.246 544,384.5C 545.045,383.627 545.878,382.627 546.5,381.5 Z"/></g>
<g><path style="opacity:1" fill="#8f8f8f" d="M 577.5,384.5 C 575.735,385.461 573.735,385.795 571.5,385.5C 571.825,393.019 571.492,400.352 570.5,407.5C 570.5,399.833 570.5,392.167 570.5,384.5C 572.833,384.5 575.167,384.5 577.5,384.5 Z"/></g>
<g><path style="opacity:1" fill="#030403" d="M 117.5,398.5 C 109.5,398.5 101.5,398.5 93.5,398.5C 93.5,399.833 93.5,401.167 93.5,402.5C 101.833,402.5 110.167,402.5 118.5,402.5C 118.5,403.833 118.5,405.167 118.5,406.5C 108.5,406.5 98.5,406.5 88.5,406.5C 88.5,402.5 88.5,398.5 88.5,394.5C 96.5,394.5 104.5,394.5 112.5,394.5C 112.5,393.5 112.5,392.5 112.5,391.5C 104.5,391.5 96.5,391.5 88.5,391.5C 88.5,390.167 88.5,388.833 88.5,387.5C 98.1667,387.5 107.833,387.5 117.5,387.5C 117.5,391.167 117.5,394.833 117.5,398.5 Z"/></g>
<g><path style="opacity:1" fill="#2c3f2e" d="M 210.5,385.5 C 223.656,384.504 236.99,384.171 250.5,384.5C 250.5,386.167 250.5,387.833 250.5,389.5C 236.833,389.5 223.167,389.5 209.5,389.5C 209.232,387.901 209.566,386.568 210.5,385.5 Z"/></g>
<g><path style="opacity:1" fill="#000000" d="M 210.5,385.5 C 223.5,385.5 236.5,385.5 249.5,385.5C 249.5,386.5 249.5,387.5 249.5,388.5C 236.5,388.5 223.5,388.5 210.5,388.5C 210.5,387.5 210.5,386.5 210.5,385.5 Z"/></g>
<g><path style="opacity:1" fill="#0a0e0a" d="M 280.5,392.5 C 279.514,396.97 279.181,401.637 279.5,406.5C 278.167,406.5 276.833,406.5 275.5,406.5C 275.819,401.637 275.486,396.97 274.5,392.5C 271.5,392.5 268.5,392.5 265.5,392.5C 265.5,390.833 265.5,389.167 265.5,387.5C 278.833,387.5 292.167,387.5 305.5,387.5C 305.5,389.167 305.5,390.833 305.5,392.5C 302.167,392.5 298.833,392.5 295.5,392.5C 295.5,397.5 295.5,402.5 295.5,407.5C 293.833,407.5 292.167,407.5 290.5,407.5C 290.5,402.5 290.5,397.5 290.5,392.5C 287.167,392.5 283.833,392.5 280.5,392.5 Z"/></g>
<g><path style="opacity:1" fill="#030403" d="M 472.5,388.5 C 472.5,391.833 472.5,395.167 472.5,398.5C 464.316,398.174 456.316,398.508 448.5,399.5C 448.5,400.5 448.5,401.5 448.5,402.5C 457.167,402.5 465.833,402.5 474.5,402.5C 474.5,403.833 474.5,405.167 474.5,406.5C 463.833,406.5 453.167,406.5 442.5,406.5C 442.5,402.833 442.5,399.167 442.5,395.5C 450.833,395.5 459.167,395.5 467.5,395.5C 467.5,394.5 467.5,393.5 467.5,392.5C 459.167,392.5 450.833,392.5 442.5,392.5C 442.5,391.167 442.5,389.833 442.5,388.5C 452.5,388.5 462.5,388.5 472.5,388.5 Z"/></g>
<g><path style="opacity:1" fill="#425f45" d="M 174.5,383.5 C 174.5,386.167 174.5,388.833 174.5,391.5C 179.167,391.5 183.833,391.5 188.5,391.5C 183.695,392.487 178.695,392.821 173.5,392.5C 173.19,389.287 173.523,386.287 174.5,383.5 Z"/></g>
<g><path style="opacity:1" fill="#040604" d="M 401.5,391.5 C 410.833,391.5 420.167,391.5 429.5,391.5C 429.5,396.5 429.5,401.5 429.5,406.5C 420.167,406.5 410.833,406.5 401.5,406.5C 401.5,401.5 401.5,396.5 401.5,391.5 Z"/></g>
<g><path style="opacity:1" fill="#020302" d="M 215.5,393.5 C 217.167,393.5 218.833,393.5 220.5,393.5C 220.5,396.167 220.5,398.833 220.5,401.5C 228.65,402.493 236.983,402.826 245.5,402.5C 245.5,403.5 245.5,404.5 245.5,405.5C 235.5,405.5 225.5,405.5 215.5,405.5C 215.5,401.5 215.5,397.5 215.5,393.5 Z"/></g>
<g><path style="opacity:1" fill="#81bb87" d="M 406.5,396.5 C 412.167,396.5 417.833,396.5 423.5,396.5C 423.5,398.167 423.5,399.833 423.5,401.5C 417.833,401.5 412.167,401.5 406.5,401.5C 406.5,399.833 406.5,398.167 406.5,396.5 Z"/></g>
<g><path style="opacity:1" fill="#000000" d="M 351.5,397.5 C 364.833,397.5 378.167,397.5 391.5,397.5C 391.5,398.833 391.5,400.167 391.5,401.5C 378.167,401.5 364.833,401.5 351.5,401.5C 351.5,400.167 351.5,398.833 351.5,397.5 Z"/></g>
<g><path style="opacity:1" fill="#1f2d20" d="M 274.5,392.5 C 275.486,396.97 275.819,401.637 275.5,406.5C 276.833,406.5 278.167,406.5 279.5,406.5C 279.181,401.637 279.514,396.97 280.5,392.5C 280.5,397.5 280.5,402.5 280.5,407.5C 278.5,407.5 276.5,407.5 274.5,407.5C 274.5,402.5 274.5,397.5 274.5,392.5 Z"/></g>
<g><path style="opacity:1" fill="#223124" d="M 472.5,388.5 C 473.482,391.962 473.815,395.629 473.5,399.5C 465.167,399.5 456.833,399.5 448.5,399.5C 456.316,398.508 464.316,398.174 472.5,398.5C 472.5,395.167 472.5,391.833 472.5,388.5 Z"/></g>
<g><path style="opacity:1" fill="#608b65" d="M 117.5,398.5 C 109.99,399.167 102.323,399.833 94.5,400.5C 102.657,401.167 110.657,401.833 118.5,402.5C 110.167,402.5 101.833,402.5 93.5,402.5C 93.5,401.167 93.5,399.833 93.5,398.5C 101.5,398.5 109.5,398.5 117.5,398.5 Z"/></g>
<g><path style="opacity:1" fill="#557b5a" d="M 406.5,396.5 C 412.31,395.51 418.31,395.177 424.5,395.5C 424.5,397.833 424.5,400.167 424.5,402.5C 418.31,402.823 412.31,402.49 406.5,401.5C 412.167,401.5 417.833,401.5 423.5,401.5C 423.5,399.833 423.5,398.167 423.5,396.5C 417.833,396.5 412.167,396.5 406.5,396.5 Z"/></g>
<g><path style="opacity:1" fill="#243426" d="M 215.5,393.5 C 215.5,397.5 215.5,401.5 215.5,405.5C 225.5,405.5 235.5,405.5 245.5,405.5C 245.5,404.5 245.5,403.5 245.5,402.5C 236.983,402.826 228.65,402.493 220.5,401.5C 229.167,401.5 237.833,401.5 246.5,401.5C 246.5,403.167 246.5,404.833 246.5,406.5C 235.833,406.5 225.167,406.5 214.5,406.5C 214.182,401.968 214.515,397.634 215.5,393.5 Z"/></g>
<g><path style="opacity:1" fill="#444444" d="M 70.5,431.5 C 71.8197,434.428 72.4864,437.761 72.5,441.5C 72.1667,444.833 71.8333,448.167 71.5,451.5C 70.5033,444.866 70.17,438.2 70.5,431.5 Z"/></g>
<g><path style="opacity:1" fill="#333333" d="M 90.5,431.5 C 91.8182,434.258 92.4848,437.424 92.5,441C 92.1667,444.167 91.8333,447.333 91.5,450.5C 90.5037,444.202 90.1703,437.868 90.5,431.5 Z"/></g>
<g><path style="opacity:1" fill="#030303" d="M 110.5,431.5 C 110.823,438.022 110.49,444.355 109.5,450.5C 109.5,446.833 109.5,443.167 109.5,439.5C 102.833,439.167 102.833,438.833 109.5,438.5C 109.198,435.941 109.532,433.607 110.5,431.5 Z"/></g>
<g><path style="opacity:1" fill="#686868" d="M 110.5,431.5 C 111.818,438.011 111.818,444.678 110.5,451.5C 109.893,451.376 109.56,451.043 109.5,450.5C 110.49,444.355 110.823,438.022 110.5,431.5 Z"/></g>
<g><path style="opacity:1" fill="#000000" d="M 153.5,431.5 C 154.461,433.265 154.795,435.265 154.5,437.5C 158.5,437.833 158.5,438.167 154.5,438.5C 154.663,440.857 154.497,443.19 154,445.5C 153.501,440.845 153.334,436.179 153.5,431.5 Z"/></g>
<g><path style="opacity:1" fill="#000000" d="M 173.5,431.5 C 173.5,434.167 173.5,436.833 173.5,439.5C 174.791,439.263 175.791,439.596 176.5,440.5C 175.5,440.5 174.5,440.5 173.5,440.5C 172.438,449.775 172.438,446.775 173.5,431.5 Z"/></g>
<g><path style="opacity:1" fill="#060606" d="M 308.5,441.5 C 307.833,441.5 307.167,441.5 306.5,441.5C 306.5,440.167 306.5,438.833 306.5,437.5C 301.167,436.833 301.167,436.167 306.5,435.5C 306.238,434.022 306.571,432.689 307.5,431.5C 308.487,434.768 308.82,438.102 308.5,441.5 Z"/></g>
<g><path style="opacity:1" fill="#bcbcbc" d="M 350.5,431.5 C 350.5,437.833 350.5,444.167 350.5,450.5C 349.566,449.432 349.232,448.099 349.5,446.5C 348.167,446.5 346.833,446.5 345.5,446.5C 346.263,445.732 347.263,445.232 348.5,445C 345.518,444.502 342.518,444.335 339.5,444.5C 339.232,442.901 339.566,441.568 340.5,440.5C 340.5,441.5 340.5,442.5 340.5,443.5C 343.5,443.5 346.5,443.5 349.5,443.5C 349.183,439.298 349.517,435.298 350.5,431.5 Z"/></g>
<g><path style="opacity:1" fill="#000000" d="M 350.5,431.5 C 351.818,434.258 352.485,437.424 352.5,441C 352.485,444.576 351.818,447.742 350.5,450.5C 350.5,444.167 350.5,437.833 350.5,431.5 Z"/></g>
<g><path style="opacity:1" fill="#131313" d="M 366.5,431.5 C 367.816,434.087 368.483,437.087 368.5,440.5C 368.134,452.393 367.134,452.393 365.5,440.5C 364.194,441.912 363.36,443.579 363,445.5C 357.691,447.308 355.524,445.308 356.5,439.5C 358.106,430.537 361.106,430.204 365.5,438.5C 366.474,436.257 366.808,433.924 366.5,431.5 Z"/></g>
<g><path style="opacity:1" fill="#000000" d="M 370.5,431.5 C 371.818,434.258 372.485,437.424 372.5,441C 372.167,444.167 371.833,447.333 371.5,450.5C 370.504,444.202 370.17,437.868 370.5,431.5 Z"/></g>
<g><path style="opacity:1" fill="#000000" d="M 389.5,431.5 C 390.818,434.258 391.485,437.424 391.5,441C 391.167,444.167 390.833,447.333 390.5,450.5C 389.504,444.202 389.17,437.868 389.5,431.5 Z"/></g>
<g><path style="opacity:1" fill="#171717" d="M 410.5,431.5 C 410.666,437.842 410.5,444.175 410,450.5C 409.821,446.975 409.321,443.641 408.5,440.5C 404.5,439.833 404.5,439.167 408.5,438.5C 407.99,435.612 408.656,433.279 410.5,431.5 Z"/></g>
<g><path style="opacity:1" fill="#464646" d="M 447.5,431.5 C 448.82,434.428 449.486,437.761 449.5,441.5C 449.167,444.833 448.833,448.167 448.5,451.5C 447.503,444.866 447.17,438.2 447.5,431.5 Z"/></g>
<g><path style="opacity:1" fill="#202020" d="M 473.5,431.5 C 474.818,434.258 475.485,437.424 475.5,441C 475.167,444.167 474.833,447.333 474.5,450.5C 473.504,444.202 473.17,437.868 473.5,431.5 Z"/></g>
<g><path style="opacity:1" fill="#777777" d="M 494.5,432.5 C 489.637,432.181 484.97,432.514 480.5,433.5C 479.957,433.44 479.624,433.107 479.5,432.5C 484.652,431.186 489.652,431.186 494.5,432.5 Z"/></g>
<g><path style="opacity:1" fill="#777777" d="M 500.5,432.5 C 504.683,431.189 509.016,431.189 513.5,432.5C 513.376,433.107 513.043,433.44 512.5,433.5C 508.702,432.517 504.702,432.183 500.5,432.5 Z"/></g>
<g><path style="opacity:1" fill="#3d3d3d" d="M 521.5,431.5 C 525.257,431.071 528.757,431.737 532,433.5C 532.711,435.367 532.211,436.867 530.5,438C 527.5,438.667 524.5,438.667 521.5,438C 519.048,435.921 519.048,433.754 521.5,431.5 Z"/></g>
<g><path style="opacity:1" fill="#7d7d7d" d="M 116.5,433.5 C 121.015,432.188 125.682,432.188 130.5,433.5C 130.376,434.107 130.043,434.44 129.5,434.5C 125.366,433.515 121.032,433.182 116.5,433.5 Z"/></g>
<g><path style="opacity:1" fill="#131313" d="M 193.5,437.5 C 192.508,437.672 191.842,437.338 191.5,436.5C 192.043,436.44 192.376,436.107 192.5,435.5C 190.833,435.167 189.167,434.833 187.5,434.5C 185.36,434.556 183.694,435.223 182.5,436.5C 182.158,437.338 181.492,437.672 180.5,437.5C 180.201,435.396 180.534,433.396 181.5,431.5C 183.285,432.663 185.285,433.33 187.5,433.5C 189.641,433.387 191.475,432.72 193,431.5C 193.495,433.473 193.662,435.473 193.5,437.5 Z"/></g>
<g><path style="opacity:1" fill="#1e1e1e" d="M 211.5,432.5 C 213.32,435.466 215.987,437.633 219.5,439C 216.82,439.335 214.487,438.501 212.5,436.5C 210.25,438.798 207.584,439.631 204.5,439C 208.171,438.181 210.505,436.015 211.5,432.5 Z"/></g>
<g><path style="opacity:1" fill="#000000" d="M 250.5,432.5 C 251.451,433.919 251.784,435.585 251.5,437.5C 255.5,437.5 259.5,437.5 263.5,437.5C 259.366,438.485 255.032,438.818 250.5,438.5C 250.5,436.5 250.5,434.5 250.5,432.5 Z"/></g>
<g><path style="opacity:1" fill="#121212" d="M 274.5,437.5 C 278.5,437.5 282.5,437.5 286.5,437.5C 286.737,436.209 286.404,435.209 285.5,434.5C 281.774,434.823 278.107,434.489 274.5,433.5C 279.12,432.507 283.786,432.173 288.5,432.5C 288.5,434.5 288.5,436.5 288.5,438.5C 284.833,438.5 281.167,438.5 277.5,438.5C 277.5,439.5 277.5,440.5 277.5,441.5C 281.555,441.176 285.555,441.509 289.5,442.5C 287.257,443.474 284.924,443.808 282.5,443.5C 282.5,444.5 282.5,445.5 282.5,446.5C 285.247,446.187 287.914,446.52 290.5,447.5C 284.5,448.833 278.5,448.833 272.5,447.5C 275.086,446.52 277.753,446.187 280.5,446.5C 280.5,445.5 280.5,444.5 280.5,443.5C 278.5,443.5 276.5,443.5 274.5,443.5C 274.5,441.5 274.5,439.5 274.5,437.5 Z"/></g>
<g><path style="opacity:1" fill="#797979" d="M 332.5,433.5 C 328.154,433.334 323.821,433.501 319.5,434C 323.356,434.177 327.023,434.677 330.5,435.5C 326.5,435.5 322.5,435.5 318.5,435.5C 318.5,434.5 318.5,433.5 318.5,432.5C 323.363,432.181 328.03,432.514 332.5,433.5 Z"/></g>
<g><path style="opacity:1" fill="#050505" d="M 416.5,432.5 C 420.846,432.334 425.179,432.501 429.5,433C 425.848,433.499 422.182,433.665 418.5,433.5C 418.5,434.5 418.5,435.5 418.5,436.5C 422.182,436.335 425.848,436.501 429.5,437C 425.179,437.499 420.846,437.666 416.5,437.5C 416.5,435.833 416.5,434.167 416.5,432.5 Z"/></g>
<g><path style="opacity:1" fill="#4f4f4f" d="M 471.5,432.5 C 470.833,434.5 470.167,436.5 469.5,438.5C 469.192,436.076 469.526,433.743 470.5,431.5C 471.107,431.624 471.44,431.957 471.5,432.5 Z"/></g>
<g><path style="opacity:1" fill="#1a1a1a" d="M 471.5,432.5 C 471.829,438.206 471.495,443.872 470.5,449.5C 469.513,446.232 469.18,442.898 469.5,439.5C 465.5,439.167 465.5,438.833 469.5,438.5C 470.167,436.5 470.833,434.5 471.5,432.5 Z"/></g>
<g><path style="opacity:1" fill="#131313" d="M 480.5,433.5 C 484.97,432.514 489.637,432.181 494.5,432.5C 493.791,433.404 492.791,433.737 491.5,433.5C 491.5,434.833 491.5,436.167 491.5,437.5C 492.791,437.263 493.791,437.596 494.5,438.5C 489.637,438.819 484.97,438.486 480.5,437.5C 481.586,437.38 482.253,436.713 482.5,435.5C 482.253,434.287 481.586,433.62 480.5,433.5 Z"/></g>
<g><path style="opacity:1" fill="#020202" d="M 500.5,432.5 C 504.702,432.183 508.702,432.517 512.5,433.5C 508.833,433.5 505.167,433.5 501.5,433.5C 501.5,434.5 501.5,435.5 501.5,436.5C 505.514,436.334 509.514,436.501 513.5,437C 509.179,437.499 504.846,437.666 500.5,437.5C 500.5,435.833 500.5,434.167 500.5,432.5 Z"/></g>
<g><path style="opacity:1" fill="#000000" d="M 57.5,433.5 C 60.5184,433.335 63.5184,433.502 66.5,434C 63.854,434.497 61.1873,434.664 58.5,434.5C 58.5,437.833 58.5,441.167 58.5,444.5C 61.5184,444.335 64.5184,444.502 67.5,445C 64.1832,445.498 60.8499,445.665 57.5,445.5C 57.5,441.5 57.5,437.5 57.5,433.5 Z"/></g>
<g><path style="opacity:1" fill="#1e1e1e" d="M 99.5,433.5 C 101.34,435.659 102.507,438.325 103,441.5C 104.167,442.667 105.333,443.833 106.5,445C 103.883,444.74 102.05,443.24 101,440.5C 99.7993,442.909 98.1326,444.909 96,446.5C 96.3983,444.369 97.3983,442.369 99,440.5C 99.4966,438.19 99.6633,435.857 99.5,433.5 Z"/></g>
<g><path style="opacity:1" fill="#060606" d="M 140.5,433.5 C 143.167,433.5 145.833,433.5 148.5,433.5C 148.843,436.653 148.51,438.987 147.5,440.5C 147.5,438.5 147.5,436.5 147.5,434.5C 145.833,434.5 144.167,434.5 142.5,434.5C 141.833,436.833 141.167,439.167 140.5,441.5C 140.5,438.833 140.5,436.167 140.5,433.5 Z"/></g>
<g><path style="opacity:1" fill="#111111" d="M 332.5,433.5 C 332.823,437.226 332.489,440.893 331.5,444.5C 330.571,443.311 330.238,441.978 330.5,440.5C 314.5,439.833 314.5,439.167 330.5,438.5C 330.5,437.5 330.5,436.5 330.5,435.5C 327.023,434.677 323.356,434.177 319.5,434C 323.821,433.501 328.154,433.334 332.5,433.5 Z"/></g>
<g><path style="opacity:1" fill="#111111" d="M 340.5,440.5 C 339.566,441.568 339.232,442.901 339.5,444.5C 342.518,444.335 345.518,444.502 348.5,445C 347.263,445.232 346.263,445.732 345.5,446.5C 342.833,446.5 340.167,446.5 337.5,446.5C 337.5,443.833 337.5,441.167 337.5,438.5C 339.833,438.5 342.167,438.5 344.5,438.5C 344.5,437.167 344.5,435.833 344.5,434.5C 342.143,434.663 339.81,434.497 337.5,434C 340.482,433.502 343.482,433.335 346.5,433.5C 346.5,435.833 346.5,438.167 346.5,440.5C 344.5,440.5 342.5,440.5 340.5,440.5 Z"/></g>
<g><path style="opacity:1" fill="#212121" d="M 379.5,432.5 C 387.157,434.899 388.491,439.399 383.5,446C 376.917,446.401 374.417,443.235 376,436.5C 377.032,434.973 378.199,433.64 379.5,432.5 Z"/></g>
<g><path style="opacity:1" fill="#151515" d="M 398.5,440.5 C 397.566,441.568 397.232,442.901 397.5,444.5C 400.698,443.964 403.365,444.631 405.5,446.5C 402.167,446.5 398.833,446.5 395.5,446.5C 395.5,441.833 395.5,437.167 395.5,432.5C 398.572,432.183 401.572,432.516 404.5,433.5C 402.257,434.474 399.924,434.808 397.5,434.5C 397.5,435.833 397.5,437.167 397.5,438.5C 399.604,438.201 401.604,438.534 403.5,439.5C 401.955,440.452 400.288,440.785 398.5,440.5 Z"/></g>
<g><path style="opacity:1" fill="#171717" d="M 459.5,434.5 C 463.967,433.138 465.633,433.138 464.5,434.5C 463.87,438.901 465.203,442.568 468.5,445.5C 468.167,445.833 467.833,446.167 467.5,446.5C 465.854,445.221 464.687,443.555 464,441.5C 462.954,443.09 461.787,444.59 460.5,446C 459.833,446.667 459.167,446.667 458.5,446C 461.966,442.96 463.3,439.126 462.5,434.5C 461.5,434.5 460.5,434.5 459.5,434.5 Z"/></g>
<g><path style="opacity:1" fill="#e8e8e8" d="M 484.5,433.5 C 486.167,433.5 487.833,433.5 489.5,433.5C 489.5,434.833 489.5,436.167 489.5,437.5C 487.833,437.5 486.167,437.5 484.5,437.5C 484.5,436.167 484.5,434.833 484.5,433.5 Z"/></g>
<g><path style="opacity:1" fill="#e6e6e6" d="M 521.5,433.5 C 524.5,433.5 527.5,433.5 530.5,433.5C 530.5,434.5 530.5,435.5 530.5,436.5C 527.5,436.5 524.5,436.5 521.5,436.5C 521.5,435.5 521.5,434.5 521.5,433.5 Z"/></g>
<g><path style="opacity:1" fill="#d2d2d2" d="M 191.5,436.5 C 188.5,436.5 185.5,436.5 182.5,436.5C 183.694,435.223 185.36,434.556 187.5,434.5C 189.167,434.833 190.833,435.167 192.5,435.5C 192.376,436.107 192.043,436.44 191.5,436.5 Z"/></g>
<g><path style="opacity:1" fill="#d9d9d9" d="M 358.5,435.5 C 359.822,435.33 360.989,435.663 362,436.5C 362.895,439.466 362.395,442.133 360.5,444.5C 359.914,444.291 359.414,443.957 359,443.5C 358.503,440.854 358.336,438.187 358.5,435.5 Z"/></g>
<g><path style="opacity:1" fill="#dcdcdc" d="M 379.5,434.5 C 381.124,434.36 382.29,435.027 383,436.5C 383.667,438.833 383.667,441.167 383,443.5C 381.667,444.833 380.333,444.833 379,443.5C 378.366,440.445 378.532,437.445 379.5,434.5 Z"/></g>
<g><path style="opacity:1" fill="#202020" d="M 437.5,432.5 C 442.835,432.005 445.335,434.338 445,439.5C 441.667,442.167 438.333,442.167 435,439.5C 434.333,438.167 434.333,436.833 435,435.5C 436.045,434.627 436.878,433.627 437.5,432.5 Z"/></g>
<g><path style="opacity:1" fill="#d4d4d4" d="M 437.5,434.5 C 442.386,433.405 444.052,435.072 442.5,439.5C 437.134,441.468 435.467,439.801 437.5,434.5 Z"/></g>
<g><path style="opacity:1" fill="#5a5a5a" d="M 182.5,436.5 C 185.5,436.5 188.5,436.5 191.5,436.5C 191.842,437.338 192.508,437.672 193.5,437.5C 192.048,438.302 190.382,438.802 188.5,439C 191.226,439.182 193.893,439.682 196.5,440.5C 196.376,441.107 196.043,441.44 195.5,441.5C 193.052,440.527 190.385,440.194 187.5,440.5C 187.754,438.599 187.42,437.933 186.5,438.5C 184.265,438.795 182.265,438.461 180.5,437.5C 181.492,437.672 182.158,437.338 182.5,436.5 Z"/></g>
<g><path style="opacity:1" fill="#9c9c9c" d="M 250.5,432.5 C 250.56,431.957 250.893,431.624 251.5,431.5C 252.452,433.045 252.785,434.712 252.5,436.5C 256.371,436.185 260.038,436.518 263.5,437.5C 259.5,437.5 255.5,437.5 251.5,437.5C 251.784,435.585 251.451,433.919 250.5,432.5 Z"/></g>
<g><path style="opacity:1" fill="#7a7a7a" d="M 285.5,434.5 C 286.404,435.209 286.737,436.209 286.5,437.5C 282.5,437.5 278.5,437.5 274.5,437.5C 278.442,437.125 282.109,436.125 285.5,434.5 Z"/></g>
<g><path style="opacity:1" fill="#000000" d="M 195.5,441.5 C 189.824,441.666 184.157,441.499 178.5,441C 181.675,441.053 184.342,440.22 186.5,438.5C 187.42,437.933 187.754,438.599 187.5,440.5C 190.385,440.194 193.052,440.527 195.5,441.5 Z"/></g>
<g><path style="opacity:1" fill="#727272" d="M 173.5,431.5 C 174.468,433.607 174.802,435.941 174.5,438.5C 175.675,438.281 176.675,438.614 177.5,439.5C 177.376,440.107 177.043,440.44 176.5,440.5C 175.791,439.596 174.791,439.263 173.5,439.5C 173.5,436.833 173.5,434.167 173.5,431.5 Z"/></g>
<g><path style="opacity:1" fill="#797979" d="M 480.5,437.5 C 484.97,438.486 489.637,438.819 494.5,438.5C 489.652,439.814 484.652,439.814 479.5,438.5C 479.624,437.893 479.957,437.56 480.5,437.5 Z"/></g>
<g><path style="opacity:1" fill="#2a2a2a" d="M 242.5,431.5 C 243.777,432.694 244.444,434.36 244.5,436.5C 244.167,438.167 243.833,439.833 243.5,441.5C 242.571,440.311 242.238,438.978 242.5,437.5C 239.522,438.661 236.522,439.995 233.5,441.5C 228.416,439.974 227.416,437.141 230.5,433C 231.5,432.833 232.5,432.667 233.5,432.5C 236.326,433.985 239.326,434.985 242.5,435.5C 242.5,434.167 242.5,432.833 242.5,431.5 Z"/></g>
<g><path style="opacity:1" fill="#d3d3d3" d="M 232.5,433.5 C 236.485,433.629 237.818,435.463 236.5,439C 230.527,440.16 229.193,438.326 232.5,433.5 Z"/></g>
<g><path style="opacity:1" fill="#262626" d="M 297.5,440.5 C 296.833,440.833 296.167,441.167 295.5,441.5C 294.325,441.719 293.325,441.386 292.5,440.5C 298.946,438.754 298.946,437.42 292.5,436.5C 294.833,435.833 297.167,435.167 299.5,434.5C 297.5,433.833 295.5,433.167 293.5,432.5C 296.428,431.516 299.428,431.183 302.5,431.5C 302.51,435.503 300.843,438.503 297.5,440.5 Z"/></g>
<g><path style="opacity:1" fill="#3a3b3a" d="M 517.5,439.5 C 523.206,439.171 528.872,439.505 534.5,440.5C 531.667,440.833 528.833,441.167 526,441.5C 522.748,441.481 519.915,440.814 517.5,439.5 Z"/></g>
<g><path style="opacity:1" fill="#212121" d="M 86.5,431.5 C 87.8164,434.087 88.483,437.087 88.5,440.5C 87.8255,452.465 87.1588,452.465 86.5,440.5C 85.5,440.5 84.5,440.5 83.5,440.5C 83.794,445.22 81.794,446.886 77.5,445.5C 75.1232,441.916 74.9565,438.25 77,434.5C 81.0812,432.732 83.2479,434.065 83.5,438.5C 84.5,438.5 85.5,438.5 86.5,438.5C 86.5,436.167 86.5,433.833 86.5,431.5 Z"/></g>
<g><path style="opacity:1" fill="#dddddd" d="M 78.5,434.5 C 80.0174,434.511 81.1841,435.177 82,436.5C 82.6667,438.833 82.6667,441.167 82,443.5C 80.6667,444.833 79.3333,444.833 78,443.5C 77.2642,440.408 77.4309,437.408 78.5,434.5 Z"/></g>
<g><path style="opacity:1" fill="#0e0e0e" d="M 116.5,433.5 C 121.032,433.182 125.366,433.515 129.5,434.5C 125.833,434.5 122.167,434.5 118.5,434.5C 118.5,436.5 118.5,438.5 118.5,440.5C 122.167,440.5 125.833,440.5 129.5,440.5C 127.735,441.461 125.735,441.795 123.5,441.5C 123.5,443.5 123.5,445.5 123.5,447.5C 126.385,447.194 129.052,447.527 131.5,448.5C 125.642,448.822 119.975,448.489 114.5,447.5C 117.167,447.5 119.833,447.5 122.5,447.5C 122.5,445.5 122.5,443.5 122.5,441.5C 120.5,441.5 118.5,441.5 116.5,441.5C 116.5,438.833 116.5,436.167 116.5,433.5 Z"/></g>
<g><path style="opacity:1" fill="#404040" d="M 410.5,431.5 C 411.491,437.979 411.824,444.646 411.5,451.5C 410.5,451.5 409.5,451.5 408.5,451.5C 408.5,447.833 408.5,444.167 408.5,440.5C 409.321,443.641 409.821,446.975 410,450.5C 410.5,444.175 410.666,437.842 410.5,431.5 Z"/></g>
<g><path style="opacity:1" fill="#505050" d="M 414.5,439.5 C 420.537,439.171 426.537,439.504 432.5,440.5C 429.5,440.833 426.5,441.167 423.5,441.5C 420.087,441.483 417.087,440.816 414.5,439.5 Z"/></g>
<g><path style="opacity:1" fill="#3d3d3d" d="M 488.5,444.5 C 487.732,443.737 487.232,442.737 487,441.5C 486.601,441.728 486.435,442.062 486.5,442.5C 475.958,441.779 476.124,441.113 487,440.5C 489.833,440.833 492.667,441.167 495.5,441.5C 492.705,441.938 490.372,442.938 488.5,444.5 Z"/></g>
<g><path style="opacity:1" fill="#4e4e4e" d="M 497.5,439.5 C 503.537,439.171 509.537,439.504 515.5,440.5C 512.5,440.833 509.5,441.167 506.5,441.5C 503.087,441.483 500.087,440.816 497.5,439.5 Z"/></g>
<g><path style="opacity:1" fill="#5e5e5e" d="M 140.5,433.5 C 143.287,432.523 146.287,432.19 149.5,432.5C 149.5,435.833 149.5,439.167 149.5,442.5C 146.287,442.81 143.287,442.477 140.5,441.5C 141.167,439.167 141.833,436.833 142.5,434.5C 142.5,436.5 142.5,438.5 142.5,440.5C 144.167,440.5 145.833,440.5 147.5,440.5C 148.51,438.987 148.843,436.653 148.5,433.5C 145.833,433.5 143.167,433.5 140.5,433.5 Z"/></g>
<g><path style="opacity:1" fill="#eaebea" d="M 142.5,434.5 C 144.167,434.5 145.833,434.5 147.5,434.5C 147.5,436.5 147.5,438.5 147.5,440.5C 145.833,440.5 144.167,440.5 142.5,440.5C 142.5,438.5 142.5,436.5 142.5,434.5 Z"/></g>
<g><path style="opacity:1" fill="#797979" d="M 297.5,440.5 C 300.287,441.477 303.287,441.81 306.5,441.5C 307.167,441.5 307.833,441.5 308.5,441.5C 308.5,441.833 308.5,442.167 308.5,442.5C 304.167,442.5 299.833,442.5 295.5,442.5C 295.5,442.167 295.5,441.833 295.5,441.5C 296.167,441.167 296.833,440.833 297.5,440.5 Z"/></g>
<g><path style="opacity:1" fill="#000000" d="M 488.5,444.5 C 490.167,444.5 491.833,444.5 493.5,444.5C 493.5,446.5 493.5,448.5 493.5,450.5C 489.167,450.5 484.833,450.5 480.5,450.5C 480.5,448.5 480.5,446.5 480.5,444.5C 483.082,444.975 485.082,444.308 486.5,442.5C 486.435,442.062 486.601,441.728 487,441.5C 487.232,442.737 487.732,443.737 488.5,444.5 Z"/></g>
<g><path style="opacity:1" fill="#272727" d="M 51.5,431.5 C 52.8174,437.678 52.8174,444.012 51.5,450.5C 50.513,447.232 50.1796,443.898 50.5,440.5C 49.1667,440.5 47.8333,440.5 46.5,440.5C 45.5785,446.293 42.7452,447.626 38,444.5C 35.1265,439.042 36.4598,435.042 42,432.5C 44.8585,433.52 46.3585,435.52 46.5,438.5C 48.1667,438.5 49.8333,438.5 51.5,438.5C 51.5,436.167 51.5,433.833 51.5,431.5 Z"/></g>
<g><path style="opacity:1" fill="#e1e1e1" d="M 40.5,434.5 C 43.8925,434.375 45.2259,436.042 44.5,439.5C 45.0911,443.92 43.4244,445.253 39.5,443.5C 37.992,440.231 38.3254,437.231 40.5,434.5 Z"/></g>
<g><path style="opacity:1" fill="#040404" d="M 221.5,443.5 C 218.5,443.5 215.5,443.5 212.5,443.5C 212.5,445.833 212.5,448.167 212.5,450.5C 211.532,448.393 211.198,446.059 211.5,443.5C 205.703,442.291 209.037,442.291 221.5,443.5 Z"/></g>
<g><path style="opacity:1" fill="#848484" d="M 247.5,440.5 C 253.509,440.334 259.509,440.501 265.5,441C 265.957,441.414 266.291,441.914 266.5,442.5C 260.202,443.496 253.868,443.83 247.5,443.5C 247.5,442.5 247.5,441.5 247.5,440.5 Z"/></g>
<g><path style="opacity:1" fill="#202020" d="M 295.5,442.5 C 299.833,442.5 304.167,442.5 308.5,442.5C 308.5,444.167 308.5,445.833 308.5,447.5C 305.15,447.335 301.817,447.502 298.5,448C 302.211,448.175 305.878,448.675 309.5,449.5C 304.88,450.493 300.214,450.827 295.5,450.5C 295.5,448.833 295.5,447.167 295.5,445.5C 299.182,445.665 302.848,445.499 306.5,445C 302.367,445.094 298.701,444.26 295.5,442.5 Z"/></g>
<g><path style="opacity:1" fill="#474747" d="M 418.5,447.5 C 418.158,446.662 417.492,446.328 416.5,446.5C 419.977,445.677 423.644,445.177 427.5,445C 423.789,444.825 420.122,444.325 416.5,443.5C 420.783,442.508 425.116,442.174 429.5,442.5C 429.5,444.167 429.5,445.833 429.5,447.5C 425.833,447.5 422.167,447.5 418.5,447.5 Z"/></g>
<g><path style="opacity:1" fill="#525252" d="M 512.5,447.5 C 512.84,445.452 512.507,444.452 511.5,444.5C 507.445,444.824 503.445,444.491 499.5,443.5C 504.12,442.507 508.786,442.173 513.5,442.5C 513.784,444.415 513.451,446.081 512.5,447.5 Z"/></g>
<g><path style="opacity:1" fill="#4c4c4c" d="M 182.5,447.5 C 182.158,446.662 181.492,446.328 180.5,446.5C 183.977,445.677 187.644,445.177 191.5,445C 187.789,444.825 184.122,444.325 180.5,443.5C 184.783,442.508 189.116,442.174 193.5,442.5C 193.5,444.167 193.5,445.833 193.5,447.5C 189.833,447.5 186.167,447.5 182.5,447.5 Z"/></g>
<g><path style="opacity:1" fill="#939393" d="M 221.5,443.5 C 219.052,444.473 216.385,444.806 213.5,444.5C 213.795,446.735 213.461,448.735 212.5,450.5C 212.5,448.167 212.5,445.833 212.5,443.5C 215.5,443.5 218.5,443.5 221.5,443.5 Z"/></g>
<g><path style="opacity:1" fill="#1d1d1d" d="M 230.5,442.5 C 232.048,442.821 232.715,443.821 232.5,445.5C 233.5,445.5 234.5,445.5 235.5,445.5C 235.281,444.325 235.614,443.325 236.5,442.5C 237.48,445.086 237.813,447.753 237.5,450.5C 235.167,450.5 232.833,450.5 230.5,450.5C 230.5,447.833 230.5,445.167 230.5,442.5 Z"/></g>
<g><path style="opacity:1" fill="#222222" d="M 241.5,442.5 C 242.891,445.014 244.557,447.514 246.5,450C 244.613,450.163 243.113,449.329 242,447.5C 241.333,448.833 240.333,449.833 239,450.5C 240.404,448.168 241.238,445.501 241.5,442.5 Z"/></g>
<g><path style="opacity:1" fill="#a2a2a2" d="M 398.5,440.5 C 398.5,441.5 398.5,442.5 398.5,443.5C 401.167,443.5 403.833,443.5 406.5,443.5C 406.737,444.791 406.404,445.791 405.5,446.5C 403.365,444.631 400.698,443.964 397.5,444.5C 397.232,442.901 397.566,441.568 398.5,440.5 Z"/></g>
<g><path style="opacity:1" fill="#121212" d="M 142.5,444.5 C 144.256,445.552 144.923,447.219 144.5,449.5C 148.182,449.335 151.848,449.501 155.5,450C 151.179,450.499 146.846,450.666 142.5,450.5C 142.5,448.5 142.5,446.5 142.5,444.5 Z"/></g>
<g><path style="opacity:1" fill="#1b1b1b" d="M 159.5,433.5 C 161.414,436.684 162.08,440.351 161.5,444.5C 164.588,443.932 167.588,443.932 170.5,444.5C 166.893,445.489 163.226,445.823 159.5,445.5C 159.5,441.5 159.5,437.5 159.5,433.5 Z"/></g>
<g><path style="opacity:1" fill="#767676" d="M 441.5,444.5 C 439.167,445.167 436.833,445.833 434.5,446.5C 433.957,446.44 433.624,446.107 433.5,445.5C 436.086,444.52 438.753,444.187 441.5,444.5 Z"/></g>
<g><path style="opacity:1" fill="#171717" d="M 441.5,444.5 C 443.199,444.34 444.866,444.506 446.5,445C 442.637,446.354 438.637,446.854 434.5,446.5C 436.833,445.833 439.167,445.167 441.5,444.5 Z"/></g>
<g><path style="opacity:1" fill="#9c9c9c" d="M 481.5,445.5 C 485.167,445.5 488.833,445.5 492.5,445.5C 492.5,446.833 492.5,448.167 492.5,449.5C 488.833,449.5 485.167,449.5 481.5,449.5C 481.5,448.167 481.5,446.833 481.5,445.5 Z"/></g>
<g><path style="opacity:1" fill="#6e6e6e" d="M 511.5,445.5 C 508.038,446.482 504.371,446.815 500.5,446.5C 500.5,447.833 500.5,449.167 500.5,450.5C 499.549,449.081 499.216,447.415 499.5,445.5C 503.5,445.5 507.5,445.5 511.5,445.5 Z"/></g>
<g><path style="opacity:1" fill="#868686" d="M 116.5,441.5 C 118.5,441.5 120.5,441.5 122.5,441.5C 122.5,443.5 122.5,445.5 122.5,447.5C 119.833,447.5 117.167,447.5 114.5,447.5C 116.607,446.532 118.941,446.198 121.5,446.5C 121.5,445.167 121.5,443.833 121.5,442.5C 119.585,442.784 117.919,442.451 116.5,441.5 Z"/></g>
<g><path style="opacity:1" fill="#6e6e6e" d="M 129.5,440.5 C 130.043,440.56 130.376,440.893 130.5,441.5C 128.604,442.466 126.604,442.799 124.5,442.5C 124.5,443.833 124.5,445.167 124.5,446.5C 127.247,446.187 129.914,446.52 132.5,447.5C 132.376,448.107 132.043,448.44 131.5,448.5C 129.052,447.527 126.385,447.194 123.5,447.5C 123.5,445.5 123.5,443.5 123.5,441.5C 125.735,441.795 127.735,441.461 129.5,440.5 Z"/></g>
<g><path style="opacity:1" fill="#090909" d="M 180.5,446.5 C 181.492,446.328 182.158,446.662 182.5,447.5C 186.044,449.268 190.044,450.102 194.5,450C 189.845,450.499 185.179,450.666 180.5,450.5C 180.5,449.167 180.5,447.833 180.5,446.5 Z"/></g>
<g><path style="opacity:1" fill="#060606" d="M 316.5,446.5 C 322.537,446.171 328.537,446.504 334.5,447.5C 331.5,447.833 328.5,448.167 325.5,448.5C 322.087,448.483 319.087,447.816 316.5,446.5 Z"/></g>
<g><path style="opacity:1" fill="#0f0f0f" d="M 416.5,446.5 C 417.492,446.328 418.158,446.662 418.5,447.5C 422.044,449.268 426.044,450.102 430.5,450C 425.845,450.499 421.179,450.666 416.5,450.5C 416.5,449.167 416.5,447.833 416.5,446.5 Z"/></g>
<g><path style="opacity:1" fill="#eaebea" d="M 482.5,446.5 C 485.572,446.183 488.572,446.516 491.5,447.5C 490,447.833 488.5,448.167 487,448.5C 485.014,448.431 483.514,447.765 482.5,446.5 Z"/></g>
<g><path style="opacity:1" fill="#222222" d="M 512.5,447.5 C 498.174,448.15 498.507,448.983 513.5,450C 509.179,450.499 504.846,450.666 500.5,450.5C 500.5,449.167 500.5,447.833 500.5,446.5C 504.371,446.815 508.038,446.482 511.5,445.5C 511.5,445.167 511.5,444.833 511.5,444.5C 512.507,444.452 512.84,445.452 512.5,447.5 Z"/></g>
<g><path style="opacity:1" fill="#080808" d="M 519.5,446.5 C 520.492,446.328 521.158,446.662 521.5,447.5C 520.957,447.56 520.624,447.893 520.5,448.5C 524.783,449.492 529.116,449.826 533.5,449.5C 529.03,450.486 524.363,450.819 519.5,450.5C 519.5,449.167 519.5,447.833 519.5,446.5 Z"/></g>
<g><path style="opacity:1" fill="#404040" d="M 521.5,447.5 C 521.158,446.662 520.492,446.328 519.5,446.5C 522.977,445.677 526.644,445.177 530.5,445C 526.789,444.825 523.122,444.325 519.5,443.5C 523.783,442.508 528.116,442.174 532.5,442.5C 532.5,444.167 532.5,445.833 532.5,447.5C 528.833,447.5 525.167,447.5 521.5,447.5 Z"/></g>
<g><path style="opacity:1" fill="#b0b0b0" d="M 232.5,446.5 C 233.833,446.5 235.167,446.5 236.5,446.5C 236.5,447.5 236.5,448.5 236.5,449.5C 235.167,449.5 233.833,449.5 232.5,449.5C 232.5,448.5 232.5,447.5 232.5,446.5 Z"/></g>
<g><path style="opacity:1" fill="#a7a7a7" d="M 521.5,447.5 C 525.5,448.167 529.5,448.833 533.5,449.5C 529.116,449.826 524.783,449.492 520.5,448.5C 520.624,447.893 520.957,447.56 521.5,447.5 Z"/></g>
<g><path style="opacity:1" fill="#4a4a4a" d="M 250.5,444.5 C 252.176,445.183 252.843,446.517 252.5,448.5C 256.226,448.177 259.893,448.511 263.5,449.5C 259.217,450.492 254.884,450.826 250.5,450.5C 250.5,448.5 250.5,446.5 250.5,444.5 Z"/></g>
<g><path style="opacity:1" fill="#434343" d="M 50.5,457.5 C 51.8197,460.428 52.4864,463.761 52.5,467.5C 52.1667,470.833 51.8333,474.167 51.5,477.5C 50.5033,470.866 50.17,464.2 50.5,457.5 Z"/></g>
<g><path style="opacity:1" fill="#0b0b0b" d="M 116.5,461.5 C 117.833,461.5 119.167,461.5 120.5,461.5C 120.238,460.022 120.571,458.689 121.5,457.5C 122.833,460.833 122.833,464.167 121.5,467.5C 120.571,466.311 120.238,464.978 120.5,463.5C 118.517,463.843 117.183,463.176 116.5,461.5 Z"/></g>
<g><path style="opacity:1" fill="#232323" d="M 179.5,457.5 C 180.818,460.258 181.485,463.424 181.5,467C 181.167,470.167 180.833,473.333 180.5,476.5C 179.504,470.202 179.17,463.868 179.5,457.5 Z"/></g>
<g><path style="opacity:1" fill="#000000" d="M 242.5,457.5 C 243.473,459.948 243.806,462.615 243.5,465.5C 247.5,465.833 247.5,466.167 243.5,466.5C 243.665,469.85 243.498,473.183 243,476.5C 242.5,470.175 242.334,463.842 242.5,457.5 Z"/></g>
<g><path style="opacity:1" fill="#313131" d="M 282.5,457.5 C 283.82,460.428 284.486,463.761 284.5,467.5C 284.167,470.833 283.833,474.167 283.5,477.5C 282.503,470.866 282.17,464.2 282.5,457.5 Z"/></g>
<g><path style="opacity:1" fill="#9a9a9a" d="M 147.5,459.5 C 151.97,458.514 156.637,458.181 161.5,458.5C 161.813,462.042 161.479,465.375 160.5,468.5C 160.5,465.5 160.5,462.5 160.5,459.5C 156.167,459.5 151.833,459.5 147.5,459.5 Z"/></g>
<g><path style="opacity:1" fill="#535353" d="M 278.5,458.5 C 278.56,457.957 278.893,457.624 279.5,457.5C 280.833,463.833 280.833,470.167 279.5,476.5C 278.893,476.376 278.56,476.043 278.5,475.5C 279.833,469.833 279.833,464.167 278.5,458.5 Z"/></g>
<g><path style="opacity:1" fill="#131313" d="M 41.5,467.5 C 41.5,465.167 41.5,462.833 41.5,460.5C 43.2605,459.17 43.9272,459.17 43.5,460.5C 43.1357,465.247 44.8023,469.081 48.5,472C 47.8333,472.667 47.1667,472.667 46.5,472C 44.9168,470.242 43.2501,468.742 41.5,467.5 Z"/></g>
<g><path style="opacity:1" fill="#272727" d="M 97.5,469.5 C 96.5655,470.568 96.2322,471.901 96.5,473.5C 99.1667,473.5 101.833,473.5 104.5,473.5C 98.9262,475.453 92.9262,476.12 86.5,475.5C 86.5,474.5 86.5,473.5 86.5,472.5C 89.1667,472.5 91.8333,472.5 94.5,472.5C 94.5,471.5 94.5,470.5 94.5,469.5C 92.5,469.5 90.5,469.5 88.5,469.5C 88.5,467.5 88.5,465.5 88.5,463.5C 92.5,463.5 96.5,463.5 100.5,463.5C 100.5,462.5 100.5,461.5 100.5,460.5C 96.4454,460.824 92.4454,460.491 88.5,459.5C 93.1196,458.507 97.7863,458.173 102.5,458.5C 102.5,460.833 102.5,463.167 102.5,465.5C 98.774,465.177 95.1073,465.511 91.5,466.5C 95.5,467.167 99.5,467.833 103.5,468.5C 101.604,469.466 99.604,469.799 97.5,469.5 Z"/></g>
<g><path style="opacity:1" fill="#0e0e0e" d="M 126.5,459.5 C 129.5,459.5 132.5,459.5 135.5,459.5C 135.5,463.833 135.5,468.167 135.5,472.5C 132.5,472.5 129.5,472.5 126.5,472.5C 126.5,468.167 126.5,463.833 126.5,459.5 Z"/></g>
<g><path style="opacity:1" fill="#1f1f1f" d="M 147.5,459.5 C 151.833,459.5 156.167,459.5 160.5,459.5C 160.5,462.5 160.5,465.5 160.5,468.5C 160.715,470.179 160.048,471.179 158.5,471.5C 158.5,469.833 158.5,468.167 158.5,466.5C 154.5,466.5 150.5,466.5 146.5,466.5C 150.029,464.577 154.029,463.911 158.5,464.5C 158.5,463.5 158.5,462.5 158.5,461.5C 154.351,462.08 150.684,461.414 147.5,459.5 Z"/></g>
<g><path style="opacity:1" fill="#000000" d="M 263.5,468.5 C 261.5,468.5 259.5,468.5 257.5,468.5C 257.5,470.167 257.5,471.833 257.5,473.5C 260.167,473.5 262.833,473.5 265.5,473.5C 259.833,474.833 254.167,474.833 248.5,473.5C 251.167,473.5 253.833,473.5 256.5,473.5C 256.5,471.833 256.5,470.167 256.5,468.5C 254.5,468.5 252.5,468.5 250.5,468.5C 249.89,463.683 250.223,461.683 251.5,462.5C 255.167,462.5 258.833,462.5 262.5,462.5C 263.777,461.683 264.11,463.683 263.5,468.5 Z"/></g>
<g><path style="opacity:1" fill="#595959" d="M 113.5,461.5 C 111.5,462.167 109.5,462.833 107.5,463.5C 106.957,463.44 106.624,463.107 106.5,462.5C 108.743,461.526 111.076,461.192 113.5,461.5 Z"/></g>
<g><path style="opacity:1" fill="#d9d9d9" d="M 128.5,461.5 C 130.167,461.5 131.833,461.5 133.5,461.5C 133.5,464.5 133.5,467.5 133.5,470.5C 131.833,470.5 130.167,470.5 128.5,470.5C 128.5,467.5 128.5,464.5 128.5,461.5 Z"/></g>
<g><path style="opacity:1" fill="#141414" d="M 116.5,461.5 C 115.069,463.437 113.402,465.27 111.5,467C 109.833,467.667 108.167,467.667 106.5,467C 108.5,466 110.5,465 112.5,464C 110.866,463.506 109.199,463.34 107.5,463.5C 109.5,462.833 111.5,462.167 113.5,461.5C 111.631,460.835 109.631,460.169 107.5,459.5C 110.428,458.516 113.428,458.183 116.5,458.5C 116.5,459.5 116.5,460.5 116.5,461.5 Z"/></g>
<g><path style="opacity:1" fill="#1c1c1c" d="M 222.5,457.5 C 224.308,458.918 224.975,460.918 224.5,463.5C 228.5,463.833 228.5,464.167 224.5,464.5C 224.813,467.247 224.48,469.914 223.5,472.5C 222.506,467.544 222.173,462.544 222.5,457.5 Z"/></g>
<g><path style="opacity:1" fill="#747474" d="M 261.5,467.5 C 261.5,466.5 261.5,465.5 261.5,464.5C 258.5,464.5 255.5,464.5 252.5,464.5C 252.5,465.5 252.5,466.5 252.5,467.5C 251.566,466.432 251.232,465.099 251.5,463.5C 255.167,463.5 258.833,463.5 262.5,463.5C 262.768,465.099 262.434,466.432 261.5,467.5 Z"/></g>
<g><path style="opacity:1" fill="#eaebea" d="M 261.5,467.5 C 258.5,467.5 255.5,467.5 252.5,467.5C 252.5,466.5 252.5,465.5 252.5,464.5C 255.5,464.5 258.5,464.5 261.5,464.5C 261.5,465.5 261.5,466.5 261.5,467.5 Z"/></g>
<g><path style="opacity:1" fill="#343434" d="M 58.5,458.5 C 62.8333,458.5 67.1667,458.5 71.5,458.5C 71.1103,461.466 71.777,464.132 73.5,466.5C 67.8333,467.833 62.1667,467.833 56.5,466.5C 60.7828,465.508 65.1161,465.174 69.5,465.5C 69.5,463.833 69.5,462.167 69.5,460.5C 65.351,461.08 61.6843,460.414 58.5,458.5 Z"/></g>
<g><path style="opacity:1" fill="#262626" d="M 175.5,457.5 C 176.818,460.258 177.485,463.424 177.5,467C 177.167,470.167 176.833,473.333 176.5,476.5C 175.833,473.167 175.167,469.833 174.5,466.5C 173.194,467.912 172.36,469.579 172,471.5C 167.109,473.283 164.609,471.45 164.5,466C 167.222,457.5 170.555,457.334 174.5,465.5C 175.48,462.914 175.813,460.247 175.5,457.5 Z"/></g>
<g><path style="opacity:1" fill="#dfdfdf" d="M 168.5,460.5 C 170.876,461.512 171.876,463.345 171.5,466C 169.833,473.333 168.167,473.333 166.5,466C 166.395,463.822 167.061,461.988 168.5,460.5 Z"/></g>
<g><path style="opacity:1" fill="#060606" d="M 199.5,457.5 C 199.823,464.022 199.49,470.355 198.5,476.5C 198.5,472.833 198.5,469.167 198.5,465.5C 193.167,465.167 193.167,464.833 198.5,464.5C 198.198,461.941 198.532,459.607 199.5,457.5 Z"/></g>
<g><path style="opacity:1" fill="#9c9c9c" d="M 146.5,466.5 C 150.5,466.5 154.5,466.5 158.5,466.5C 158.5,468.167 158.5,469.833 158.5,471.5C 157.566,470.432 157.232,469.099 157.5,467.5C 153.629,467.815 149.962,467.482 146.5,466.5 Z"/></g>
<g><path style="opacity:1" fill="#3b3b3b" d="M 199.5,457.5 C 200.818,464.011 200.818,470.678 199.5,477.5C 198.893,477.376 198.56,477.043 198.5,476.5C 199.49,470.355 199.823,464.022 199.5,457.5 Z"/></g>
<g><path style="opacity:1" fill="#0b0b0b" d="M 278.5,458.5 C 279.833,464.167 279.833,469.833 278.5,475.5C 278.5,472.167 278.5,468.833 278.5,465.5C 274.5,465.167 274.5,464.833 278.5,464.5C 278.5,462.5 278.5,460.5 278.5,458.5 Z"/></g>
<g><path style="opacity:1" fill="#313131" d="M 138.5,457.5 C 139.5,457.5 140.5,457.5 141.5,457.5C 141.5,459.833 141.5,462.167 141.5,464.5C 142.5,464.5 143.5,464.5 144.5,464.5C 144.5,465.5 144.5,466.5 144.5,467.5C 143.5,467.5 142.5,467.5 141.5,467.5C 141.5,470.833 141.5,474.167 141.5,477.5C 140.5,477.5 139.5,477.5 138.5,477.5C 138.5,470.833 138.5,464.167 138.5,457.5 Z"/></g>
<g><path style="opacity:1" fill="#1e1e1e" d="M 189.5,459.5 C 190.816,464.122 192.649,468.456 195,472.5C 192.867,470.909 191.201,468.909 190,466.5C 189.208,468.587 188.041,470.421 186.5,472C 185.668,472.688 185.002,472.521 184.5,471.5C 188.351,468.459 190.017,464.459 189.5,459.5 Z"/></g>
<g><path style="opacity:1" fill="#5c5c5c" d="M 210.5,459.5 C 210.157,462.653 210.49,464.987 211.5,466.5C 213.5,466.5 215.5,466.5 217.5,466.5C 218.51,464.987 218.843,462.653 218.5,459.5C 219.477,462.287 219.81,465.287 219.5,468.5C 216.167,468.5 212.833,468.5 209.5,468.5C 209.19,465.287 209.523,462.287 210.5,459.5 Z"/></g>
<g><path style="opacity:1" fill="#000000" d="M 210.5,459.5 C 213.167,459.5 215.833,459.5 218.5,459.5C 218.843,462.653 218.51,464.987 217.5,466.5C 217.5,464.5 217.5,462.5 217.5,460.5C 215.5,460.5 213.5,460.5 211.5,460.5C 211.5,462.5 211.5,464.5 211.5,466.5C 210.49,464.987 210.157,462.653 210.5,459.5 Z"/></g>
<g><path style="opacity:1" fill="#dcdcdc" d="M 217.5,466.5 C 215.5,466.5 213.5,466.5 211.5,466.5C 211.5,464.5 211.5,462.5 211.5,460.5C 213.5,460.5 215.5,460.5 217.5,460.5C 217.5,462.5 217.5,464.5 217.5,466.5 Z"/></g>
<g><path style="opacity:1" fill="#242424" d="M 271.5,459.5 C 273.082,463.771 274.582,468.104 276,472.5C 274.647,471.315 273.48,469.981 272.5,468.5C 271.618,469.76 270.618,470.926 269.5,472C 268.668,472.688 268.002,472.521 267.5,471.5C 270.925,468.238 272.258,464.238 271.5,459.5 Z"/></g>
<g><path style="opacity:1" fill="#2c2c2c" d="M 109.5,468.5 C 113.833,468.5 118.167,468.5 122.5,468.5C 122.5,470.167 122.5,471.833 122.5,473.5C 119.15,473.335 115.817,473.502 112.5,474C 116.152,474.499 119.818,474.665 123.5,474.5C 123.5,475.5 123.5,476.5 123.5,477.5C 118.833,477.5 114.167,477.5 109.5,477.5C 109.5,475.5 109.5,473.5 109.5,471.5C 113.182,471.665 116.848,471.499 120.5,471C 116.367,471.094 112.701,470.26 109.5,468.5 Z"/></g>
<g><path style="opacity:1" fill="#181818" d="M 293.5,458.5 C 296.747,458.415 299.581,459.415 302,461.5C 301.376,465.38 300.876,469.38 300.5,473.5C 297.5,474.833 294.5,474.833 291.5,473.5C 292.028,469.79 291.028,466.623 288.5,464C 289.34,461.33 291.006,459.497 293.5,458.5 Z"/></g>
<g><path style="opacity:1" fill="#dddddd" d="M 292.5,460.5 C 294.857,460.337 297.19,460.503 299.5,461C 302.326,463.522 301.993,465.522 298.5,467C 291.761,468.447 289.761,466.28 292.5,460.5 Z"/></g>
<g><path style="opacity:1" fill="#8a8a8a" d="M 250.5,468.5 C 252.5,468.5 254.5,468.5 256.5,468.5C 256.5,470.167 256.5,471.833 256.5,473.5C 253.833,473.5 251.167,473.5 248.5,473.5C 250.607,472.532 252.941,472.198 255.5,472.5C 255.5,471.5 255.5,470.5 255.5,469.5C 253.585,469.784 251.919,469.451 250.5,468.5 Z"/></g>
<g><path style="opacity:1" fill="#979797" d="M 263.5,468.5 C 262.081,469.451 260.415,469.784 258.5,469.5C 258.5,470.5 258.5,471.5 258.5,472.5C 261.059,472.198 263.393,472.532 265.5,473.5C 262.833,473.5 260.167,473.5 257.5,473.5C 257.5,471.833 257.5,470.167 257.5,468.5C 259.5,468.5 261.5,468.5 263.5,468.5 Z"/></g>
<g><path style="opacity:1" fill="#eaebea" d="M 298.5,469.5 C 298.5,470.5 298.5,471.5 298.5,472.5C 296.833,472.5 295.167,472.5 293.5,472.5C 293.5,471.5 293.5,470.5 293.5,469.5C 295.167,469.5 296.833,469.5 298.5,469.5 Z"/></g>
<g><path style="opacity:1" fill="#111111" d="M 58.5,470.5 C 59.1667,470.5 59.5,470.833 59.5,471.5C 59.5,472.833 59.5,474.167 59.5,475.5C 62.8333,475.5 66.1667,475.5 69.5,475.5C 69.5,474.167 69.5,472.833 69.5,471.5C 69.8417,470.662 70.5084,470.328 71.5,470.5C 71.5,472.5 71.5,474.5 71.5,476.5C 67.1667,476.5 62.8333,476.5 58.5,476.5C 58.5,474.5 58.5,472.5 58.5,470.5 Z"/></g>
<g><path style="opacity:1" fill="#4e4e4e" d="M 58.5,470.5 C 62.8333,469.167 67.1667,469.167 71.5,470.5C 70.5084,470.328 69.8417,470.662 69.5,471.5C 66.1667,471.5 62.8333,471.5 59.5,471.5C 59.5,470.833 59.1667,470.5 58.5,470.5 Z"/></g>
<g><path style="opacity:1" fill="#030303" d="M 213.5,470.5 C 213.5,472.167 213.5,473.833 213.5,475.5C 217.5,475.5 221.5,475.5 225.5,475.5C 221.366,476.485 217.032,476.818 212.5,476.5C 212.205,474.265 212.539,472.265 213.5,470.5 Z"/></g>
<g><path style="opacity:1" fill="#2b2b2b" d="M 229.5,459.5 C 231.414,462.684 232.08,466.351 231.5,470.5C 234.187,470.336 236.854,470.503 239.5,471C 236.207,471.826 232.874,472.326 229.5,472.5C 229.5,468.167 229.5,463.833 229.5,459.5 Z"/></g>
<g><path style="opacity:1" fill="#2b2b2b" d="M 41.5,467.5 C 41.4312,470.084 40.2645,472.084 38,473.5C 37.5,473 37,472.5 36.5,472C 38.4971,470.807 40.1638,469.307 41.5,467.5 Z"/></g>
<g><path style="opacity:1" fill="#e2e2e2" d="M 59.5,471.5 C 62.8333,471.5 66.1667,471.5 69.5,471.5C 69.5,472.833 69.5,474.167 69.5,475.5C 66.1667,475.5 62.8333,475.5 59.5,475.5C 59.5,474.167 59.5,472.833 59.5,471.5 Z"/></g>
<g><path style="opacity:1" fill="#727272" d="M 97.5,469.5 C 97.5,470.5 97.5,471.5 97.5,472.5C 100.059,472.198 102.393,472.532 104.5,473.5C 101.833,473.5 99.1667,473.5 96.5,473.5C 96.2322,471.901 96.5655,470.568 97.5,469.5 Z"/></g>
<g><path style="opacity:1" fill="#303030" d="M 144.5,472.5 C 150.868,472.17 157.202,472.504 163.5,473.5C 160.333,473.833 157.167,474.167 154,474.5C 150.424,474.485 147.258,473.818 144.5,472.5 Z"/></g>
<g><path style="opacity:1" fill="#9d9d9d" d="M 298.5,469.5 C 296.833,469.5 295.167,469.5 293.5,469.5C 293.5,470.5 293.5,471.5 293.5,472.5C 295.167,472.5 296.833,472.5 298.5,472.5C 296.735,473.461 294.735,473.795 292.5,473.5C 292.5,471.833 292.5,470.167 292.5,468.5C 294.735,468.205 296.735,468.539 298.5,469.5 Z"/></g>
<g><path style="opacity:1" fill="#171717" d="M 307.5,472.5 C 309.465,472.948 309.798,473.948 308.5,475.5C 307.614,474.675 307.281,473.675 307.5,472.5 Z"/></g>
<g><path style="opacity:1" fill="#a6a6a6" d="M 213.5,470.5 C 212.539,472.265 212.205,474.265 212.5,476.5C 217.032,476.818 221.366,476.485 225.5,475.5C 221.5,475.5 217.5,475.5 213.5,475.5C 213.5,473.833 213.5,472.167 213.5,470.5 Z"/></g>
<g><path style="opacity:1" fill="#252525" d="M 76.5,473.5 C 77.3764,473.369 78.0431,473.702 78.5,474.5C 76.0821,480.907 75.4154,480.573 76.5,473.5 Z"/></g>
</svg>
