<?xml version="1.0" encoding="UTF-8"?>
<!DOCTYPE svg PUBLIC "-//W3C//DTD SVG 1.1//EN" "http://www.w3.org/Graphics/SVG/1.1/DTD/svg11.dtd">
<svg xmlns="http://www.w3.org/2000/svg" version="1.1" width="303px" height="300px" style="shape-rendering:geometricPrecision; text-rendering:geometricPrecision; image-rendering:optimizeQuality; fill-rule:evenodd; clip-rule:evenodd" xmlns:xlink="http://www.w3.org/1999/xlink">
<g><path style="opacity:1" fill="#fcfcfc" d="M -0.5,-0.5 C 100.5,-0.5 201.5,-0.5 302.5,-0.5C 302.5,99.5 302.5,199.5 302.5,299.5C 201.5,299.5 100.5,299.5 -0.5,299.5C -0.5,199.5 -0.5,99.5 -0.5,-0.5 Z"/></g>
<g><path style="opacity:1" fill="#474747" d="M 128.5,47.5 C 123.463,47.4126 118.463,47.746 113.5,48.5C 113.918,47.7784 114.584,47.2784 115.5,47C 120.02,46.1864 124.354,46.353 128.5,47.5 Z"/></g>
<g><path style="opacity:1" fill="#1c1a1b" d="M 128.5,47.5 C 140.113,47.2921 148.613,52.2921 154,62.5C 157.158,77.6884 151.991,89.1884 138.5,97C 133.924,98.4764 129.257,98.8098 124.5,98C 122.714,97.2155 121.214,96.0488 120,94.5C 114.273,85.0429 109.606,75.0429 106,64.5C 104.209,56.9979 106.709,51.6646 113.5,48.5C 118.463,47.746 123.463,47.4126 128.5,47.5 Z"/></g>
<g><path style="opacity:1" fill="#a7a6a6" d="M 30.5,52.5 C 25.7971,52.4372 21.1304,52.7705 16.5,53.5C 19.0169,52.027 21.8502,51.3603 25,51.5C 27.0326,51.5056 28.866,51.8389 30.5,52.5 Z"/></g>
<g><path style="opacity:1" fill="#1c1a1b" d="M 30.5,52.5 C 51.8334,57.1583 60.0001,70.1583 55,91.5C 52.1047,98.292 48.4381,104.625 44,110.5C 36.7801,118.858 29.1135,119.525 21,112.5C 19.1492,107.058 17.3158,101.725 15.5,96.5C 15.5905,93.8478 14.9238,91.5145 13.5,89.5C 10.935,83.3701 8.10162,77.3701 5,71.5C 3.24499,62.0639 7.07833,56.0639 16.5,53.5C 21.1304,52.7705 25.7971,52.4372 30.5,52.5 Z"/></g>
<g><path style="opacity:1" fill="#1c1a1b" d="M 204.5,80.5 C 205.492,76.5956 206.492,72.5956 207.5,68.5C 211.743,61.1264 218.243,57.793 227,58.5C 236.547,58.7125 243.547,63.0459 248,71.5C 248.167,73.3333 248.333,75.1667 248.5,77C 247.201,82.269 246.201,87.6023 245.5,93C 247.14,99.3827 247.64,105.883 247,112.5C 243.604,116.203 239.437,117.369 234.5,116C 228.556,108.521 224.723,100.021 223,90.5C 221.333,89.1667 219.667,89.1667 218,90.5C 218.06,97.4971 218.06,104.497 218,111.5C 215.928,116.143 212.428,117.643 207.5,116C 206.137,114.055 205.303,111.888 205,109.5C 204.5,99.8391 204.334,90.1724 204.5,80.5 Z"/></g>
<g><path style="opacity:1" fill="#1c1a1b" d="M 106.5,85.5 C 107.275,90.7968 107.608,96.1301 107.5,101.5C 106.75,111.52 101.75,118.353 92.5,122C 71.615,125.774 60.9483,117.108 60.5,96C 59.6969,83.2715 64.6969,73.6048 75.5,67C 90.7316,65.0815 101.065,71.2481 106.5,85.5 Z"/></g>
<g><path style="opacity:1" fill="#1c1a1b" d="M 164.5,66.5 C 172.954,65.1491 179.787,67.8158 185,74.5C 189.943,86.054 194.61,97.7206 199,109.5C 199.667,113.5 199.667,117.5 199,121.5C 197.5,124.333 195.333,126.5 192.5,128C 179.491,128.596 166.491,128.929 153.5,129C 151.895,127.64 150.395,126.14 149,124.5C 148.778,114.045 151.112,104.045 156,94.5C 157.511,86.7911 159.177,79.1244 161,71.5C 162.176,69.8043 163.343,68.1376 164.5,66.5 Z"/></g>
<g><path style="opacity:1" fill="#1f1d1e" d="M 266.5,70.5 C 272.843,69.7553 277.01,72.422 279,78.5C 279.667,92.1667 279.667,105.833 279,119.5C 278.652,125.48 276.486,130.646 272.5,135C 266.609,138.819 262.443,137.319 260,130.5C 257.966,113.143 258.299,95.8093 261,78.5C 261.625,74.8907 263.458,72.224 266.5,70.5 Z"/></g>
<g><path style="opacity:1" fill="#ededed" d="M 25.5,71.5 C 34.6084,74.0377 37.775,80.0377 35,89.5C 33.951,91.1066 32.451,91.7733 30.5,91.5C 29.4893,87.1438 27.6559,83.1438 25,79.5C 24.2782,76.7395 24.4448,74.0728 25.5,71.5 Z"/></g>
<g><path style="opacity:1" fill="#767475" d="M 134.5,73.5 C 132.824,74.1834 132.157,75.5168 132.5,77.5C 130.623,78.9284 129.289,78.4284 128.5,76C 130.723,73.3289 131.89,70.1622 132,66.5C 133.011,65.6634 134.178,65.33 135.5,65.5C 135.806,68.3854 135.473,71.0521 134.5,73.5 Z"/></g>
<g><path style="opacity:1" fill="#b9b7b8" d="M 134.5,73.5 C 134.426,77.1611 135.426,77.8277 137.5,75.5C 138.386,76.325 138.719,77.325 138.5,78.5C 136.435,78.4828 134.435,78.1495 132.5,77.5C 132.157,75.5168 132.824,74.1834 134.5,73.5 Z"/></g>
<g><path style="opacity:1" fill="#5c5c5c" d="M 207.5,68.5 C 206.492,72.5956 205.492,76.5956 204.5,80.5C 203.886,75.9681 204.886,71.9681 207.5,68.5 Z"/></g>
<g><path style="opacity:1" fill="#a4a4a4" d="M 13.5,89.5 C 14.9238,91.5145 15.5905,93.8478 15.5,96.5C 14.0762,94.4855 13.4095,92.1522 13.5,89.5 Z"/></g>
<g><path style="opacity:1" fill="#585758" d="M 106.5,85.5 C 108.006,88.356 108.672,91.5226 108.5,95C 108.496,97.3608 108.163,99.5274 107.5,101.5C 107.608,96.1301 107.275,90.7968 106.5,85.5 Z"/></g>
<g><path style="opacity:1" fill="#e4e2e3" d="M 88.5,101.5 C 93.1585,101.015 94.4919,102.848 92.5,107C 87.7107,107.845 86.3774,106.011 88.5,101.5 Z"/></g>
<g><path style="opacity:1" fill="#1d1b1c" d="M 41.5,156.5 C 42.287,158.104 43.6203,158.771 45.5,158.5C 45.8168,154.298 45.4834,150.298 44.5,146.5C 44.2497,141.42 44.7497,136.42 46,131.5C 51.4778,126.176 56.8111,126.509 62,132.5C 68.7722,148.376 67.7722,163.709 59,178.5C 54.5092,183.259 49.0092,184.759 42.5,183C 29.5474,174.38 21.8808,162.38 19.5,147C 20.9583,135.767 25.4583,134.6 33,143.5C 35.8437,147.862 38.6771,152.195 41.5,156.5 Z"/></g>
<g><path style="opacity:1" fill="#2b2a2b" d="M 289.5,127.5 C 294.159,127.015 295.492,128.848 293.5,133C 288.728,133.81 287.395,131.977 289.5,127.5 Z"/></g>
<g><path style="opacity:1" fill="#201e1f" d="M 87.5,163.5 C 86.4751,166.974 85.8084,170.64 85.5,174.5C 84.9927,181.518 82.9927,188.018 79.5,194C 74.9024,195.091 72.0691,193.257 71,188.5C 70.3333,182.167 70.3333,175.833 71,169.5C 72.741,158.904 73.741,148.237 74,137.5C 77.4655,131.721 81.7988,131.055 87,135.5C 88.089,139.048 88.589,142.715 88.5,146.5C 88.2033,152.174 87.87,157.841 87.5,163.5 Z"/></g>
<g><path style="opacity:1" fill="#1c1a1b" d="M 262.5,182.5 C 265.345,183.344 268.345,184.01 271.5,184.5C 276.138,186.635 279.138,190.135 280.5,195C 279.648,200.855 276.315,204.521 270.5,206C 257.87,207.467 246.37,204.634 236,197.5C 234.864,195.257 234.03,192.924 233.5,190.5C 233.334,182.16 233.5,173.827 234,165.5C 234.5,165 235,164.5 235.5,164C 234.522,157.59 234.189,151.09 234.5,144.5C 235.293,139.224 238.293,137.391 243.5,139C 244.5,139.833 245.5,140.667 246.5,141.5C 247.309,151.453 247.809,161.453 248,171.5C 250.299,178.41 255.133,182.076 262.5,182.5 Z"/></g>
<g><path style="opacity:1" fill="#1d1b1c" d="M 106.5,143.5 C 119.748,144.707 130.248,150.707 138,161.5C 139.35,167.299 137.517,171.799 132.5,175C 135.783,180.553 136.283,186.386 134,192.5C 132.442,194.359 130.609,195.859 128.5,197C 111.589,199.962 99.4224,193.795 92,178.5C 90.118,171.553 92.618,167.887 99.5,167.5C 99.2447,164.984 98.4114,162.65 97,160.5C 95.5515,152.049 98.7181,146.382 106.5,143.5 Z"/></g>
<g><path style="opacity:1" fill="#1f1d1e" d="M 148.5,149.5 C 152.815,149.643 155.982,151.643 158,155.5C 158.333,162.5 158.667,169.5 159,176.5C 159.311,178.556 159.811,180.556 160.5,182.5C 165.494,183.951 167.494,181.951 166.5,176.5C 166.301,172.37 165.467,168.37 164,164.5C 163.333,160.5 163.333,156.5 164,152.5C 171.002,147.426 176.002,149.093 179,157.5C 182.723,171.043 182.056,184.376 177,197.5C 171.579,204.453 164.746,206.286 156.5,203C 149.377,197.592 145.21,190.425 144,181.5C 143.333,173.167 143.333,164.833 144,156.5C 145.012,153.798 146.512,151.465 148.5,149.5 Z"/></g>
<g><path style="opacity:1" fill="#bdbdbd" d="M 44.5,146.5 C 45.4834,150.298 45.8168,154.298 45.5,158.5C 43.6203,158.771 42.287,158.104 41.5,156.5C 42.4959,156.414 43.3292,156.748 44,157.5C 44.4986,153.848 44.6653,150.182 44.5,146.5 Z"/></g>
<g><path style="opacity:1" fill="#1c1a1b" d="M 228.5,219.5 C 225.15,219.665 221.817,219.498 218.5,219C 217.696,217.229 216.529,215.729 215,214.5C 212.323,216.041 209.49,217.041 206.5,217.5C 203.366,218.901 200.366,220.568 197.5,222.5C 194.193,222.937 191.193,222.27 188.5,220.5C 189.025,219.808 189.692,219.308 190.5,219C 189.874,218.25 189.374,217.416 189,216.5C 188.257,218.645 187.424,218.811 186.5,217C 185.618,213.559 185.284,210.059 185.5,206.5C 186.828,191.721 188.994,177.055 192,162.5C 198.205,153.691 204.871,153.357 212,161.5C 221.203,177.066 228.037,193.566 232.5,211C 232.284,214.467 230.951,217.3 228.5,219.5 Z"/></g>
<g><path style="opacity:1" fill="#aaa9aa" d="M 87.5,163.5 C 87.8836,167.489 87.217,171.155 85.5,174.5C 85.8084,170.64 86.4751,166.974 87.5,163.5 Z"/></g>
<g><path style="opacity:1" fill="#868485" d="M 119.5,175.5 C 119.167,174.833 118.833,174.167 118.5,173.5C 119.859,172.993 120.859,171.993 121.5,170.5C 122.823,172.854 122.157,174.521 119.5,175.5 Z"/></g>
<g><path style="opacity:1" fill="#a9a8a9" d="M 118.5,173.5 C 118.833,174.167 119.167,174.833 119.5,175.5C 119.586,176.496 119.252,177.329 118.5,178C 116.567,178.251 114.734,178.751 113,179.5C 114.063,175.525 114.563,171.525 114.5,167.5C 115.832,169.534 117.166,171.534 118.5,173.5 Z"/></g>
<g><path style="opacity:1" fill="#464546" d="M 234.5,144.5 C 234.189,151.09 234.522,157.59 235.5,164C 235,164.5 234.5,165 234,165.5C 233.5,173.827 233.334,182.16 233.5,190.5C 232.834,184.509 232.5,178.343 232.5,172C 232.328,162.618 232.994,153.451 234.5,144.5 Z"/></g>
<g><path style="opacity:1" fill="#b4b3b3" d="M 262.5,182.5 C 265.187,182.336 267.854,182.503 270.5,183C 271.056,183.383 271.389,183.883 271.5,184.5C 268.345,184.01 265.345,183.344 262.5,182.5 Z"/></g>
<g><path style="opacity:1" fill="#1e1c1d" d="M 86.5,254.5 C 88.2261,256.82 88.8928,259.487 88.5,262.5C 87.5589,264.772 86.2255,266.772 84.5,268.5C 78.1682,271.667 71.5015,272.333 64.5,270.5C 59.1308,267.457 55.9642,262.79 55,256.5C 54.3333,242.5 54.3333,228.5 55,214.5C 59.8447,208.921 64.178,209.254 68,215.5C 68.5235,222.343 68.3568,229.176 67.5,236C 66.7788,242.534 69.1122,247.534 74.5,251C 78.6204,251.862 82.6204,253.029 86.5,254.5 Z"/></g>
<g><path style="opacity:1" fill="#1d1b1c" d="M 108.5,217.5 C 108.608,221.716 110.274,225.049 113.5,227.5C 115.766,233.29 117.599,239.29 119,245.5C 119.888,250.618 119.555,255.618 118,260.5C 115.757,262.282 113.257,262.782 110.5,262C 108.983,260.315 107.316,258.815 105.5,257.5C 104.567,261.743 102.067,264.409 98,265.5C 94.2953,264.628 92.1287,262.294 91.5,258.5C 90.6693,255.341 89.6693,252.341 88.5,249.5C 86.7698,238.562 86.2698,227.562 87,216.5C 91.571,208.919 97.4043,207.752 104.5,213C 106.041,214.371 107.375,215.871 108.5,217.5 Z"/></g>
<g><path style="opacity:1" fill="#424142" d="M 228.5,219.5 C 227.054,220.94 225.221,221.607 223,221.5C 217.604,219.644 212.104,218.31 206.5,217.5C 209.49,217.041 212.323,216.041 215,214.5C 216.529,215.729 217.696,217.229 218.5,219C 221.817,219.498 225.15,219.665 228.5,219.5 Z"/></g>
<g><path style="opacity:1" fill="#363535" d="M 185.5,206.5 C 185.284,210.059 185.618,213.559 186.5,217C 187.424,218.811 188.257,218.645 189,216.5C 189.374,217.416 189.874,218.25 190.5,219C 189.692,219.308 189.025,219.808 188.5,220.5C 191.193,222.27 194.193,222.937 197.5,222.5C 191.635,225.054 187.468,223.387 185,217.5C 184.19,213.642 184.357,209.976 185.5,206.5 Z"/></g>
<g><path style="opacity:1" fill="#1d1b1c" d="M 127.5,215.5 C 138.037,214.894 148.37,216.061 158.5,219C 163.116,221.56 167.282,224.727 171,228.5C 173.806,236.406 172.639,243.573 167.5,250C 167.645,250.772 167.978,251.439 168.5,252C 182.542,256.822 185.208,265.155 176.5,277C 168.422,281.294 159.755,283.127 150.5,282.5C 143.809,283.079 137.476,281.913 131.5,279C 128.865,277.039 127.031,274.539 126,271.5C 124.086,254.208 123.419,236.875 124,219.5C 125.376,218.295 126.542,216.962 127.5,215.5 Z"/></g>
<g><path style="opacity:1" fill="#464445" d="M 108.5,217.5 C 110.674,220.515 112.341,223.849 113.5,227.5C 110.274,225.049 108.608,221.716 108.5,217.5 Z"/></g>
<g><path style="opacity:1" fill="#c0bfbf" d="M 88.5,249.5 C 89.6693,252.341 90.6693,255.341 91.5,258.5C 90.8826,258.389 90.3826,258.056 90,257.5C 89.8019,259.382 89.3019,261.048 88.5,262.5C 88.8928,259.487 88.2261,256.82 86.5,254.5C 88.256,253.448 88.9227,251.781 88.5,249.5 Z"/></g>
<g><path style="opacity:1" fill="#d8d6d7" d="M 136.5,266.5 C 137.833,266.5 139.167,266.5 140.5,266.5C 140.5,268.167 140.5,269.833 140.5,271.5C 139.167,271.5 137.833,271.5 136.5,271.5C 136.5,269.833 136.5,268.167 136.5,266.5 Z"/></g>
<g><path style="opacity:1" fill="#acacac" d="M 84.5,268.5 C 83.5475,270.61 81.8808,271.777 79.5,272C 75.5,272.667 71.5,272.667 67.5,272C 66.2625,271.768 65.2625,271.268 64.5,270.5C 71.5015,272.333 78.1682,271.667 84.5,268.5 Z"/></g>
</svg>
