<?xml version="1.0" encoding="UTF-8"?>
<!DOCTYPE svg PUBLIC "-//W3C//DTD SVG 1.1//EN" "http://www.w3.org/Graphics/SVG/1.1/DTD/svg11.dtd">
<svg xmlns="http://www.w3.org/2000/svg" version="1.1" width="365px" height="377px" style="shape-rendering:geometricPrecision; text-rendering:geometricPrecision; image-rendering:optimizeQuality; fill-rule:evenodd; clip-rule:evenodd" xmlns:xlink="http://www.w3.org/1999/xlink">
<g><path style="opacity:1" fill="#fdfdfd" d="M -0.5,-0.5 C 121.167,-0.5 242.833,-0.5 364.5,-0.5C 364.5,91.5 364.5,183.5 364.5,275.5C 363.033,278.29 360.7,279.956 357.5,280.5C 240.833,280.5 124.167,280.5 7.5,280.5C 2.43791,277.606 0.104577,273.273 0.5,267.5C 0.296217,255.151 0.62955,242.817 1.5,230.5C 1.33333,228.5 1.16667,226.5 1,224.5C 0.617425,223.944 0.117425,223.611 -0.5,223.5C -0.5,221.5 -0.5,219.5 -0.5,217.5C 0.28292,214.491 0.949587,211.324 1.5,208C 0.204615,162.675 0.204615,117.342 1.5,72C 0.871917,50.6777 0.20525,29.511 -0.5,8.5C -0.5,5.5 -0.5,2.5 -0.5,-0.5 Z"/></g>
<g><path style="opacity:1" fill="#9f9e9f" d="M 147.5,20.5 C 157.074,18.9908 166.407,20.1575 175.5,24C 176.71,25.0391 177.71,26.2058 178.5,27.5C 178.167,27.5 177.833,27.5 177.5,27.5C 174.461,25.2028 171.128,23.3695 167.5,22C 160.854,21.1686 154.187,20.6686 147.5,20.5 Z"/></g>
<g><path style="opacity:1" fill="#1b1a1b" d="M 147.5,20.5 C 154.187,20.6686 160.854,21.1686 167.5,22C 171.128,23.3695 174.461,25.2028 177.5,27.5C 177.829,29.9908 178.829,32.1575 180.5,34C 179.833,34.6667 179.167,35.3333 178.5,36C 180.226,37.5298 182.226,38.5298 184.5,39C 186.312,42.922 186.979,47.0887 186.5,51.5C 186.007,53.8056 185.674,56.139 185.5,58.5C 183.75,59.6594 182.75,61.326 182.5,63.5C 180.937,64.9448 179.604,66.6115 178.5,68.5C 176.596,68.7376 175.262,69.7376 174.5,71.5C 171.731,72.4373 169.064,73.6039 166.5,75C 163.183,75.4983 159.85,75.665 156.5,75.5C 153.705,74.937 151.372,73.6037 149.5,71.5C 148.89,69.5659 147.89,67.8993 146.5,66.5C 145.662,66.1583 145.328,65.4916 145.5,64.5C 145.262,62.5956 144.262,61.2623 142.5,60.5C 141.913,55.9991 140.246,51.9991 137.5,48.5C 137.59,45.8478 136.924,43.5145 135.5,41.5C 135.167,40.1667 134.833,38.8333 134.5,37.5C 134.401,34.7628 134.735,32.0961 135.5,29.5C 137.262,28.7377 138.262,27.4044 138.5,25.5C 140.749,24.9202 142.415,23.5869 143.5,21.5C 145.099,21.7678 146.432,21.4345 147.5,20.5 Z"/></g>
<g><path style="opacity:1" fill="#5f5f5f" d="M 143.5,21.5 C 142.415,23.5869 140.749,24.9202 138.5,25.5C 139.585,23.4131 141.251,22.0798 143.5,21.5 Z"/></g>
<g><path style="opacity:1" fill="#acabab" d="M 52.5,26.5 C 48.7657,26.3227 45.0991,26.6561 41.5,27.5C 40.8333,27.5 40.1667,27.5 39.5,27.5C 41.8476,26.0483 44.5143,25.3817 47.5,25.5C 49.3693,25.5068 51.036,25.8401 52.5,26.5 Z"/></g>
<g><path style="opacity:1" fill="#6c6b6c" d="M 138.5,25.5 C 138.262,27.4044 137.262,28.7377 135.5,29.5C 135.738,27.5956 136.738,26.2623 138.5,25.5 Z"/></g>
<g><path style="opacity:1" fill="#5a5859" d="M 39.5,27.5 C 40.1667,27.5 40.8333,27.5 41.5,27.5C 39.4855,28.9238 37.1522,29.5905 34.5,29.5C 35.9303,28.4625 37.597,27.7959 39.5,27.5 Z"/></g>
<g><path style="opacity:1" fill="#1c1a1b" d="M 52.5,26.5 C 55.7278,27.5456 59.0611,28.2122 62.5,28.5C 64.5664,30.1991 66.8997,31.5324 69.5,32.5C 69.9731,33.9063 70.9731,34.573 72.5,34.5C 72.8333,35.1667 73.1667,35.8333 73.5,36.5C 74.0798,38.7488 75.4131,40.4154 77.5,41.5C 78.3382,41.8417 78.6716,42.5084 78.5,43.5C 78.427,45.0269 79.0937,46.0269 80.5,46.5C 81.4553,52.4093 81.7886,58.4093 81.5,64.5C 80.4625,65.9303 79.7959,67.597 79.5,69.5C 78.758,71.9798 77.758,74.3131 76.5,76.5C 75.0937,76.9731 74.427,77.9731 74.5,79.5C 73.0937,79.9731 72.427,80.9731 72.5,82.5C 71.0937,82.9731 70.427,83.9731 70.5,85.5C 69.0937,85.9731 68.427,86.9731 68.5,88.5C 66.5,89.8333 64.8333,91.5 63.5,93.5C 61.1815,93.9925 59.1815,94.9925 57.5,96.5C 52.4061,97.3356 48.0727,96.0022 44.5,92.5C 44.3404,90.847 43.6737,89.5137 42.5,88.5C 41.871,85.6027 40.871,82.936 39.5,80.5C 39.7678,78.901 39.4345,77.5676 38.5,76.5C 38.4725,73.0836 37.4725,70.0836 35.5,67.5C 35.7678,65.901 35.4345,64.5676 34.5,63.5C 34.2451,61.0326 33.2451,59.0326 31.5,57.5C 31.3404,55.847 30.6737,54.5137 29.5,53.5C 29.3404,51.847 28.6737,50.5137 27.5,49.5C 27.5,48.8333 27.5,48.1667 27.5,47.5C 28.4441,43.1164 28.7774,38.7831 28.5,34.5C 29.1667,33.1667 30.1667,32.1667 31.5,31.5C 33.0269,31.573 34.0269,30.9063 34.5,29.5C 37.1522,29.5905 39.4855,28.9238 41.5,27.5C 45.0991,26.6561 48.7657,26.3227 52.5,26.5 Z"/></g>
<g><path style="opacity:1" fill="#676566" d="M 34.5,29.5 C 34.0269,30.9063 33.0269,31.573 31.5,31.5C 31.9731,30.0937 32.9731,29.427 34.5,29.5 Z"/></g>
<g><path style="opacity:1" fill="#a6a5a5" d="M 62.5,28.5 C 65.5458,28.7247 67.8791,30.058 69.5,32.5C 66.8997,31.5324 64.5664,30.1991 62.5,28.5 Z"/></g>
<g><path style="opacity:1" fill="#313131" d="M 177.5,27.5 C 177.833,27.5 178.167,27.5 178.5,27.5C 182.061,30.9438 184.894,34.9438 187,39.5C 187.499,43.4862 187.666,47.4862 187.5,51.5C 187.167,51.5 186.833,51.5 186.5,51.5C 186.979,47.0887 186.312,42.922 184.5,39C 182.226,38.5298 180.226,37.5298 178.5,36C 179.167,35.3333 179.833,34.6667 180.5,34C 178.829,32.1575 177.829,29.9908 177.5,27.5 Z"/></g>
<g><path style="opacity:1" fill="#acabac" d="M 69.5,32.5 C 71.0269,32.427 72.0269,33.0937 72.5,34.5C 70.9731,34.573 69.9731,33.9063 69.5,32.5 Z"/></g>
<g><path style="opacity:1" fill="#c0bfc0" d="M 135.5,29.5 C 134.735,32.0961 134.401,34.7628 134.5,37.5C 133.848,36.5514 133.514,35.3847 133.5,34C 133.307,31.9919 133.974,30.4919 135.5,29.5 Z"/></g>
<g><path style="opacity:1" fill="#7d7d7d" d="M 257.5,33.5 C 256.07,34.5375 254.403,35.2041 252.5,35.5C 253.635,33.7868 255.302,33.1201 257.5,33.5 Z"/></g>
<g><path style="opacity:1" fill="#1c1a1b" d="M 278.5,36.5 C 279.833,38.5 281.5,40.1667 283.5,41.5C 283.833,42.1667 284.167,42.8333 284.5,43.5C 284.427,45.0269 285.094,46.0269 286.5,46.5C 287.904,51.6035 287.571,56.6035 285.5,61.5C 285.167,62.1667 284.833,62.8333 284.5,63.5C 283.838,65.3035 283.505,67.3035 283.5,69.5C 283.343,72.8136 284.009,75.8136 285.5,78.5C 286.301,80.0418 286.634,81.7085 286.5,83.5C 286.599,86.2372 286.265,88.9039 285.5,91.5C 281.252,94.6154 276.586,95.2821 271.5,93.5C 269.649,91.2241 267.982,88.8907 266.5,86.5C 266.5,86.1667 266.5,85.8333 266.5,85.5C 266.118,81.6684 264.785,78.335 262.5,75.5C 262.5,75.1667 262.5,74.8333 262.5,74.5C 262.655,71.284 261.655,68.6174 259.5,66.5C 258.116,65.1991 256.616,65.1991 255,66.5C 254.219,71.9167 254.385,77.2501 255.5,82.5C 256.352,90.8533 252.686,94.8533 244.5,94.5C 242.282,92.3486 240.948,89.6819 240.5,86.5C 240.246,73.8032 240.579,61.1365 241.5,48.5C 242.612,42.0513 246.278,37.7179 252.5,35.5C 254.403,35.2041 256.07,34.5375 257.5,33.5C 261.311,32.3547 265.311,32.1881 269.5,33C 272.521,34.1798 275.521,35.3465 278.5,36.5 Z"/></g>
<g><path style="opacity:1" fill="#afaeaf" d="M 278.5,36.5 C 281.167,37.1667 282.833,38.8333 283.5,41.5C 281.5,40.1667 279.833,38.5 278.5,36.5 Z"/></g>
<g><path style="opacity:1" fill="#555354" d="M 73.5,36.5 C 75.5869,37.5846 76.9202,39.2512 77.5,41.5C 75.4131,40.4154 74.0798,38.7488 73.5,36.5 Z"/></g>
<g><path style="opacity:1" fill="#393839" d="M 28.5,34.5 C 28.7774,38.7831 28.4441,43.1164 27.5,47.5C 26.8333,46.5 26.1667,45.5 25.5,44.5C 25.0255,40.5842 26.0255,37.2509 28.5,34.5 Z"/></g>
<g><path style="opacity:1" fill="#ababab" d="M 207.5,41.5 C 204.391,41.2641 201.391,41.5975 198.5,42.5C 198.167,42.5 197.833,42.5 197.5,42.5C 197.611,41.8826 197.944,41.3826 198.5,41C 201.696,40.1955 204.696,40.3622 207.5,41.5 Z"/></g>
<g><path style="opacity:1" fill="#9d9d9d" d="M 113.5,41.5 C 115.698,41.1201 117.365,41.7868 118.5,43.5C 118.167,43.5 117.833,43.5 117.5,43.5C 116.005,43.0113 114.671,42.3446 113.5,41.5 Z"/></g>
<g><path style="opacity:1" fill="#a9a9a9" d="M 207.5,41.5 C 209.698,41.1201 211.365,41.7868 212.5,43.5C 210.597,43.2041 208.93,42.5375 207.5,41.5 Z"/></g>
<g><path style="opacity:1" fill="#1b191a" d="M 113.5,41.5 C 114.671,42.3446 116.005,43.0113 117.5,43.5C 119.292,45.5693 121.626,46.9026 124.5,47.5C 125.833,48.5 127.167,49.5 128.5,50.5C 129.5,51.8333 130.5,53.1667 131.5,54.5C 131.427,56.0269 132.094,57.0269 133.5,57.5C 133.259,59.8984 133.926,61.8984 135.5,63.5C 136.338,63.8417 136.672,64.5084 136.5,65.5C 136.653,71.8692 136.32,78.2026 135.5,84.5C 135.5,84.8333 135.5,85.1667 135.5,85.5C 133.992,87.1815 132.992,89.1815 132.5,91.5C 130.844,93.4602 129.177,95.4602 127.5,97.5C 126.391,97.5569 125.391,97.8902 124.5,98.5C 118.319,100.252 111.986,100.919 105.5,100.5C 102.779,100.037 100.112,99.3705 97.5,98.5C 97.0269,97.0937 96.0269,96.427 94.5,96.5C 92.4727,95.1394 90.806,93.4727 89.5,91.5C 89.2041,89.597 88.5375,87.9303 87.5,86.5C 87.5,86.1667 87.5,85.8333 87.5,85.5C 86.669,78.8689 86.3357,72.2022 86.5,65.5C 87.4243,62.2039 88.4243,58.8705 89.5,55.5C 90.9063,55.0269 91.573,54.0269 91.5,52.5C 95.1667,49.5 98.5,46.1667 101.5,42.5C 105.298,41.5166 109.298,41.1832 113.5,41.5 Z"/></g>
<g><path style="opacity:1" fill="#1b191a" d="M 207.5,41.5 C 208.93,42.5375 210.597,43.2041 212.5,43.5C 213.694,44.2719 214.694,45.2719 215.5,46.5C 216.08,48.7488 217.413,50.4154 219.5,51.5C 220.674,52.5137 221.34,53.847 221.5,55.5C 221.755,57.9674 222.755,59.9674 224.5,61.5C 224.5,62.1667 224.5,62.8333 224.5,63.5C 224.557,64.609 224.89,65.609 225.5,66.5C 225.415,69.6489 226.415,72.3155 228.5,74.5C 229.461,77.0547 230.794,79.388 232.5,81.5C 233.167,83.5 233.833,85.5 234.5,87.5C 235.291,93.9419 234.291,99.9419 231.5,105.5C 230.391,105.557 229.391,105.89 228.5,106.5C 214.372,106.284 200.538,106.284 187,106.5C 185.275,105.536 183.441,104.869 181.5,104.5C 180.64,100.566 180.307,96.5662 180.5,92.5C 180.328,91.5084 180.662,90.8417 181.5,90.5C 182.537,89.0697 183.204,87.403 183.5,85.5C 183.5,84.8333 183.5,84.1667 183.5,83.5C 184.906,83.0269 185.573,82.0269 185.5,80.5C 185.595,78.2143 186.262,76.2143 187.5,74.5C 188.924,72.4855 189.59,70.1522 189.5,67.5C 190.422,63.8881 191.089,60.2215 191.5,56.5C 192.924,54.4855 193.59,52.1522 193.5,49.5C 194.717,46.9333 196.384,44.6 198.5,42.5C 201.391,41.5975 204.391,41.2641 207.5,41.5 Z"/></g>
<g><path style="opacity:1" fill="#3f3e3f" d="M 117.5,43.5 C 117.833,43.5 118.167,43.5 118.5,43.5C 120.153,43.6596 121.486,44.3263 122.5,45.5C 123.167,46.1667 123.833,46.8333 124.5,47.5C 121.626,46.9026 119.292,45.5693 117.5,43.5 Z"/></g>
<g><path style="opacity:1" fill="#9c9b9c" d="M 135.5,41.5 C 136.924,43.5145 137.59,45.8478 137.5,48.5C 136.076,46.4855 135.41,44.1522 135.5,41.5 Z"/></g>
<g><path style="opacity:1" fill="#656465" d="M 197.5,42.5 C 197.833,42.5 198.167,42.5 198.5,42.5C 196.384,44.6 194.717,46.9333 193.5,49.5C 193.149,46.1884 194.482,43.855 197.5,42.5 Z"/></g>
<g><path style="opacity:1" fill="#7a7a7a" d="M 78.5,43.5 C 79.9063,43.9731 80.573,44.9731 80.5,46.5C 79.0937,46.0269 78.427,45.0269 78.5,43.5 Z"/></g>
<g><path style="opacity:1" fill="#5f5e5f" d="M 101.5,42.5 C 98.5,46.1667 95.1667,49.5 91.5,52.5C 93.8333,48.1667 97.1667,44.8333 101.5,42.5 Z"/></g>
<g><path style="opacity:1" fill="#787878" d="M 284.5,43.5 C 285.906,43.9731 286.573,44.9731 286.5,46.5C 285.094,46.0269 284.427,45.0269 284.5,43.5 Z"/></g>
<g><path style="opacity:1" fill="#bdbdbe" d="M 122.5,45.5 C 125.958,45.4145 127.958,47.0812 128.5,50.5C 127.167,49.5 125.833,48.5 124.5,47.5C 123.833,46.8333 123.167,46.1667 122.5,45.5 Z"/></g>
<g><path style="opacity:1" fill="#858485" d="M 306.5,46.5 C 308.966,45.3659 311.633,45.1993 314.5,46C 315.056,46.3826 315.389,46.8826 315.5,47.5C 312.57,46.701 309.57,46.3677 306.5,46.5 Z"/></g>
<g><path style="opacity:1" fill="#b6b5b5" d="M 25.5,44.5 C 26.1667,45.5 26.8333,46.5 27.5,47.5C 27.5,48.1667 27.5,48.8333 27.5,49.5C 25.7868,48.3646 25.1201,46.698 25.5,44.5 Z"/></g>
<g><path style="opacity:1" fill="#4c4c4c" d="M 215.5,46.5 C 217.587,47.5846 218.92,49.2512 219.5,51.5C 217.413,50.4154 216.08,48.7488 215.5,46.5 Z"/></g>
<g><path style="opacity:1" fill="#868585" d="M 306.5,46.5 C 305.5,48.1667 304.167,49.5 302.5,50.5C 302.833,48.1667 304.167,46.8333 306.5,46.5 Z"/></g>
<g><path style="opacity:1" fill="#1b191a" d="M 306.5,46.5 C 309.57,46.3677 312.57,46.701 315.5,47.5C 316.604,49.3885 317.937,51.0552 319.5,52.5C 319.5,52.8333 319.5,53.1667 319.5,53.5C 319.777,70.8612 319.444,88.1945 318.5,105.5C 318.5,105.833 318.5,106.167 318.5,106.5C 317.463,107.93 316.796,109.597 316.5,111.5C 314.937,112.945 313.604,114.611 312.5,116.5C 309.693,117.657 307.026,117.657 304.5,116.5C 303.5,114.833 302.167,113.5 300.5,112.5C 300.5,112.167 300.5,111.833 300.5,111.5C 299.962,109.883 299.629,108.216 299.5,106.5C 298.927,88.3826 299.927,70.3826 302.5,52.5C 302.5,51.8333 302.5,51.1667 302.5,50.5C 304.167,49.5 305.5,48.1667 306.5,46.5 Z"/></g>
<g><path style="opacity:1" fill="#ecebec" d="M 57.5,67.5 C 56.0413,67.5674 54.7079,67.2341 53.5,66.5C 53.3404,64.847 52.6737,63.5137 51.5,62.5C 51.3404,60.847 50.6737,59.5137 49.5,58.5C 49.573,56.9731 48.9063,55.9731 47.5,55.5C 47.5,52.8333 47.5,50.1667 47.5,47.5C 56.0484,48.0592 60.0484,52.7259 59.5,61.5C 59.3333,63.1667 59.1667,64.8333 59,66.5C 58.6174,67.056 58.1174,67.3893 57.5,67.5 Z"/></g>
<g><path style="opacity:1" fill="#c3c1c2" d="M 315.5,47.5 C 318.484,47.7868 319.817,49.4535 319.5,52.5C 317.937,51.0552 316.604,49.3885 315.5,47.5 Z"/></g>
<g><path style="opacity:1" fill="#a9a8a9" d="M 137.5,48.5 C 140.246,51.9991 141.913,55.9991 142.5,60.5C 139.754,57.0009 138.087,53.0009 137.5,48.5 Z"/></g>
<g><path style="opacity:1" fill="#a3a3a3" d="M 286.5,46.5 C 287.117,46.6107 287.617,46.944 288,47.5C 288.791,51.9255 288.457,56.2589 287,60.5C 286.617,61.056 286.117,61.3893 285.5,61.5C 287.571,56.6035 287.904,51.6035 286.5,46.5 Z"/></g>
<g><path style="opacity:1" fill="#adadad" d="M 27.5,49.5 C 28.6737,50.5137 29.3404,51.847 29.5,53.5C 27.8235,52.8166 27.1568,51.4832 27.5,49.5 Z"/></g>
<g><path style="opacity:1" fill="#b4b3b3" d="M 302.5,50.5 C 302.5,51.1667 302.5,51.8333 302.5,52.5C 301.833,53.5 301.167,54.5 300.5,55.5C 300.12,53.302 300.787,51.6354 302.5,50.5 Z"/></g>
<g><path style="opacity:1" fill="#6b6a6b" d="M 162.5,48.5 C 162.336,45.8127 162.503,43.146 163,40.5C 164.011,39.6634 165.178,39.33 166.5,39.5C 166.174,43.8839 166.508,48.2172 167.5,52.5C 169.214,51.3915 169.881,52.0582 169.5,54.5C 166.15,54.665 162.817,54.4983 159.5,54C 158.62,52.6439 158.286,51.1439 158.5,49.5C 159.959,49.5674 161.292,49.2341 162.5,48.5 Z"/></g>
<g><path style="opacity:1" fill="#b5b4b5" d="M 162.5,48.5 C 163.5,48.5 164.5,48.5 165.5,48.5C 165.5,50.1667 165.5,51.8333 165.5,53.5C 164.5,53.5 163.5,53.5 162.5,53.5C 162.5,51.8333 162.5,50.1667 162.5,48.5 Z"/></g>
<g><path style="opacity:1" fill="#8a8889" d="M 91.5,52.5 C 91.573,54.0269 90.9063,55.0269 89.5,55.5C 89.427,53.9731 90.0937,52.9731 91.5,52.5 Z"/></g>
<g><path style="opacity:1" fill="#9d9d9d" d="M 186.5,51.5 C 186.833,51.5 187.167,51.5 187.5,51.5C 187.59,54.1522 186.924,56.4855 185.5,58.5C 185.674,56.139 186.007,53.8056 186.5,51.5 Z"/></g>
<g><path style="opacity:1" fill="#666466" d="M 193.5,49.5 C 193.59,52.1522 192.924,54.4855 191.5,56.5C 191.41,53.8478 192.076,51.5145 193.5,49.5 Z"/></g>
<g><path style="opacity:1" fill="#b4b4b4" d="M 29.5,53.5 C 30.6737,54.5137 31.3404,55.847 31.5,57.5C 29.8235,56.8166 29.1568,55.4832 29.5,53.5 Z"/></g>
<g><path style="opacity:1" fill="#7c7a7b" d="M 131.5,54.5 C 132.906,54.9731 133.573,55.9731 133.5,57.5C 132.094,57.0269 131.427,56.0269 131.5,54.5 Z"/></g>
<g><path style="opacity:1" fill="#696869" d="M 47.5,55.5 C 48.9063,55.9731 49.573,56.9731 49.5,58.5C 48.0937,58.0269 47.427,57.0269 47.5,55.5 Z"/></g>
<g><path style="opacity:1" fill="#5c5b5b" d="M 133.5,57.5 C 135.074,59.1016 135.741,61.1016 135.5,63.5C 133.926,61.8984 133.259,59.8984 133.5,57.5 Z"/></g>
<g><path style="opacity:1" fill="#9e9e9e" d="M 221.5,55.5 C 223.245,57.0326 224.245,59.0326 224.5,61.5C 222.755,59.9674 221.755,57.9674 221.5,55.5 Z"/></g>
<g><path style="opacity:1" fill="#545253" d="M 49.5,58.5 C 50.6737,59.5137 51.3404,60.847 51.5,62.5C 49.8235,61.8166 49.1568,60.4832 49.5,58.5 Z"/></g>
<g><path style="opacity:1" fill="#888788" d="M 31.5,57.5 C 33.2451,59.0326 34.2451,61.0326 34.5,63.5C 32.7549,61.9674 31.7549,59.9674 31.5,57.5 Z"/></g>
<g><path style="opacity:1" fill="#9b9b9b" d="M 142.5,60.5 C 144.262,61.2623 145.262,62.5956 145.5,64.5C 143.738,63.7377 142.738,62.4044 142.5,60.5 Z"/></g>
<g><path style="opacity:1" fill="#adadad" d="M 185.5,58.5 C 185.408,60.8477 184.408,62.5144 182.5,63.5C 182.75,61.326 183.75,59.6594 185.5,58.5 Z"/></g>
<g><path style="opacity:1" fill="#9a999a" d="M 224.5,63.5 C 225.906,63.9731 226.573,64.9731 226.5,66.5C 226.167,66.5 225.833,66.5 225.5,66.5C 224.89,65.609 224.557,64.609 224.5,63.5 Z"/></g>
<g><path style="opacity:1" fill="#919091" d="M 53.5,66.5 C 54.7079,67.2341 56.0413,67.5674 57.5,67.5C 57.0831,68.1239 56.4164,68.4573 55.5,68.5C 54.2867,68.2528 53.62,67.5862 53.5,66.5 Z"/></g>
<g><path style="opacity:1" fill="#a2a1a2" d="M 81.5,64.5 C 81.8799,66.698 81.2132,68.3646 79.5,69.5C 79.7959,67.597 80.4625,65.9303 81.5,64.5 Z"/></g>
<g><path style="opacity:1" fill="#c4c4c4" d="M 182.5,63.5 C 182.33,66.204 180.997,67.8707 178.5,68.5C 179.604,66.6115 180.937,64.9448 182.5,63.5 Z"/></g>
<g><path style="opacity:1" fill="#979797" d="M 284.5,63.5 C 284.413,68.5365 284.746,73.5365 285.5,78.5C 284.009,75.8136 283.343,72.8136 283.5,69.5C 283.505,67.3035 283.838,65.3035 284.5,63.5 Z"/></g>
<g><path style="opacity:1" fill="#696869" d="M 259.5,66.5 C 261.655,68.6174 262.655,71.284 262.5,74.5C 261.129,72.064 260.129,69.3973 259.5,66.5 Z"/></g>
<g><path style="opacity:1" fill="#b9b7b8" d="M 146.5,66.5 C 147.89,67.8993 148.89,69.5659 149.5,71.5C 147.241,70.656 146.241,68.9893 146.5,66.5 Z"/></g>
<g><path style="opacity:1" fill="#a9a7a8" d="M 178.5,68.5 C 177.738,70.2624 176.404,71.2624 174.5,71.5C 175.262,69.7376 176.596,68.7376 178.5,68.5 Z"/></g>
<g><path style="opacity:1" fill="#4d4c4c" d="M 225.5,66.5 C 225.833,66.5 226.167,66.5 226.5,66.5C 227.167,68.5 227.833,70.5 228.5,72.5C 228.5,73.1667 228.5,73.8333 228.5,74.5C 226.415,72.3155 225.415,69.6489 225.5,66.5 Z"/></g>
<g><path style="opacity:1" fill="#6e6e6e" d="M 189.5,67.5 C 189.59,70.1522 188.924,72.4855 187.5,74.5C 187.41,71.8478 188.076,69.5145 189.5,67.5 Z"/></g>
<g><path style="opacity:1" fill="#b6b6b6" d="M 35.5,67.5 C 37.4725,70.0836 38.4725,73.0836 38.5,76.5C 36.6896,73.855 35.6896,70.855 35.5,67.5 Z"/></g>
<g><path style="opacity:1" fill="#8b8b8b" d="M 241.5,48.5 C 240.579,61.1365 240.246,73.8032 240.5,86.5C 239.341,75.0073 239.174,63.3407 240,51.5C 240.232,50.2625 240.732,49.2625 241.5,48.5 Z"/></g>
<g><path style="opacity:1" fill="#b0afaf" d="M 228.5,72.5 C 230.584,75.0534 231.917,78.0534 232.5,81.5C 230.794,79.388 229.461,77.0547 228.5,74.5C 228.5,73.8333 228.5,73.1667 228.5,72.5 Z"/></g>
<g><path style="opacity:1" fill="#b1b0b1" d="M 174.5,71.5 C 172.637,73.4924 170.304,74.9924 167.5,76C 163.642,76.8099 159.976,76.6433 156.5,75.5C 159.85,75.665 163.183,75.4983 166.5,75C 169.064,73.6039 171.731,72.4373 174.5,71.5 Z"/></g>
<g><path style="opacity:1" fill="#6f6f6f" d="M 262.5,75.5 C 264.785,78.335 266.118,81.6684 266.5,85.5C 264.6,82.4822 263.267,79.1488 262.5,75.5 Z"/></g>
<g><path style="opacity:1" fill="#999899" d="M 76.5,76.5 C 76.573,78.0269 75.9063,79.0269 74.5,79.5C 74.427,77.9731 75.0937,76.9731 76.5,76.5 Z"/></g>
<g><path style="opacity:1" fill="#939293" d="M 74.5,79.5 C 74.573,81.0269 73.9063,82.0269 72.5,82.5C 72.427,80.9731 73.0937,79.9731 74.5,79.5 Z"/></g>
<g><path style="opacity:1" fill="#656364" d="M 120.5,79.5 C 118.62,79.2291 117.287,79.8958 116.5,81.5C 115.596,82.209 115.263,83.209 115.5,84.5C 113.806,81.361 114.806,79.361 118.5,78.5C 119.416,78.5427 120.083,78.8761 120.5,79.5 Z"/></g>
<g><path style="opacity:1" fill="#e3e2e2" d="M 120.5,79.5 C 121.833,81.1667 121.833,82.8333 120.5,84.5C 119.167,84.5 117.833,84.5 116.5,84.5C 116.5,83.5 116.5,82.5 116.5,81.5C 117.287,79.8958 118.62,79.2291 120.5,79.5 Z"/></g>
<g><path style="opacity:1" fill="#919191" d="M 185.5,80.5 C 185.573,82.0269 184.906,83.0269 183.5,83.5C 183.427,81.9731 184.094,80.9731 185.5,80.5 Z"/></g>
<g><path style="opacity:1" fill="#aeaeae" d="M 39.5,80.5 C 40.871,82.936 41.871,85.6027 42.5,88.5C 40.3455,86.3826 39.3455,83.716 39.5,80.5 Z"/></g>
<g><path style="opacity:1" fill="#838282" d="M 136.5,65.5 C 137.652,70.9846 137.818,76.6513 137,82.5C 136.722,83.4158 136.222,84.0825 135.5,84.5C 136.32,78.2026 136.653,71.8692 136.5,65.5 Z"/></g>
<g><path style="opacity:1" fill="#909191" d="M 72.5,82.5 C 72.573,84.0269 71.9063,85.0269 70.5,85.5C 70.427,83.9731 71.0937,82.9731 72.5,82.5 Z"/></g>
<g><path style="opacity:1" fill="#787777" d="M 86.5,65.5 C 86.3357,72.2022 86.669,78.8689 87.5,85.5C 86.7784,85.0825 86.2784,84.4158 86,83.5C 85.1808,77.3188 85.3475,71.3188 86.5,65.5 Z"/></g>
<g><path style="opacity:1" fill="#bbb9ba" d="M 116.5,81.5 C 116.5,82.5 116.5,83.5 116.5,84.5C 117.833,84.5 119.167,84.5 120.5,84.5C 118.833,85.8333 117.167,85.8333 115.5,84.5C 115.263,83.209 115.596,82.209 116.5,81.5 Z"/></g>
<g><path style="opacity:1" fill="#abaaaa" d="M 255.5,82.5 C 257.583,87.8631 256.249,92.3631 251.5,96C 250.333,96.1667 249.167,96.3333 248,96.5C 246.319,96.3917 245.152,95.7251 244.5,94.5C 252.686,94.8533 256.352,90.8533 255.5,82.5 Z"/></g>
<g><path style="opacity:1" fill="#414041" d="M 302.5,52.5 C 299.927,70.3826 298.927,88.3826 299.5,106.5C 299.167,106.5 298.833,106.5 298.5,106.5C 298.14,89.3995 298.807,72.3995 300.5,55.5C 301.167,54.5 301.833,53.5 302.5,52.5 Z"/></g>
<g><path style="opacity:1" fill="#929292" d="M 70.5,85.5 C 70.573,87.0269 69.9063,88.0269 68.5,88.5C 68.427,86.9731 69.0937,85.9731 70.5,85.5 Z"/></g>
<g><path style="opacity:1" fill="#828181" d="M 183.5,85.5 C 183.204,87.403 182.537,89.0697 181.5,90.5C 181.12,88.302 181.787,86.6354 183.5,85.5 Z"/></g>
<g><path style="opacity:1" fill="#9a9999" d="M 87.5,86.5 C 88.5375,87.9303 89.2041,89.597 89.5,91.5C 87.7868,90.3646 87.1201,88.698 87.5,86.5 Z"/></g>
<g><path style="opacity:1" fill="#a8a8a8" d="M 68.5,88.5 C 67.8333,91.1667 66.1667,92.8333 63.5,93.5C 64.8333,91.5 66.5,89.8333 68.5,88.5 Z"/></g>
<g><path style="opacity:1" fill="#b1b0b0" d="M 135.5,85.5 C 135.969,88.3933 134.969,90.3933 132.5,91.5C 132.992,89.1815 133.992,87.1815 135.5,85.5 Z"/></g>
<g><path style="opacity:1" fill="#a3a3a3" d="M 266.5,86.5 C 267.982,88.8907 269.649,91.2241 271.5,93.5C 268.231,92.4403 266.565,90.1069 266.5,86.5 Z"/></g>
<g><path style="opacity:1" fill="#b2b1b2" d="M 286.5,83.5 C 287.156,84.6216 287.489,85.9549 287.5,87.5C 287.415,89.3328 286.748,90.6661 285.5,91.5C 286.265,88.9039 286.599,86.2372 286.5,83.5 Z"/></g>
<g><path style="opacity:1" fill="#b5b4b5" d="M 42.5,88.5 C 43.6737,89.5137 44.3404,90.847 44.5,92.5C 42.8235,91.8166 42.1568,90.4832 42.5,88.5 Z"/></g>
<g><path style="opacity:1" fill="#979696" d="M 285.5,91.5 C 285.5,92.5 285.5,93.5 285.5,94.5C 281.204,95.4625 276.871,95.6292 272.5,95C 271.944,94.6174 271.611,94.1174 271.5,93.5C 276.586,95.2821 281.252,94.6154 285.5,91.5 Z"/></g>
<g><path style="opacity:1" fill="#c4c3c3" d="M 63.5,93.5 C 62.3933,95.9689 60.3933,96.9689 57.5,96.5C 59.1815,94.9925 61.1815,93.9925 63.5,93.5 Z"/></g>
<g><path style="opacity:1" fill="#b1b0b1" d="M 132.5,91.5 C 132.228,94.7322 130.562,96.7322 127.5,97.5C 129.177,95.4602 130.844,93.4602 132.5,91.5 Z"/></g>
<g><path style="opacity:1" fill="#676767" d="M 94.5,96.5 C 96.0269,96.427 97.0269,97.0937 97.5,98.5C 95.9731,98.573 94.9731,97.9063 94.5,96.5 Z"/></g>
<g><path style="opacity:1" fill="#868585" d="M 180.5,92.5 C 180.307,96.5662 180.64,100.566 181.5,104.5C 180.883,104.389 180.383,104.056 180,103.5C 179.19,99.6425 179.357,95.9758 180.5,92.5 Z"/></g>
<g><path style="opacity:1" fill="#767575" d="M 124.5,98.5 C 122.081,100.862 119.081,101.862 115.5,101.5C 111.958,101.813 108.625,101.479 105.5,100.5C 111.986,100.919 118.319,100.252 124.5,98.5 Z"/></g>
<g><path style="opacity:1" fill="#b4b4b4" d="M 97.5,98.5 C 100.112,99.3705 102.779,100.037 105.5,100.5C 108.625,101.479 111.958,101.813 115.5,101.5C 111.689,102.645 107.689,102.812 103.5,102C 101.121,101.284 99.1209,100.117 97.5,98.5 Z"/></g>
<g><path style="opacity:1" fill="#9b999a" d="M 234.5,87.5 C 235.65,92.3158 235.816,97.3158 235,102.5C 234.241,104.063 233.074,105.063 231.5,105.5C 234.291,99.9419 235.291,93.9419 234.5,87.5 Z"/></g>
<g><path style="opacity:1" fill="#807f80" d="M 319.5,53.5 C 320.662,69.6615 320.828,85.9948 320,102.5C 319.768,103.737 319.268,104.737 318.5,105.5C 319.444,88.1945 319.777,70.8612 319.5,53.5 Z"/></g>
<g><path style="opacity:1" fill="#3c3c3c" d="M 181.5,104.5 C 183.441,104.869 185.275,105.536 187,106.5C 200.538,106.284 214.372,106.284 228.5,106.5C 227.737,107.268 226.737,107.768 225.5,108C 211.833,108.667 198.167,108.667 184.5,108C 183.29,106.961 182.29,105.794 181.5,104.5 Z"/></g>
<g><path style="opacity:1" fill="#8d8c8c" d="M 74.5,107.5 C 76.9664,106.366 79.633,106.199 82.5,107C 83.056,107.383 83.3893,107.883 83.5,108.5C 80.5701,107.701 77.5701,107.368 74.5,107.5 Z"/></g>
<g><path style="opacity:1" fill="#757474" d="M 74.5,107.5 C 73.8333,108.833 72.8333,109.833 71.5,110.5C 71.5,108.5 72.5,107.5 74.5,107.5 Z"/></g>
<g><path style="opacity:1" fill="#1c1a1b" d="M 74.5,107.5 C 77.5701,107.368 80.5701,107.701 83.5,108.5C 85.2516,110.246 86.5849,112.246 87.5,114.5C 87.427,116.027 88.0937,117.027 89.5,117.5C 89.366,119.292 89.6993,120.958 90.5,122.5C 91.3068,128.464 91.6401,134.464 91.5,140.5C 91.4624,145.271 90.7957,149.938 89.5,154.5C 87.5544,155.035 86.5544,156.368 86.5,158.5C 85.0937,158.973 84.427,159.973 84.5,161.5C 82.8333,162.5 81.5,163.833 80.5,165.5C 75.8018,166.778 71.1352,166.778 66.5,165.5C 66.0269,164.094 65.0269,163.427 63.5,163.5C 62.7611,163.631 62.0944,163.464 61.5,163C 56.8955,158.898 52.8955,154.398 49.5,149.5C 49.573,147.973 48.9063,146.973 47.5,146.5C 47.3404,144.847 46.6737,143.514 45.5,142.5C 45.2041,140.597 44.5375,138.93 43.5,137.5C 43.4828,135.435 43.1495,133.435 42.5,131.5C 42.335,128.15 42.5017,124.817 43,121.5C 44.8484,118.959 47.3484,117.959 50.5,118.5C 52.1667,119.833 53.8333,121.167 55.5,122.5C 57.5595,125.24 59.2262,128.24 60.5,131.5C 60.427,133.027 61.0937,134.027 62.5,134.5C 64.0627,135.945 65.396,137.611 66.5,139.5C 67.5676,140.434 68.901,140.768 70.5,140.5C 70.8168,136.298 70.4834,132.298 69.5,128.5C 69.5,128.167 69.5,127.833 69.5,127.5C 69.3921,122.13 69.7255,116.797 70.5,111.5C 70.5,110.833 70.8333,110.5 71.5,110.5C 72.8333,109.833 73.8333,108.833 74.5,107.5 Z"/></g>
<g><path style="opacity:1" fill="#aaaaaa" d="M 298.5,106.5 C 298.833,106.5 299.167,106.5 299.5,106.5C 299.629,108.216 299.962,109.883 300.5,111.5C 298.787,110.365 298.12,108.698 298.5,106.5 Z"/></g>
<g><path style="opacity:1" fill="#a3a3a3" d="M 318.5,106.5 C 318.88,108.698 318.213,110.365 316.5,111.5C 316.796,109.597 317.463,107.93 318.5,106.5 Z"/></g>
<g><path style="opacity:1" fill="#2e2c2d" d="M 336.5,108.5 C 337.244,111.95 335.91,113.616 332.5,113.5C 330.623,112.341 330.123,110.674 331,108.5C 332.943,107.193 334.777,107.193 336.5,108.5 Z"/></g>
<g><path style="opacity:1" fill="#9e9d9d" d="M 104.5,113.5 C 106.966,112.366 109.633,112.199 112.5,113C 113.056,113.383 113.389,113.883 113.5,114.5C 110.57,113.701 107.57,113.368 104.5,113.5 Z"/></g>
<g><path style="opacity:1" fill="#afaeaf" d="M 300.5,112.5 C 302.167,113.5 303.5,114.833 304.5,116.5C 302.167,116.167 300.833,114.833 300.5,112.5 Z"/></g>
<g><path style="opacity:1" fill="#969495" d="M 336.5,108.5 C 337.613,109.946 337.78,111.613 337,113.5C 335.384,114.801 333.884,114.801 332.5,113.5C 335.91,113.616 337.244,111.95 336.5,108.5 Z"/></g>
<g><path style="opacity:1" fill="#1f1e1f" d="M 104.5,113.5 C 107.57,113.368 110.57,113.701 113.5,114.5C 116.021,117.43 117.021,120.93 116.5,125C 115.707,136.221 114.707,147.388 113.5,158.5C 112.076,160.515 111.41,162.848 111.5,165.5C 110.778,170.333 108.778,174.499 105.5,178C 103.613,178.78 101.946,178.613 100.5,177.5C 99.3077,175.887 98.3077,174.22 97.5,172.5C 97.5,168.167 97.5,163.833 97.5,159.5C 98.8631,149.362 99.5298,139.029 99.5,128.5C 99.185,124.629 99.5184,120.962 100.5,117.5C 102.167,116.5 103.5,115.167 104.5,113.5 Z"/></g>
<g><path style="opacity:1" fill="#8c8a8b" d="M 104.5,113.5 C 103.5,115.167 102.167,116.5 100.5,117.5C 100.833,115.167 102.167,113.833 104.5,113.5 Z"/></g>
<g><path style="opacity:1" fill="#c5c4c5" d="M 316.5,111.5 C 316.33,114.204 314.997,115.871 312.5,116.5C 313.604,114.611 314.937,112.945 316.5,111.5 Z"/></g>
<g><path style="opacity:1" fill="#8f8f8f" d="M 87.5,114.5 C 88.9063,114.973 89.573,115.973 89.5,117.5C 88.0937,117.027 87.427,116.027 87.5,114.5 Z"/></g>
<g><path style="opacity:1" fill="#676767" d="M 50.5,117.5 C 50.5,117.833 50.5,118.167 50.5,118.5C 47.3484,117.959 44.8484,118.959 43,121.5C 42.5017,124.817 42.335,128.15 42.5,131.5C 42.1667,131.5 41.8333,131.5 41.5,131.5C 41.3347,127.818 41.5014,124.152 42,120.5C 44.1962,117.875 47.0295,116.875 50.5,117.5 Z"/></g>
<g><path style="opacity:1" fill="#b9b9b9" d="M 50.5,118.5 C 50.5,118.167 50.5,117.833 50.5,117.5C 53.1667,118.167 54.8333,119.833 55.5,122.5C 53.8333,121.167 52.1667,119.833 50.5,118.5 Z"/></g>
<g><path style="opacity:1" fill="#929292" d="M 70.5,111.5 C 69.7255,116.797 69.3921,122.13 69.5,127.5C 68.3516,123.019 68.1849,118.352 69,113.5C 69.2784,112.584 69.7784,111.918 70.5,111.5 Z"/></g>
<g><path style="opacity:1" fill="#727172" d="M 282.5,119.5 C 280.473,119.338 278.473,119.505 276.5,120C 275.295,121.376 273.962,122.542 272.5,123.5C 274.431,118.653 277.764,117.32 282.5,119.5 Z"/></g>
<g><path style="opacity:1" fill="#1b1a1a" d="M 282.5,119.5 C 284.262,120.262 285.262,121.596 285.5,123.5C 285.334,132.839 285.5,142.173 286,151.5C 285.97,154.361 286.803,156.695 288.5,158.5C 288.833,158.5 289.167,158.5 289.5,158.5C 291.023,161.364 293.357,163.031 296.5,163.5C 298.102,165.074 300.102,165.741 302.5,165.5C 305.345,166.344 308.345,167.01 311.5,167.5C 312.605,168.6 313.938,169.267 315.5,169.5C 316.833,171.5 318.5,173.167 320.5,174.5C 320.5,175.167 320.5,175.833 320.5,176.5C 321.258,181.271 319.925,185.271 316.5,188.5C 310.348,190.312 304.015,190.979 297.5,190.5C 296.833,190.5 296.167,190.5 295.5,190.5C 293.485,189.076 291.152,188.41 288.5,188.5C 287.167,188.167 285.833,187.833 284.5,187.5C 283.167,187.167 281.833,186.833 280.5,186.5C 280.027,185.094 279.027,184.427 277.5,184.5C 276.167,183.5 274.833,182.5 273.5,181.5C 273.443,180.391 273.11,179.391 272.5,178.5C 271.612,164.522 271.278,150.522 271.5,136.5C 271.5,133.167 271.5,129.833 271.5,126.5C 271.263,125.209 271.596,124.209 272.5,123.5C 273.962,122.542 275.295,121.376 276.5,120C 278.473,119.505 280.473,119.338 282.5,119.5 Z"/></g>
<g><path style="opacity:1" fill="#c5c5c5" d="M 144.5,124.5 C 148.019,124.259 150.685,125.593 152.5,128.5C 150.685,127.37 148.685,126.704 146.5,126.5C 145.833,125.833 145.167,125.167 144.5,124.5 Z"/></g>
<g><path style="opacity:1" fill="#3f3d3e" d="M 144.5,124.5 C 145.167,125.167 145.833,125.833 146.5,126.5C 140.252,125.978 134.252,126.645 128.5,128.5C 129.343,126.827 130.676,125.66 132.5,125C 136.486,124.501 140.486,124.334 144.5,124.5 Z"/></g>
<g><path style="opacity:1" fill="#1c1a1b" d="M 146.5,126.5 C 148.685,126.704 150.685,127.37 152.5,128.5C 153.514,129.674 154.847,130.34 156.5,130.5C 156.973,131.906 157.973,132.573 159.5,132.5C 160.833,134.5 162.5,136.167 164.5,137.5C 165.338,137.842 165.672,138.508 165.5,139.5C 165.685,141.196 166.519,142.529 168,143.5C 168.498,146.482 168.665,149.482 168.5,152.5C 167.167,153.167 166.167,154.167 165.5,155.5C 164.005,155.415 163.005,156.081 162.5,157.5C 165.246,161.74 166.579,166.407 166.5,171.5C 166.5,172.167 166.5,172.833 166.5,173.5C 165.094,173.973 164.427,174.973 164.5,176.5C 163.167,177.167 162.167,178.167 161.5,179.5C 159.456,180.508 157.456,181.508 155.5,182.5C 150.797,182.563 146.13,182.229 141.5,181.5C 141.027,180.094 140.027,179.427 138.5,179.5C 136.544,178.508 134.544,177.508 132.5,176.5C 132.027,175.094 131.027,174.427 129.5,174.5C 127.833,173.167 126.167,171.833 124.5,170.5C 124.573,168.973 123.906,167.973 122.5,167.5C 122.573,165.973 121.906,164.973 120.5,164.5C 120.5,164.167 120.5,163.833 120.5,163.5C 120.5,162.833 120.5,162.167 120.5,161.5C 119.589,156.633 120.922,152.633 124.5,149.5C 126.179,149.715 127.179,149.048 127.5,147.5C 125.683,142.759 125.016,137.759 125.5,132.5C 127.262,131.738 128.262,130.404 128.5,128.5C 134.252,126.645 140.252,125.978 146.5,126.5 Z"/></g>
<g><path style="opacity:1" fill="#2f2d2e" d="M 285.5,123.5 C 286.404,124.209 286.737,125.209 286.5,126.5C 286.059,137.269 286.726,147.936 288.5,158.5C 286.803,156.695 285.97,154.361 286,151.5C 285.5,142.173 285.334,132.839 285.5,123.5 Z"/></g>
<g><path style="opacity:1" fill="#888788" d="M 90.5,122.5 C 91.2679,123.263 91.7679,124.263 92,125.5C 92.4993,130.489 92.6659,135.489 92.5,140.5C 92.1667,140.5 91.8333,140.5 91.5,140.5C 91.6401,134.464 91.3068,128.464 90.5,122.5 Z"/></g>
<g><path style="opacity:1" fill="#cfcdce" d="M 209.5,132.5 C 208.391,132.443 207.391,132.11 206.5,131.5C 204.393,130.532 202.059,130.198 199.5,130.5C 203.438,127.492 206.772,128.158 209.5,132.5 Z"/></g>
<g><path style="opacity:1" fill="#6c6c6c" d="M 128.5,128.5 C 128.262,130.404 127.262,131.738 125.5,132.5C 125.738,130.596 126.738,129.262 128.5,128.5 Z"/></g>
<g><path style="opacity:1" fill="#525051" d="M 199.5,130.5 C 202.059,130.198 204.393,130.532 206.5,131.5C 203.721,131.279 201.054,131.612 198.5,132.5C 198.328,131.508 198.662,130.842 199.5,130.5 Z"/></g>
<g><path style="opacity:1" fill="#a8a8a8" d="M 156.5,130.5 C 158.027,130.427 159.027,131.094 159.5,132.5C 157.973,132.573 156.973,131.906 156.5,130.5 Z"/></g>
<g><path style="opacity:1" fill="#aeaeae" d="M 159.5,132.5 C 162.167,133.167 163.833,134.833 164.5,137.5C 162.5,136.167 160.833,134.5 159.5,132.5 Z"/></g>
<g><path style="opacity:1" fill="#1d1c1d" d="M 180.5,131.5 C 184.946,131.056 188.279,132.723 190.5,136.5C 190.334,144.174 190.5,151.841 191,159.5C 191.198,161.382 191.698,163.048 192.5,164.5C 193.338,164.842 193.672,165.508 193.5,166.5C 195.863,168.002 198.03,167.668 200,165.5C 200.879,161.523 200.379,157.856 198.5,154.5C 198.46,151.012 197.793,147.679 196.5,144.5C 196.191,140.295 196.857,136.295 198.5,132.5C 201.054,131.612 203.721,131.279 206.5,131.5C 207.391,132.11 208.391,132.443 209.5,132.5C 209.833,133.167 210.167,133.833 210.5,134.5C 210.427,136.027 211.094,137.027 212.5,137.5C 212.875,139.698 213.542,141.698 214.5,143.5C 215.054,150.153 215.388,156.82 215.5,163.5C 215.736,166.609 215.403,169.609 214.5,172.5C 212.926,174.102 212.259,176.102 212.5,178.5C 212.443,179.609 212.11,180.609 211.5,181.5C 210.094,181.973 209.427,182.973 209.5,184.5C 208.833,184.5 208.5,184.833 208.5,185.5C 203.51,188.07 198.176,189.07 192.5,188.5C 192.167,188.5 191.833,188.5 191.5,188.5C 191.027,187.094 190.027,186.427 188.5,186.5C 186.246,185.585 184.246,184.252 182.5,182.5C 182.573,180.973 181.906,179.973 180.5,179.5C 180.573,177.973 179.906,176.973 178.5,176.5C 178.167,175.167 177.833,173.833 177.5,172.5C 177.741,170.102 177.074,168.102 175.5,166.5C 175.172,155.986 175.506,145.653 176.5,135.5C 178.167,134.5 179.5,133.167 180.5,131.5 Z"/></g>
<g><path style="opacity:1" fill="#5c5a5b" d="M 60.5,131.5 C 61.9063,131.973 62.573,132.973 62.5,134.5C 61.0937,134.027 60.427,133.027 60.5,131.5 Z"/></g>
<g><path style="opacity:1" fill="#858585" d="M 180.5,131.5 C 179.5,133.167 178.167,134.5 176.5,135.5C 176.833,133.167 178.167,131.833 180.5,131.5 Z"/></g>
<g><path style="opacity:1" fill="#6a6a6a" d="M 69.5,128.5 C 70.4834,132.298 70.8168,136.298 70.5,140.5C 68.901,140.768 67.5676,140.434 66.5,139.5C 67.5,139.5 68.5,139.5 69.5,139.5C 69.5,135.833 69.5,132.167 69.5,128.5 Z"/></g>
<g><path style="opacity:1" fill="#c8c8c8" d="M 271.5,126.5 C 271.5,129.833 271.5,133.167 271.5,136.5C 270.506,146.653 270.172,156.986 270.5,167.5C 269.834,162.01 269.501,156.343 269.5,150.5C 269.302,142.274 269.969,134.274 271.5,126.5 Z"/></g>
<g><path style="opacity:1" fill="#969596" d="M 41.5,131.5 C 41.8333,131.5 42.1667,131.5 42.5,131.5C 43.1495,133.435 43.4828,135.435 43.5,137.5C 41.9261,135.898 41.2594,133.898 41.5,131.5 Z"/></g>
<g><path style="opacity:1" fill="#777677" d="M 210.5,134.5 C 211.906,134.973 212.573,135.973 212.5,137.5C 211.094,137.027 210.427,136.027 210.5,134.5 Z"/></g>
<g><path style="opacity:1" fill="#696868" d="M 198.5,132.5 C 196.857,136.295 196.191,140.295 196.5,144.5C 195.359,141.36 195.192,138.027 196,134.5C 196.417,133.244 197.25,132.577 198.5,132.5 Z"/></g>
<g><path style="opacity:1" fill="#979797" d="M 234.5,137.5 C 236.966,136.366 239.633,136.199 242.5,137C 243.056,137.383 243.389,137.883 243.5,138.5C 241.236,137.781 238.903,137.448 236.5,137.5C 235.833,137.5 235.167,137.5 234.5,137.5 Z"/></g>
<g><path style="opacity:1" fill="#4a4a4a" d="M 234.5,137.5 C 235.167,137.5 235.833,137.5 236.5,137.5C 234.75,138.87 232.75,139.87 230.5,140.5C 231.035,138.554 232.368,137.554 234.5,137.5 Z"/></g>
<g><path style="opacity:1" fill="#1b191a" d="M 236.5,137.5 C 238.903,137.448 241.236,137.781 243.5,138.5C 245.219,140.544 246.886,142.544 248.5,144.5C 248.738,146.404 249.738,147.738 251.5,148.5C 253.341,150.849 254.674,153.515 255.5,156.5C 255.427,158.027 256.094,159.027 257.5,159.5C 257.5,160.167 257.5,160.833 257.5,161.5C 257.427,163.027 258.094,164.027 259.5,164.5C 261.504,170.178 263.504,175.845 265.5,181.5C 265.427,183.027 266.094,184.027 267.5,184.5C 267.5,184.833 267.5,185.167 267.5,185.5C 267.796,187.403 268.463,189.07 269.5,190.5C 269.5,193.833 269.5,197.167 269.5,200.5C 267.987,204.352 265.154,206.685 261,207.5C 256.935,206.646 253.102,205.313 249.5,203.5C 249.167,203.5 248.833,203.5 248.5,203.5C 245.66,202.083 242.993,202.416 240.5,204.5C 238.973,204.427 237.973,205.094 237.5,206.5C 233.419,208.526 229.085,209.526 224.5,209.5C 223.508,209.672 222.842,209.338 222.5,208.5C 221.833,207.5 221.167,206.5 220.5,205.5C 220.5,199.833 220.5,194.167 220.5,188.5C 220.5,188.167 220.5,187.833 220.5,187.5C 221.889,182.731 222.556,177.731 222.5,172.5C 222.5,171.167 222.5,169.833 222.5,168.5C 224.875,163.911 225.875,158.911 225.5,153.5C 226.301,151.958 226.634,150.292 226.5,148.5C 226.216,146.585 226.549,144.919 227.5,143.5C 228.833,142.833 229.833,141.833 230.5,140.5C 232.75,139.87 234.75,138.87 236.5,137.5 Z"/></g>
<g><path style="opacity:1" fill="#cacaca" d="M 243.5,138.5 C 247.167,139.5 249.5,141.833 250.5,145.5C 249.833,145.167 249.167,144.833 248.5,144.5C 246.886,142.544 245.219,140.544 243.5,138.5 Z"/></g>
<g><path style="opacity:1" fill="#cacaca" d="M 286.5,126.5 C 288.24,136.815 289.24,147.482 289.5,158.5C 289.167,158.5 288.833,158.5 288.5,158.5C 286.726,147.936 286.059,137.269 286.5,126.5 Z"/></g>
<g><path style="opacity:1" fill="#a09fa0" d="M 43.5,137.5 C 44.5375,138.93 45.2041,140.597 45.5,142.5C 43.7868,141.365 43.1201,139.698 43.5,137.5 Z"/></g>
<g><path style="opacity:1" fill="#818081" d="M 230.5,140.5 C 229.833,141.833 228.833,142.833 227.5,143.5C 227.5,141.5 228.5,140.5 230.5,140.5 Z"/></g>
<g><path style="opacity:1" fill="#bdbbbc" d="M 190.5,136.5 C 191.476,145.66 192.143,154.994 192.5,164.5C 191.698,163.048 191.198,161.382 191,159.5C 190.5,151.841 190.334,144.174 190.5,136.5 Z"/></g>
<g><path style="opacity:1" fill="#9f9e9f" d="M 125.5,132.5 C 125.016,137.759 125.683,142.759 127.5,147.5C 126.542,147.047 125.708,146.381 125,145.5C 124.186,140.98 124.353,136.646 125.5,132.5 Z"/></g>
<g><path style="opacity:1" fill="#686667" d="M 165.5,139.5 C 166.794,140.29 167.961,141.29 169,142.5C 169.808,146.027 169.641,149.36 168.5,152.5C 168.665,149.482 168.498,146.482 168,143.5C 166.519,142.529 165.685,141.196 165.5,139.5 Z"/></g>
<g><path style="opacity:1" fill="#969696" d="M 99.5,128.5 C 99.5298,139.029 98.8631,149.362 97.5,159.5C 97.5,157.167 97.5,154.833 97.5,152.5C 97.4125,144.291 98.0792,136.291 99.5,128.5 Z"/></g>
<g><path style="opacity:1" fill="#676767" d="M 248.5,144.5 C 249.167,144.833 249.833,145.167 250.5,145.5C 251.11,146.391 251.443,147.391 251.5,148.5C 249.738,147.738 248.738,146.404 248.5,144.5 Z"/></g>
<g><path style="opacity:1" fill="#b0b0b0" d="M 47.5,146.5 C 48.9063,146.973 49.573,147.973 49.5,149.5C 48.0937,149.027 47.427,148.027 47.5,146.5 Z"/></g>
<g><path style="opacity:1" fill="#c0bfc0" d="M 91.5,140.5 C 91.8333,140.5 92.1667,140.5 92.5,140.5C 92.9561,145.596 91.9561,150.262 89.5,154.5C 90.7957,149.938 91.4624,145.271 91.5,140.5 Z"/></g>
<g><path style="opacity:1" fill="#797878" d="M 124.5,149.5 C 120.922,152.633 119.589,156.633 120.5,161.5C 119.527,159.052 119.194,156.385 119.5,153.5C 120.585,151.413 122.251,150.08 124.5,149.5 Z"/></g>
<g><path style="opacity:1" fill="#979697" d="M 226.5,148.5 C 226.634,150.292 226.301,151.958 225.5,153.5C 225.167,153.5 224.833,153.5 224.5,153.5C 224.12,151.302 224.787,149.635 226.5,148.5 Z"/></g>
<g><path style="opacity:1" fill="#969596" d="M 168.5,152.5 C 168.5,154.5 167.5,155.5 165.5,155.5C 166.167,154.167 167.167,153.167 168.5,152.5 Z"/></g>
<g><path style="opacity:1" fill="#555455" d="M 271.5,136.5 C 271.278,150.522 271.612,164.522 272.5,178.5C 271.833,177.5 271.167,176.5 270.5,175.5C 270.5,172.833 270.5,170.167 270.5,167.5C 270.172,156.986 270.506,146.653 271.5,136.5 Z"/></g>
<g><path style="opacity:1" fill="#8f8e8f" d="M 214.5,143.5 C 216.543,150.102 216.877,156.769 215.5,163.5C 215.388,156.82 215.054,150.153 214.5,143.5 Z"/></g>
<g><path style="opacity:1" fill="#c5c4c5" d="M 119.5,153.5 C 119.194,156.385 119.527,159.052 120.5,161.5C 120.5,162.167 120.5,162.833 120.5,163.5C 119.883,163.389 119.383,163.056 119,162.5C 118.195,159.304 118.362,156.304 119.5,153.5 Z"/></g>
<g><path style="opacity:1" fill="#828081" d="M 150.5,157.5 C 149.749,156.427 148.749,156.26 147.5,157C 146.209,158.292 146.209,159.458 147.5,160.5C 146.003,161.306 144.336,161.972 142.5,162.5C 141.614,161.675 141.281,160.675 141.5,159.5C 143.598,160.914 144.598,160.248 144.5,157.5C 143.5,157.5 142.5,157.5 141.5,157.5C 142.278,156.844 142.944,156.011 143.5,155C 142.394,153.118 142.394,151.284 143.5,149.5C 145.012,150.991 146.012,152.824 146.5,155C 148.433,155.783 149.933,155.283 151,153.5C 151.765,155.066 151.598,156.399 150.5,157.5 Z"/></g>
<g><path style="opacity:1" fill="#b9b8b9" d="M 89.5,154.5 C 89.4456,156.632 88.4456,157.965 86.5,158.5C 86.5544,156.368 87.5544,155.035 89.5,154.5 Z"/></g>
<g><path style="opacity:1" fill="#cbcaca" d="M 141.5,157.5 C 142.5,157.5 143.5,157.5 144.5,157.5C 144.598,160.248 143.598,160.914 141.5,159.5C 141.5,158.833 141.5,158.167 141.5,157.5 Z"/></g>
<g><path style="opacity:1" fill="#b9b8b8" d="M 150.5,157.5 C 149.728,158.694 148.728,159.694 147.5,160.5C 146.209,159.458 146.209,158.292 147.5,157C 148.749,156.26 149.749,156.427 150.5,157.5 Z"/></g>
<g><path style="opacity:1" fill="#a7a8a8" d="M 255.5,156.5 C 256.906,156.973 257.573,157.973 257.5,159.5C 256.094,159.027 255.427,158.027 255.5,156.5 Z"/></g>
<g><path style="opacity:1" fill="#8d8c8c" d="M 86.5,158.5 C 86.573,160.027 85.9063,161.027 84.5,161.5C 84.427,159.973 85.0937,158.973 86.5,158.5 Z"/></g>
<g><path style="opacity:1" fill="#858485" d="M 198.5,154.5 C 200.379,157.856 200.879,161.523 200,165.5C 198.03,167.668 195.863,168.002 193.5,166.5C 195.766,166.859 197.599,166.192 199,164.5C 199.388,161.151 199.221,157.817 198.5,154.5 Z"/></g>
<g><path style="opacity:1" fill="#5e5d5d" d="M 224.5,153.5 C 224.833,153.5 225.167,153.5 225.5,153.5C 225.875,158.911 224.875,163.911 222.5,168.5C 222.44,163.307 223.107,158.307 224.5,153.5 Z"/></g>
<g><path style="opacity:1" fill="#a7a7a7" d="M 84.5,161.5 C 84.1667,163.833 82.8333,165.167 80.5,165.5C 81.5,163.833 82.8333,162.5 84.5,161.5 Z"/></g>
<g><path style="opacity:1" fill="#939293" d="M 257.5,161.5 C 258.906,161.973 259.573,162.973 259.5,164.5C 258.094,164.027 257.427,163.027 257.5,161.5 Z"/></g>
<g><path style="opacity:1" fill="#686768" d="M 63.5,163.5 C 65.0269,163.427 66.0269,164.094 66.5,165.5C 64.9731,165.573 63.9731,164.906 63.5,163.5 Z"/></g>
<g><path style="opacity:1" fill="#929192" d="M 113.5,158.5 C 113.59,161.152 112.924,163.485 111.5,165.5C 111.41,162.848 112.076,160.515 113.5,158.5 Z"/></g>
<g><path style="opacity:1" fill="#b8b7b8" d="M 296.5,163.5 C 298.898,163.259 300.898,163.926 302.5,165.5C 300.102,165.741 298.102,165.074 296.5,163.5 Z"/></g>
<g><path style="opacity:1" fill="#c8c7c8" d="M 302.5,165.5 C 305.187,165.336 307.854,165.503 310.5,166C 311.056,166.383 311.389,166.883 311.5,167.5C 308.345,167.01 305.345,166.344 302.5,165.5 Z"/></g>
<g><path style="opacity:1" fill="#acacac" d="M 120.5,164.5 C 121.906,164.973 122.573,165.973 122.5,167.5C 121.094,167.027 120.427,166.027 120.5,164.5 Z"/></g>
<g><path style="opacity:1" fill="#979696" d="M 165.5,155.5 C 165.018,156.416 164.685,157.416 164.5,158.5C 166.341,161.19 167.341,164.19 167.5,167.5C 167.489,169.045 167.156,170.378 166.5,171.5C 166.579,166.407 165.246,161.74 162.5,157.5C 163.005,156.081 164.005,155.415 165.5,155.5 Z"/></g>
<g><path style="opacity:1" fill="#c3c3c3" d="M 97.5,152.5 C 97.5,154.833 97.5,157.167 97.5,159.5C 97.5,163.833 97.5,168.167 97.5,172.5C 96.8826,172.389 96.3826,172.056 96,171.5C 95.3399,164.944 95.8399,158.61 97.5,152.5 Z"/></g>
<g><path style="opacity:1" fill="#afaeae" d="M 122.5,167.5 C 123.906,167.973 124.573,168.973 124.5,170.5C 123.094,170.027 122.427,169.027 122.5,167.5 Z"/></g>
<g><path style="opacity:1" fill="#a9a9a9" d="M 315.5,169.5 C 318.167,170.167 319.833,171.833 320.5,174.5C 318.5,173.167 316.833,171.5 315.5,169.5 Z"/></g>
<g><path style="opacity:1" fill="#d3d3d2" d="M -0.5,8.5 C 0.20525,29.511 0.871917,50.6777 1.5,72C 0.204615,117.342 0.204615,162.675 1.5,208C 0.949587,211.324 0.28292,214.491 -0.5,217.5C -0.5,147.833 -0.5,78.1667 -0.5,8.5 Z"/></g>
<g><path style="opacity:1" fill="#adabac" d="M 175.5,166.5 C 177.074,168.102 177.741,170.102 177.5,172.5C 175.926,170.898 175.259,168.898 175.5,166.5 Z"/></g>
<g><path style="opacity:1" fill="#9d9d9d" d="M 97.5,172.5 C 98.3077,174.22 99.3077,175.887 100.5,177.5C 97.9162,176.952 96.9162,175.285 97.5,172.5 Z"/></g>
<g><path style="opacity:1" fill="#5d5d5d" d="M 129.5,174.5 C 131.027,174.427 132.027,175.094 132.5,176.5C 130.973,176.573 129.973,175.906 129.5,174.5 Z"/></g>
<g><path style="opacity:1" fill="#817f81" d="M 166.5,173.5 C 166.573,175.027 165.906,176.027 164.5,176.5C 164.427,174.973 165.094,173.973 166.5,173.5 Z"/></g>
<g><path style="opacity:1" fill="#737273" d="M 132.5,176.5 C 134.544,177.508 136.544,178.508 138.5,179.5C 135.687,179.975 133.687,178.975 132.5,176.5 Z"/></g>
<g><path style="opacity:1" fill="#7f7e7e" d="M 214.5,172.5 C 214.741,174.898 214.074,176.898 212.5,178.5C 212.259,176.102 212.926,174.102 214.5,172.5 Z"/></g>
<g><path style="opacity:1" fill="#969596" d="M 164.5,176.5 C 164.5,178.5 163.5,179.5 161.5,179.5C 162.167,178.167 163.167,177.167 164.5,176.5 Z"/></g>
<g><path style="opacity:1" fill="#aaa9a9" d="M 178.5,176.5 C 179.906,176.973 180.573,177.973 180.5,179.5C 179.094,179.027 178.427,178.027 178.5,176.5 Z"/></g>
<g><path style="opacity:1" fill="#c9c8c9" d="M 270.5,175.5 C 271.167,176.5 271.833,177.5 272.5,178.5C 273.11,179.391 273.443,180.391 273.5,181.5C 271.025,180.313 270.025,178.313 270.5,175.5 Z"/></g>
<g><path style="opacity:1" fill="#c0bfc0" d="M 320.5,174.5 C 322.026,175.492 322.693,176.992 322.5,179C 322.486,180.385 322.152,181.551 321.5,182.5C 321.795,180.265 321.461,178.265 320.5,176.5C 320.5,175.833 320.5,175.167 320.5,174.5 Z"/></g>
<g><path style="opacity:1" fill="#595758" d="M 221.5,172.5 C 221.833,172.5 222.167,172.5 222.5,172.5C 222.556,177.731 221.889,182.731 220.5,187.5C 220.751,182.493 221.084,177.493 221.5,172.5 Z"/></g>
<g><path style="opacity:1" fill="#9e9d9e" d="M 138.5,179.5 C 140.027,179.427 141.027,180.094 141.5,181.5C 139.973,181.573 138.973,180.906 138.5,179.5 Z"/></g>
<g><path style="opacity:1" fill="#a5a4a5" d="M 180.5,179.5 C 181.906,179.973 182.573,180.973 182.5,182.5C 181.094,182.027 180.427,181.027 180.5,179.5 Z"/></g>
<g><path style="opacity:1" fill="#c2c2c2" d="M 161.5,179.5 C 160.313,181.975 158.313,182.975 155.5,182.5C 157.456,181.508 159.456,180.508 161.5,179.5 Z"/></g>
<g><path style="opacity:1" fill="#9d9b9c" d="M 211.5,181.5 C 211.573,183.027 210.906,184.027 209.5,184.5C 209.427,182.973 210.094,181.973 211.5,181.5 Z"/></g>
<g><path style="opacity:1" fill="#797979" d="M 265.5,181.5 C 266.906,181.973 267.573,182.973 267.5,184.5C 266.094,184.027 265.427,183.027 265.5,181.5 Z"/></g>
<g><path style="opacity:1" fill="#7d7c7d" d="M 320.5,176.5 C 321.461,178.265 321.795,180.265 321.5,182.5C 321.228,185.732 319.562,187.732 316.5,188.5C 319.925,185.271 321.258,181.271 320.5,176.5 Z"/></g>
<g><path style="opacity:1" fill="#908f90" d="M 277.5,184.5 C 279.027,184.427 280.027,185.094 280.5,186.5C 278.973,186.573 277.973,185.906 277.5,184.5 Z"/></g>
<g><path style="opacity:1" fill="#7c7c7c" d="M 188.5,186.5 C 190.027,186.427 191.027,187.094 191.5,188.5C 189.973,188.573 188.973,187.906 188.5,186.5 Z"/></g>
<g><path style="opacity:1" fill="#a8a6a7" d="M 267.5,185.5 C 269.213,186.635 269.88,188.302 269.5,190.5C 268.463,189.07 267.796,187.403 267.5,185.5 Z"/></g>
<g><path style="opacity:1" fill="#cecece" d="M 208.5,185.5 C 208.063,187.074 207.063,188.241 205.5,189C 200.98,189.814 196.646,189.647 192.5,188.5C 198.176,189.07 203.51,188.07 208.5,185.5 Z"/></g>
<g><path style="opacity:1" fill="#b0afb0" d="M 284.5,187.5 C 285.833,187.833 287.167,188.167 288.5,188.5C 288.5,188.833 288.5,189.167 288.5,189.5C 286.62,189.771 285.287,189.104 284.5,187.5 Z"/></g>
<g><path style="opacity:1" fill="#d1d0d1" d="M 221.5,172.5 C 221.084,177.493 220.751,182.493 220.5,187.5C 220.5,187.833 220.5,188.167 220.5,188.5C 219.291,192.618 218.624,196.951 218.5,201.5C 217.848,200.551 217.514,199.385 217.5,198C 218.621,190.532 219.454,183.032 220,175.5C 220.232,174.263 220.732,173.263 221.5,172.5 Z"/></g>
<g><path style="opacity:1" fill="#5a5859" d="M 288.5,189.5 C 288.5,189.167 288.5,188.833 288.5,188.5C 291.152,188.41 293.485,189.076 295.5,190.5C 293.139,190.326 290.806,189.993 288.5,189.5 Z"/></g>
<g><path style="opacity:1" fill="#a1a0a1" d="M 316.5,188.5 C 316.119,189.931 315.119,190.764 313.5,191C 307.984,191.817 302.65,191.651 297.5,190.5C 304.015,190.979 310.348,190.312 316.5,188.5 Z"/></g>
<g><path style="opacity:1" fill="#4f4e4e" d="M 220.5,188.5 C 220.5,194.167 220.5,199.833 220.5,205.5C 219.833,204.5 219.167,203.5 218.5,202.5C 218.5,202.167 218.5,201.833 218.5,201.5C 218.624,196.951 219.291,192.618 220.5,188.5 Z"/></g>
<g><path style="opacity:1" fill="#1c1a1b" d="M 121.5,195.5 C 129.004,194.912 134.337,197.912 137.5,204.5C 137.427,206.027 138.094,207.027 139.5,207.5C 139.755,209.967 140.755,211.967 142.5,213.5C 143.167,215.5 143.833,217.5 144.5,219.5C 144.796,221.403 145.463,223.07 146.5,224.5C 147.301,226.042 147.634,227.708 147.5,229.5C 148.292,235.13 148.625,240.797 148.5,246.5C 148.5,247.167 148.5,247.833 148.5,248.5C 147.5,249.167 146.5,249.833 145.5,250.5C 143.076,250.808 140.743,250.474 138.5,249.5C 137.812,248.145 136.812,247.145 135.5,246.5C 134.791,245.596 133.791,245.263 132.5,245.5C 132.893,248.513 132.226,251.18 130.5,253.5C 126.175,255.508 122.842,254.508 120.5,250.5C 120.771,248.62 120.104,247.287 118.5,246.5C 117.677,243.539 117.01,240.539 116.5,237.5C 116.116,232.99 115.449,228.657 114.5,224.5C 114.5,217.833 114.5,211.167 114.5,204.5C 114.263,203.209 114.596,202.209 115.5,201.5C 117.833,199.833 119.833,197.833 121.5,195.5 Z"/></g>
<g><path style="opacity:1" fill="#1d1b1c" d="M 89.5,196.5 C 91.5041,197.673 93.0041,199.34 94,201.5C 94.2116,211.166 94.0449,220.832 93.5,230.5C 93.0311,233.393 94.0311,235.393 96.5,236.5C 96.8333,236.5 97.1667,236.5 97.5,236.5C 97.9731,237.906 98.9731,238.573 100.5,238.5C 104.783,239.938 109.116,241.272 113.5,242.5C 116.076,244.888 117.076,247.888 116.5,251.5C 115.167,253.5 113.833,255.5 112.5,257.5C 110.326,257.75 108.659,258.75 107.5,260.5C 105.901,260.232 104.568,260.566 103.5,261.5C 98.6734,261.779 94.0068,261.113 89.5,259.5C 89.1667,259.5 88.8333,259.5 88.5,259.5C 86.5293,257.192 84.5293,254.858 82.5,252.5C 82.3184,250.409 82.6518,248.409 83.5,246.5C 82.4783,245.646 81.6449,244.646 81,243.5C 80.5004,236.508 80.3337,229.508 80.5,222.5C 80.3337,215.159 80.5003,207.826 81,200.5C 82.894,197.156 85.7273,195.822 89.5,196.5 Z"/></g>
<g><path style="opacity:1" fill="#626161" d="M 121.5,195.5 C 119.833,197.833 117.833,199.833 115.5,201.5C 116.5,198.5 118.5,196.5 121.5,195.5 Z"/></g>
<g><path style="opacity:1" fill="#696869" d="M 181.5,202.5 C 184.228,202.171 186.562,202.837 188.5,204.5C 185.933,204.279 183.599,203.612 181.5,202.5 Z"/></g>
<g><path style="opacity:1" fill="#1b191a" d="M 172.5,201.5 C 175.391,202.403 178.391,202.736 181.5,202.5C 183.599,203.612 185.933,204.279 188.5,204.5C 189.167,204.5 189.833,204.5 190.5,204.5C 192.566,206.199 194.9,207.532 197.5,208.5C 199.167,210.833 201.167,212.833 203.5,214.5C 204.401,215.29 205.068,216.29 205.5,217.5C 205.5,218.167 205.5,218.833 205.5,219.5C 205.779,224.327 205.113,228.993 203.5,233.5C 201.15,235.213 200.15,237.547 200.5,240.5C 201.833,240.5 203.167,240.5 204.5,240.5C 204.973,241.906 205.973,242.573 207.5,242.5C 210.139,244.473 212.473,246.806 214.5,249.5C 216.126,255.159 215.459,260.492 212.5,265.5C 211.128,266.512 209.795,267.512 208.5,268.5C 204.311,270.118 199.978,271.118 195.5,271.5C 185.386,271.96 175.386,271.293 165.5,269.5C 161.202,268.198 158.202,265.531 156.5,261.5C 155.523,258.713 155.19,255.713 155.5,252.5C 154.747,236.838 154.581,221.171 155,205.5C 156.167,204.333 157.333,203.167 158.5,202C 163.155,201.501 167.821,201.334 172.5,201.5 Z"/></g>
<g><path style="opacity:1" fill="#afaeae" d="M 248.5,203.5 C 245.833,203.833 243.167,204.167 240.5,204.5C 242.993,202.416 245.66,202.083 248.5,203.5 Z"/></g>
<g><path style="opacity:1" fill="#9f9f9f" d="M 240.5,204.5 C 240.027,205.906 239.027,206.573 237.5,206.5C 237.973,205.094 238.973,204.427 240.5,204.5 Z"/></g>
<g><path style="opacity:1" fill="#605e60" d="M 137.5,204.5 C 138.906,204.973 139.573,205.973 139.5,207.5C 138.094,207.027 137.427,206.027 137.5,204.5 Z"/></g>
<g><path style="opacity:1" fill="#b1b1b1" d="M 190.5,204.5 C 193.546,204.725 195.879,206.058 197.5,208.5C 194.9,207.532 192.566,206.199 190.5,204.5 Z"/></g>
<g><path style="opacity:1" fill="#c7c6c6" d="M 218.5,202.5 C 219.167,203.5 219.833,204.5 220.5,205.5C 221.167,206.5 221.833,207.5 222.5,208.5C 219.224,207.878 217.891,205.878 218.5,202.5 Z"/></g>
<g><path style="opacity:1" fill="#c5c4c4" d="M 269.5,200.5 C 269.673,204.17 268.007,206.67 264.5,208C 260.058,208.58 255.724,208.08 251.5,206.5C 250.807,205.482 250.141,204.482 249.5,203.5C 253.102,205.313 256.935,206.646 261,207.5C 265.154,206.685 267.987,204.352 269.5,200.5 Z"/></g>
<g><path style="opacity:1" fill="#8c8c8c" d="M 89.5,196.5 C 85.7273,195.822 82.894,197.156 81,200.5C 80.5003,207.826 80.3337,215.159 80.5,222.5C 80.1667,222.5 79.8333,222.5 79.5,222.5C 79.3336,214.826 79.5003,207.159 80,199.5C 82.4567,195.69 85.6234,194.69 89.5,196.5 Z"/></g>
<g><path style="opacity:1" fill="#969595" d="M 172.5,201.5 C 167.821,201.334 163.155,201.501 158.5,202C 157.333,203.167 156.167,204.333 155,205.5C 154.581,221.171 154.747,236.838 155.5,252.5C 154.679,249.359 154.179,246.025 154,242.5C 153.333,229.833 153.333,217.167 154,204.5C 155.167,203.333 156.333,202.167 157.5,201C 162.684,200.184 167.684,200.35 172.5,201.5 Z"/></g>
<g><path style="opacity:1" fill="#a2a1a1" d="M 197.5,208.5 C 200.5,209.5 202.5,211.5 203.5,214.5C 201.167,212.833 199.167,210.833 197.5,208.5 Z"/></g>
<g><path style="opacity:1" fill="#b2b1b1" d="M 237.5,206.5 C 236.152,208.48 234.152,209.647 231.5,210C 228.961,210.796 226.628,210.629 224.5,209.5C 229.085,209.526 233.419,208.526 237.5,206.5 Z"/></g>
<g><path style="opacity:1" fill="#7c7b7b" d="M 139.5,207.5 C 141.245,209.033 142.245,211.033 142.5,213.5C 140.755,211.967 139.755,209.967 139.5,207.5 Z"/></g>
<g><path style="opacity:1" fill="#acaaab" d="M 144.5,219.5 C 146.213,220.635 146.88,222.302 146.5,224.5C 145.463,223.07 144.796,221.403 144.5,219.5 Z"/></g>
<g><path style="opacity:1" fill="#d1d0d0" d="M 79.5,222.5 C 79.3337,229.841 79.5003,237.174 80,244.5C 80.2794,247.457 81.1127,250.123 82.5,252.5C 84.5293,254.858 86.5293,257.192 88.5,259.5C 85.3084,257.828 82.475,255.495 80,252.5C 78.212,245.963 77.3786,239.296 77.5,232.5C 77.5136,228.761 78.1803,225.428 79.5,222.5 Z"/></g>
<g><path style="opacity:1" fill="#bebdbd" d="M 205.5,217.5 C 206.117,217.611 206.617,217.944 207,218.5C 207.801,221.367 207.634,224.034 206.5,226.5C 206.802,223.941 206.468,221.607 205.5,219.5C 205.5,218.833 205.5,218.167 205.5,217.5 Z"/></g>
<g><path style="opacity:1" fill="#636262" d="M 205.5,219.5 C 206.468,221.607 206.802,223.941 206.5,226.5C 206.233,228.965 205.566,231.299 204.5,233.5C 204.167,233.5 203.833,233.5 203.5,233.5C 205.113,228.993 205.779,224.327 205.5,219.5 Z"/></g>
<g><path style="opacity:1" fill="#afaeae" d="M 114.5,204.5 C 114.5,211.167 114.5,217.833 114.5,224.5C 114.5,226.167 114.5,227.833 114.5,229.5C 111.888,221.162 111.888,212.828 114.5,204.5 Z"/></g>
<g><path style="opacity:1" fill="#4b494a" d="M 93.5,230.5 C 94.8698,232.25 95.8698,234.25 96.5,236.5C 94.0311,235.393 93.0311,233.393 93.5,230.5 Z"/></g>
<g><path style="opacity:1" fill="#7d7c7c" d="M 147.5,229.5 C 148.924,231.515 149.59,233.848 149.5,236.5C 149.813,240.042 149.479,243.375 148.5,246.5C 148.625,240.797 148.292,235.13 147.5,229.5 Z"/></g>
<g><path style="opacity:1" fill="#d7d7d6" d="M -0.5,223.5 C 0.117425,223.611 0.617425,223.944 1,224.5C 1.16667,226.5 1.33333,228.5 1.5,230.5C 0.62955,242.817 0.296217,255.151 0.5,267.5C 0.166667,267.5 -0.166667,267.5 -0.5,267.5C -0.5,252.833 -0.5,238.167 -0.5,223.5 Z"/></g>
<g><path style="opacity:1" fill="#3e3d3e" d="M 79.5,222.5 C 79.8333,222.5 80.1667,222.5 80.5,222.5C 80.3337,229.508 80.5004,236.508 81,243.5C 81.6449,244.646 82.4783,245.646 83.5,246.5C 82.6518,248.409 82.3184,250.409 82.5,252.5C 81.1127,250.123 80.2794,247.457 80,244.5C 79.5003,237.174 79.3337,229.841 79.5,222.5 Z"/></g>
<g><path style="opacity:1" fill="#777777" d="M 114.5,224.5 C 115.449,228.657 116.116,232.99 116.5,237.5C 116.167,237.5 115.833,237.5 115.5,237.5C 114.908,234.873 114.575,232.206 114.5,229.5C 114.5,227.833 114.5,226.167 114.5,224.5 Z"/></g>
<g><path style="opacity:1" fill="#a5a4a4" d="M 97.5,236.5 C 99.0269,236.427 100.027,237.094 100.5,238.5C 98.9731,238.573 97.9731,237.906 97.5,236.5 Z"/></g>
<g><path style="opacity:1" fill="#aaa9aa" d="M 203.5,233.5 C 203.833,233.5 204.167,233.5 204.5,233.5C 203.952,235.394 202.952,237.06 201.5,238.5C 202.602,239.176 203.602,239.842 204.5,240.5C 203.167,240.5 201.833,240.5 200.5,240.5C 200.15,237.547 201.15,235.213 203.5,233.5 Z"/></g>
<g><path style="opacity:1" fill="#c7c6c7" d="M 149.5,236.5 C 150.162,238.304 150.495,240.304 150.5,242.5C 150.461,244.952 149.794,246.952 148.5,248.5C 148.5,247.833 148.5,247.167 148.5,246.5C 149.479,243.375 149.813,240.042 149.5,236.5 Z"/></g>
<g><path style="opacity:1" fill="#a4a4a4" d="M 204.5,240.5 C 206.027,240.427 207.027,241.094 207.5,242.5C 205.973,242.573 204.973,241.906 204.5,240.5 Z"/></g>
<g><path style="opacity:1" fill="#d1d0d0" d="M 115.5,237.5 C 115.833,237.5 116.167,237.5 116.5,237.5C 117.01,240.539 117.677,243.539 118.5,246.5C 118.5,246.833 118.5,247.167 118.5,247.5C 117.833,248.833 117.167,250.167 116.5,251.5C 117.076,247.888 116.076,244.888 113.5,242.5C 115.256,241.448 115.923,239.781 115.5,237.5 Z"/></g>
<g><path style="opacity:1" fill="#646263" d="M 118.5,246.5 C 120.104,247.287 120.771,248.62 120.5,250.5C 119.599,249.71 118.932,248.71 118.5,247.5C 118.5,247.167 118.5,246.833 118.5,246.5 Z"/></g>
<g><path style="opacity:1" fill="#b1b1b1" d="M 135.5,246.5 C 136.812,247.145 137.812,248.145 138.5,249.5C 140.743,250.474 143.076,250.808 145.5,250.5C 142.976,251.8 140.309,251.8 137.5,250.5C 136.37,249.378 135.703,248.044 135.5,246.5 Z"/></g>
<g><path style="opacity:1" fill="#acaaac" d="M 135.5,246.5 C 133.836,247.949 133.002,249.949 133,252.5C 132.329,253.252 131.496,253.586 130.5,253.5C 132.226,251.18 132.893,248.513 132.5,245.5C 133.791,245.263 134.791,245.596 135.5,246.5 Z"/></g>
<g><path style="opacity:1" fill="#8a8a8a" d="M 214.5,249.5 C 215.117,249.611 215.617,249.944 216,250.5C 216.667,253.833 216.667,257.167 216,260.5C 215.777,262.881 214.61,264.547 212.5,265.5C 215.459,260.492 216.126,255.159 214.5,249.5 Z"/></g>
<g><path style="opacity:1" fill="#cfcdce" d="M 171.5,260.5 C 170.167,260.5 168.833,260.5 167.5,260.5C 167.5,259.167 167.5,257.833 167.5,256.5C 168.601,255.402 169.934,255.235 171.5,256C 172.801,257.616 172.801,259.116 171.5,260.5 Z"/></g>
<g><path style="opacity:1" fill="#b5b4b5" d="M 112.5,257.5 C 111.514,259.408 109.848,260.408 107.5,260.5C 108.659,258.75 110.326,257.75 112.5,257.5 Z"/></g>
<g><path style="opacity:1" fill="#535253" d="M 167.5,256.5 C 167.5,257.833 167.5,259.167 167.5,260.5C 168.833,260.5 170.167,260.5 171.5,260.5C 170.081,261.451 168.415,261.784 166.5,261.5C 166.216,259.585 166.549,257.919 167.5,256.5 Z"/></g>
<g><path style="opacity:1" fill="#cccccc" d="M 89.5,259.5 C 94.0068,261.113 98.6734,261.779 103.5,261.5C 100.024,262.643 96.3575,262.81 92.5,262C 91.0577,261.623 90.0577,260.79 89.5,259.5 Z"/></g>
<g><path style="opacity:1" fill="#bbbbbb" d="M 156.5,261.5 C 158.202,265.531 161.202,268.198 165.5,269.5C 165.5,269.833 165.5,270.167 165.5,270.5C 160.201,269.867 157.201,266.867 156.5,261.5 Z"/></g>
<g><path style="opacity:1" fill="#4a4a4a" d="M 165.5,270.5 C 165.5,270.167 165.5,269.833 165.5,269.5C 175.386,271.293 185.386,271.96 195.5,271.5C 195.5,271.833 195.5,272.167 195.5,272.5C 185.378,272.996 175.378,272.329 165.5,270.5 Z"/></g>
<g><path style="opacity:1" fill="#b2b2b2" d="M 208.5,268.5 C 205.008,272.004 200.675,273.338 195.5,272.5C 195.5,272.167 195.5,271.833 195.5,271.5C 199.978,271.118 204.311,270.118 208.5,268.5 Z"/></g>
<g><path style="opacity:1" fill="#a3baa6" d="M 364.5,275.5 C 364.5,279.5 364.5,283.5 364.5,287.5C 362.167,285.167 359.833,282.833 357.5,280.5C 360.7,279.956 363.033,278.29 364.5,275.5 Z"/></g>
<g><path style="opacity:1" fill="#73a579" d="M 7.5,280.5 C 124.167,280.5 240.833,280.5 357.5,280.5C 359.833,282.833 362.167,285.167 364.5,287.5C 364.5,314.5 364.5,341.5 364.5,368.5C 362.932,373.403 359.599,376.07 354.5,376.5C 239.5,376.5 124.5,376.5 9.5,376.5C 5.64977,375.823 3.14977,373.49 2,369.5C 1.50042,362.842 1.33375,356.175 1.5,349.5C 1.33338,328.831 1.50004,308.164 2,287.5C 3.86156,285.067 5.6949,282.734 7.5,280.5 Z"/></g>
<g><path style="opacity:1" fill="#b0cab3" d="M -0.5,267.5 C -0.166667,267.5 0.166667,267.5 0.5,267.5C 0.104577,273.273 2.43791,277.606 7.5,280.5C 5.6949,282.734 3.86156,285.067 2,287.5C 1.50004,308.164 1.33338,328.831 1.5,349.5C 0.833333,349.5 0.166667,349.5 -0.5,349.5C -0.5,322.167 -0.5,294.833 -0.5,267.5 Z"/></g>
<g><path style="opacity:1" fill="#fcfdfc" d="M 72.5,300.5 C 73.4486,301.152 74.6153,301.486 76,301.5C 77.6811,301.392 78.8478,300.725 79.5,299.5C 80.4614,301.265 80.7947,303.265 80.5,305.5C 77.1667,305.5 73.8333,305.5 70.5,305.5C 70.2011,303.396 70.5344,301.396 71.5,299.5C 72.1067,299.624 72.44,299.957 72.5,300.5 Z"/></g>
<g><path style="opacity:1" fill="#ebf2eb" d="M 86.5,299.5 C 88.1338,301.876 90.1338,304.043 92.5,306C 90.7788,307.437 89.2788,306.937 88,304.5C 86.8293,306.616 85.3293,307.282 83.5,306.5C 86.0934,304.929 87.0934,302.596 86.5,299.5 Z"/></g>
<g><path style="opacity:1" fill="#f0f5f1" d="M 93.5,298.5 C 94.9194,300.151 96.2527,301.984 97.5,304C 96.0798,305.53 95.0798,307.363 94.5,309.5C 93.5108,305.893 93.1774,302.226 93.5,298.5 Z"/></g>
<g><path style="opacity:1" fill="#eef4ee" d="M 112.5,307.5 C 112.38,306.414 111.713,305.747 110.5,305.5C 108.199,306.396 105.866,306.562 103.5,306C 102.08,300.009 104.413,298.176 110.5,300.5C 111.672,300.081 112.672,299.415 113.5,298.5C 113.833,300 114.167,301.5 114.5,303C 114.431,304.986 113.765,306.486 112.5,307.5 Z"/></g>
<g><path style="opacity:1" fill="#f6f9f6" d="M 163.5,304.5 C 162.833,305.167 162.167,305.833 161.5,306.5C 160.773,315.715 160.106,315.549 159.5,306C 159.833,303.5 160.167,301 160.5,298.5C 160.964,300.975 161.964,302.975 163.5,304.5 Z"/></g>
<g><path style="opacity:1" fill="#ecf2ec" d="M 222.5,298.5 C 223.809,300.571 224.475,303.071 224.5,306C 224.167,308.5 223.833,311 223.5,313.5C 222.506,308.544 222.173,303.544 222.5,298.5 Z"/></g>
<g><path style="opacity:1" fill="#98be9d" d="M 235.5,300.5 C 232.813,300.336 230.146,300.503 227.5,301C 228.448,301.483 229.448,301.649 230.5,301.5C 230.768,303.099 230.434,304.432 229.5,305.5C 229.5,304.5 229.5,303.5 229.5,302.5C 228.5,302.5 227.5,302.5 226.5,302.5C 226.5,301.5 226.5,300.5 226.5,299.5C 229.713,299.19 232.713,299.523 235.5,300.5 Z"/></g>
<g><path style="opacity:1" fill="#ecf3ed" d="M 251.5,298.5 C 252.787,299.871 253.453,301.705 253.5,304C 253.167,305.833 252.833,307.667 252.5,309.5C 251.511,305.893 251.177,302.226 251.5,298.5 Z"/></g>
<g><path style="opacity:1" fill="#9dc1a1" d="M 281.5,302.5 C 281.44,303.043 281.107,303.376 280.5,303.5C 279.719,302.271 279.219,300.938 279,299.5C 278.502,302.817 278.335,306.15 278.5,309.5C 277.662,309.158 277.328,308.492 277.5,307.5C 275.958,306.837 274.291,306.17 272.5,305.5C 273.689,304.571 275.022,304.238 276.5,304.5C 276.5,303.167 276.5,301.833 276.5,300.5C 277.467,299.194 278.801,298.527 280.5,298.5C 280.232,300.099 280.566,301.432 281.5,302.5 Z"/></g>
<g><path style="opacity:1" fill="#f3f7f3" d="M 278.5,309.5 C 278.335,306.15 278.502,302.817 279,299.5C 279.219,300.938 279.719,302.271 280.5,303.5C 281.107,303.376 281.44,303.043 281.5,302.5C 281.238,301.022 281.571,299.689 282.5,298.5C 283.833,302.167 283.833,305.833 282.5,309.5C 281.833,307.833 281.167,306.167 280.5,304.5C 279.83,306.291 279.163,307.958 278.5,309.5 Z"/></g>
<g><path style="opacity:1" fill="#b4cfb7" d="M 286.5,300.5 C 290.019,299.192 293.685,299.192 297.5,300.5C 297.376,301.107 297.043,301.44 296.5,301.5C 293.375,300.521 290.042,300.187 286.5,300.5 Z"/></g>
<g><path style="opacity:1" fill="#bcd4bf" d="M 79.5,299.5 C 78.8478,300.725 77.6811,301.392 76,301.5C 74.6153,301.486 73.4486,301.152 72.5,300.5C 74.9496,300.702 77.283,300.369 79.5,299.5 Z"/></g>
<g><path style="opacity:1" fill="#eef4ef" d="M 118.5,299.5 C 121.898,299.18 125.232,299.513 128.5,300.5C 125.914,301.48 123.247,301.813 120.5,301.5C 120.5,302.833 120.5,304.167 120.5,305.5C 123.247,305.187 125.914,305.52 128.5,306.5C 127.311,307.429 125.978,307.762 124.5,307.5C 124.5,308.5 124.5,309.5 124.5,310.5C 123.833,311.833 123.167,311.833 122.5,310.5C 122.5,309.167 122.5,307.833 122.5,306.5C 121.167,306.5 119.833,306.5 118.5,306.5C 118.5,304.167 118.5,301.833 118.5,299.5 Z"/></g>
<g><path style="opacity:1" fill="#edf3ee" d="M 152.5,299.5 C 156.062,299.564 157.729,301.397 157.5,305C 157.26,310.281 155.093,311.448 151,308.5C 150.068,305.177 150.568,302.177 152.5,299.5 Z"/></g>
<g><path style="opacity:1" fill="#dde9de" d="M 175.5,303.5 C 172.833,304.833 170.167,304.833 167.5,303.5C 165.915,302.998 165.415,301.998 166,300.5C 169.333,297.833 172.667,297.833 176,300.5C 176.74,301.749 176.573,302.749 175.5,303.5 Z"/></g>
<g><path style="opacity:1" fill="#74a67a" d="M 168.5,300.5 C 170.604,300.201 172.604,300.534 174.5,301.5C 173.5,301.833 172.5,302.167 171.5,302.5C 169.97,302.36 168.97,301.693 168.5,300.5 Z"/></g>
<g><path style="opacity:1" fill="#edf3ee" d="M 180.5,299.5 C 183.898,299.18 187.232,299.513 190.5,300.5C 187.914,301.48 185.247,301.813 182.5,301.5C 182.5,302.833 182.5,304.167 182.5,305.5C 185.187,305.336 187.854,305.503 190.5,306C 189.207,306.49 187.873,306.657 186.5,306.5C 186.5,307.833 186.5,309.167 186.5,310.5C 186.932,311.839 186.265,311.839 184.5,310.5C 184.5,309.5 184.5,308.5 184.5,307.5C 183.167,307.5 181.833,307.5 180.5,307.5C 180.5,304.833 180.5,302.167 180.5,299.5 Z"/></g>
<g><path style="opacity:1" fill="#afccb2" d="M 220.5,300.5 C 218.167,300.5 215.833,300.5 213.5,300.5C 213.5,303.5 213.5,306.5 213.5,309.5C 215.5,309.5 217.5,309.5 219.5,309.5C 217.393,310.468 215.059,310.802 212.5,310.5C 212.5,306.833 212.5,303.167 212.5,299.5C 215.385,299.194 218.052,299.527 220.5,300.5 Z"/></g>
<g><path style="opacity:1" fill="#fdfdfd" d="M 220.5,300.5 C 218.735,301.461 216.735,301.795 214.5,301.5C 214.5,303.833 214.5,306.167 214.5,308.5C 217.922,308.006 219.589,308.339 219.5,309.5C 217.5,309.5 215.5,309.5 213.5,309.5C 213.5,306.5 213.5,303.5 213.5,300.5C 215.833,300.5 218.167,300.5 220.5,300.5 Z"/></g>
<g><path style="opacity:1" fill="#eff5f0" d="M 235.5,300.5 C 234.791,301.404 233.791,301.737 232.5,301.5C 231.959,304.652 232.959,307.152 235.5,309C 233.406,309.445 231.906,308.612 231,306.5C 230.218,309.188 228.718,310.188 226.5,309.5C 227.91,308.431 228.91,307.097 229.5,305.5C 230.434,304.432 230.768,303.099 230.5,301.5C 229.448,301.649 228.448,301.483 227.5,301C 230.146,300.503 232.813,300.336 235.5,300.5 Z"/></g>
<g><path style="opacity:1" fill="#f7faf7" d="M 257.5,299.5 C 259.048,299.821 259.715,300.821 259.5,302.5C 261.833,302.5 264.167,302.5 266.5,302.5C 266.351,301.448 266.517,300.448 267,299.5C 267.497,302.146 267.664,304.813 267.5,307.5C 264.167,307.5 260.833,307.5 257.5,307.5C 257.5,304.833 257.5,302.167 257.5,299.5 Z"/></g>
<g><path style="opacity:1" fill="#f5f8f5" d="M 276.5,300.5 C 276.5,301.833 276.5,303.167 276.5,304.5C 275.022,304.238 273.689,304.571 272.5,305.5C 274.291,306.17 275.958,306.837 277.5,307.5C 275.5,307.5 273.5,307.5 271.5,307.5C 271.5,306.167 271.5,304.833 271.5,303.5C 272.791,303.737 273.791,303.404 274.5,302.5C 273.737,301.732 272.737,301.232 271.5,301C 273.134,300.506 274.801,300.34 276.5,300.5 Z"/></g>
<g><path style="opacity:1" fill="#f2f6f2" d="M 286.5,300.5 C 290.042,300.187 293.375,300.521 296.5,301.5C 293.833,301.5 291.167,301.5 288.5,301.5C 288.5,302.833 288.5,304.167 288.5,305.5C 291.167,305.5 293.833,305.5 296.5,305.5C 293.375,306.479 290.042,306.813 286.5,306.5C 286.5,304.5 286.5,302.5 286.5,300.5 Z"/></g>
<g><path style="opacity:1" fill="#80ae85" d="M 104.5,301.5 C 105.833,301.5 107.167,301.5 108.5,301.5C 108.833,304.5 107.5,305.833 104.5,305.5C 104.5,304.167 104.5,302.833 104.5,301.5 Z"/></g>
<g><path style="opacity:1" fill="#ecf3ed" d="M 134.5,299.5 C 140.078,299.525 141.411,301.691 138.5,306C 132.36,306.808 131.027,304.641 134.5,299.5 Z"/></g>
<g><path style="opacity:1" fill="#85b18a" d="M 134.5,301.5 C 137.166,301.066 138.333,302.066 138,304.5C 134.403,306.066 133.237,305.066 134.5,301.5 Z"/></g>
<g><path style="opacity:1" fill="#7fad84" d="M 152.5,301.5 C 153.5,301.5 154.5,301.5 155.5,301.5C 155.5,303.833 155.5,306.167 155.5,308.5C 151.452,307.738 150.452,305.404 152.5,301.5 Z"/></g>
<g><path style="opacity:1" fill="#90b895" d="M 72.5,302.5 C 74.924,302.192 77.2573,302.526 79.5,303.5C 78.3333,303.833 77.1667,304.167 76,304.5C 74.3189,304.392 73.1522,303.725 72.5,302.5 Z"/></g>
<g><path style="opacity:1" fill="#acc9af" d="M 274.5,302.5 C 273.791,303.404 272.791,303.737 271.5,303.5C 271.5,304.833 271.5,306.167 271.5,307.5C 270.549,306.081 270.216,304.415 270.5,302.5C 271.833,302.5 273.167,302.5 274.5,302.5 Z"/></g>
<g><path style="opacity:1" fill="#99be9d" d="M 167.5,303.5 C 170.167,304.833 172.833,304.833 175.5,303.5C 176.167,304.167 176.833,304.833 177.5,305.5C 172.968,305.182 168.634,305.515 164.5,306.5C 163.5,306.5 162.5,306.5 161.5,306.5C 162.167,305.833 162.833,305.167 163.5,304.5C 165.099,304.768 166.432,304.434 167.5,303.5 Z"/></g>
<g><path style="opacity:1" fill="#7dac83" d="M 265.5,303.5 C 264.082,305.308 262.082,305.975 259.5,305.5C 260.918,303.692 262.918,303.025 265.5,303.5 Z"/></g>
<g><path style="opacity:1" fill="#fcfdfc" d="M 164.5,306.5 C 168.634,305.515 172.968,305.182 177.5,305.5C 175.158,306.008 172.991,307.008 171,308.5C 169.246,306.75 167.079,306.083 164.5,306.5 Z"/></g>
<g><path style="opacity:1" fill="#e4eee5" d="M 204.5,298.5 C 205.809,300.571 206.475,303.071 206.5,306C 205.722,315.804 205.056,315.637 204.5,305.5C 201.975,306.861 199.642,308.527 197.5,310.5C 192.046,306.597 192.213,302.93 198,299.5C 200.54,300.207 201.707,301.873 201.5,304.5C 202.5,304.5 203.5,304.5 204.5,304.5C 204.5,302.5 204.5,300.5 204.5,298.5 Z"/></g>
<g><path style="opacity:1" fill="#78a97e" d="M 196.5,301.5 C 198.722,301.559 199.722,302.725 199.5,305C 198.167,309.667 196.833,309.667 195.5,305C 195.648,303.744 195.982,302.577 196.5,301.5 Z"/></g>
<g><path style="opacity:1" fill="#e4ede5" d="M 243.5,299.5 C 249.488,299.664 250.821,302.164 247.5,307C 241.403,307.147 240.07,304.647 243.5,299.5 Z"/></g>
<g><path style="opacity:1" fill="#7bab81" d="M 243.5,301.5 C 244.833,301.5 246.167,301.5 247.5,301.5C 247.5,302.833 247.5,304.167 247.5,305.5C 244.5,305.833 243.167,304.5 243.5,301.5 Z"/></g>
<g><path style="opacity:1" fill="#b9d2bc" d="M 265.5,303.5 C 266.404,304.209 266.737,305.209 266.5,306.5C 263.941,306.802 261.607,306.468 259.5,305.5C 262.082,305.975 264.082,305.308 265.5,303.5 Z"/></g>
<g><path style="opacity:1" fill="#f4f8f5" d="M 236.5,298.5 C 237.913,300.496 239.246,302.663 240.5,305C 238.98,307.54 237.98,310.373 237.5,313.5C 236.506,308.544 236.173,303.544 236.5,298.5 Z"/></g>
<g><path style="opacity:1" fill="#b5cfb8" d="M 296.5,305.5 C 297.043,305.56 297.376,305.893 297.5,306.5C 293.685,307.808 290.019,307.808 286.5,306.5C 290.042,306.813 293.375,306.479 296.5,305.5 Z"/></g>
<g><path style="opacity:1" fill="#f8faf8" d="M 69.5,308.5 C 78.728,307.325 81.0614,307.325 76.5,308.5C 75.8333,315.167 75.1667,315.167 74.5,308.5C 72.8333,308.5 71.1667,308.5 69.5,308.5 Z"/></g>
<g><path style="opacity:1" fill="#dae7db" d="M 141.5,298.5 C 142.809,300.571 143.475,303.071 143.5,306C 143.167,308.5 142.833,311 142.5,313.5C 141.719,312.271 141.219,310.938 141,309.5C 137.875,310.787 134.709,310.787 131.5,309.5C 134.768,308.513 138.102,308.18 141.5,308.5C 141.5,305.167 141.5,301.833 141.5,298.5 Z"/></g>
<g><path style="opacity:1" fill="#9fc2a3" d="M 177.5,305.5 C 178.043,305.56 178.376,305.893 178.5,306.5C 176.025,306.964 174.025,307.964 172.5,309.5C 171.391,309.557 170.391,309.89 169.5,310.5C 169.5,309.5 169.5,308.5 169.5,307.5C 167.585,307.784 165.919,307.451 164.5,306.5C 167.079,306.083 169.246,306.75 171,308.5C 172.991,307.008 175.158,306.008 177.5,305.5 Z"/></g>
<g><path style="opacity:1" fill="#e5eee6" d="M 112.5,307.5 C 114.897,309.456 114.897,311.29 112.5,313C 109.317,314.031 106.651,313.365 104.5,311C 104.759,309.739 105.426,308.739 106.5,308C 108.473,307.505 110.473,307.338 112.5,307.5 Z"/></g>
<g><path style="opacity:1" fill="#74a67a" d="M 106.5,309.5 C 108.604,309.201 110.604,309.534 112.5,310.5C 111.5,310.833 110.5,311.167 109.5,311.5C 107.97,311.36 106.97,310.693 106.5,309.5 Z"/></g>
<g><path style="opacity:1" fill="#e0ebe1" d="M 85.5,308.5 C 87.0481,308.821 87.7148,309.821 87.5,311.5C 90.2469,311.187 92.9135,311.52 95.5,312.5C 92.2317,313.487 88.8984,313.82 85.5,313.5C 85.5,311.833 85.5,310.167 85.5,308.5 Z"/></g>
<g><path style="opacity:1" fill="#dae7dc" d="M 243.5,308.5 C 245.048,308.821 245.715,309.821 245.5,311.5C 248.572,311.183 251.572,311.516 254.5,312.5C 250.893,313.489 247.226,313.823 243.5,313.5C 243.5,311.833 243.5,310.167 243.5,308.5 Z"/></g>
<g><path style="opacity:1" fill="#dee9df" d="M 273.5,308.5 C 275.048,308.821 275.715,309.821 275.5,311.5C 278.247,311.187 280.914,311.52 283.5,312.5C 280.232,313.487 276.898,313.82 273.5,313.5C 273.5,311.833 273.5,310.167 273.5,308.5 Z"/></g>
<g><path style="opacity:1" fill="#e4ede5" d="M 172.5,309.5 C 173.483,310.85 174.816,311.85 176.5,312.5C 174.635,313.666 172.968,313.333 171.5,311.5C 169.588,313.156 167.588,313.489 165.5,312.5C 166.766,311.638 168.099,310.971 169.5,310.5C 170.391,309.89 171.391,309.557 172.5,309.5 Z"/></g>
<g><path style="opacity:1" fill="#9fc2a3" d="M 152.5,328.5 C 150.544,334.412 149.877,340.745 150.5,347.5C 149.833,345.833 149.167,344.167 148.5,342.5C 148.5,341.833 148.5,341.167 148.5,340.5C 149.485,336.366 149.818,332.032 149.5,327.5C 150.791,327.263 151.791,327.596 152.5,328.5 Z"/></g>
<g><path style="opacity:1" fill="#fefffe" d="M 152.5,328.5 C 152.5,330.833 152.5,333.167 152.5,335.5C 156.5,336.167 156.5,336.833 152.5,337.5C 153.069,341.329 152.402,344.663 150.5,347.5C 149.877,340.745 150.544,334.412 152.5,328.5 Z"/></g>
<g><path style="opacity:1" fill="#f9fbf9" d="M 170.5,328.5 C 172.456,334.412 173.123,340.745 172.5,347.5C 170.544,341.588 169.877,335.255 170.5,328.5 Z"/></g>
<g><path style="opacity:1" fill="#bcd3bf" d="M 170.5,328.5 C 171.209,327.596 172.209,327.263 173.5,327.5C 173.824,334.354 173.491,341.021 172.5,347.5C 173.123,340.745 172.456,334.412 170.5,328.5 Z"/></g>
<g><path style="opacity:1" fill="#b8d2bb" d="M 192.5,328.5 C 190.544,334.412 189.877,340.745 190.5,347.5C 189.509,341.021 189.176,334.354 189.5,327.5C 190.791,327.263 191.791,327.596 192.5,328.5 Z"/></g>
<g><path style="opacity:1" fill="#fafcfa" d="M 192.5,328.5 C 193.123,335.255 192.456,341.588 190.5,347.5C 189.877,340.745 190.544,334.412 192.5,328.5 Z"/></g>
<g><path style="opacity:1" fill="#b5d0b8" d="M 211.5,329.5 C 206.821,329.334 202.155,329.501 197.5,330C 199.382,330.198 201.048,330.698 202.5,331.5C 200.5,331.5 198.5,331.5 196.5,331.5C 196.5,330.5 196.5,329.5 196.5,328.5C 201.695,328.179 206.695,328.513 211.5,329.5 Z"/></g>
<g><path style="opacity:1" fill="#ecf3ed" d="M 228.5,327.5 C 229.5,327.5 230.5,327.5 231.5,327.5C 231.82,330.898 231.487,334.232 230.5,337.5C 229.614,336.675 229.281,335.675 229.5,334.5C 226.326,335.015 223.326,336.015 220.5,337.5C 216.011,337.167 214.511,334.833 216,330.5C 217.808,328.604 219.975,328.104 222.5,329C 224.217,330.559 226.217,331.392 228.5,331.5C 228.5,330.167 228.5,328.833 228.5,327.5 Z"/></g>
<g><path style="opacity:1" fill="#b4cfb8" d="M 242.5,329.5 C 240.143,329.337 237.81,329.503 235.5,330C 237.382,330.198 239.048,330.698 240.5,331.5C 238.5,331.5 236.5,331.5 234.5,331.5C 234.5,330.5 234.5,329.5 234.5,328.5C 237.385,328.194 240.052,328.527 242.5,329.5 Z"/></g>
<g><path style="opacity:1" fill="#fbfcfb" d="M 248.5,332.5 C 249.29,331.391 249.79,330.058 250,328.5C 250.667,331.833 250.667,335.167 250,338.5C 249.79,336.942 249.29,335.609 248.5,334.5C 247.057,335.335 246.057,336.668 245.5,338.5C 244.167,335.167 244.167,331.833 245.5,328.5C 246.057,330.332 247.057,331.665 248.5,332.5 Z"/></g>
<g><path style="opacity:1" fill="#d0e0d2" d="M 250.5,347.5 C 250.663,345.143 250.497,342.81 250,340.5C 248.647,341.704 246.981,342.371 245,342.5C 243.293,342.492 241.793,342.158 240.5,341.5C 243.167,341.5 245.833,341.5 248.5,341.5C 248.5,339.167 248.5,336.833 248.5,334.5C 249.29,335.609 249.79,336.942 250,338.5C 250.667,335.167 250.667,331.833 250,328.5C 249.79,330.058 249.29,331.391 248.5,332.5C 248.5,330.833 248.5,329.167 248.5,327.5C 249.5,327.5 250.5,327.5 251.5,327.5C 251.824,334.354 251.491,341.021 250.5,347.5 Z"/></g>
<g><path style="opacity:1" fill="#f0f5f1" d="M 119.5,329.5 C 124.214,329.173 128.88,329.507 133.5,330.5C 129.893,331.489 126.226,331.823 122.5,331.5C 122.5,333.167 122.5,334.833 122.5,336.5C 126.226,336.177 129.893,336.511 133.5,337.5C 131.604,338.466 129.604,338.799 127.5,338.5C 127.5,340.167 127.5,341.833 127.5,343.5C 130.247,343.187 132.914,343.52 135.5,344.5C 129.5,345.833 123.5,345.833 117.5,344.5C 120.086,343.52 122.753,343.187 125.5,343.5C 125.5,341.833 125.5,340.167 125.5,338.5C 123.5,338.5 121.5,338.5 119.5,338.5C 119.5,335.5 119.5,332.5 119.5,329.5 Z"/></g>
<g><path style="opacity:1" fill="#f3f7f3" d="M 166.5,329.5 C 166.5,331.833 166.5,334.167 166.5,336.5C 164.167,336.5 161.833,336.5 159.5,336.5C 159.5,338.167 159.5,339.833 159.5,341.5C 161.735,341.795 163.735,341.461 165.5,340.5C 166.978,340.238 168.311,340.571 169.5,341.5C 165.68,343.145 161.68,343.811 157.5,343.5C 157.5,340.833 157.5,338.167 157.5,335.5C 159.833,335.5 162.167,335.5 164.5,335.5C 164.5,334.167 164.5,332.833 164.5,331.5C 162.076,331.808 159.743,331.474 157.5,330.5C 160.428,329.516 163.428,329.183 166.5,329.5 Z"/></g>
<g><path style="opacity:1" fill="#fdfefd" d="M 177.5,329.5 C 179.256,330.552 179.923,332.219 179.5,334.5C 181.167,334.5 182.833,334.5 184.5,334.5C 184.215,332.712 184.548,331.045 185.5,329.5C 186.492,333.783 186.826,338.116 186.5,342.5C 183.5,342.5 180.5,342.5 177.5,342.5C 177.5,338.167 177.5,333.833 177.5,329.5 Z"/></g>
<g><path style="opacity:1" fill="#edf3ed" d="M 211.5,329.5 C 210.322,330.999 208.655,331.999 206.5,332.5C 208.003,334.422 210.003,335.588 212.5,336C 211.892,336.87 211.059,337.37 210,337.5C 208.263,336.38 206.429,335.38 204.5,334.5C 201.973,336.471 199.307,337.137 196.5,336.5C 198.941,335.291 200.941,333.624 202.5,331.5C 201.048,330.698 199.382,330.198 197.5,330C 202.155,329.501 206.821,329.334 211.5,329.5 Z"/></g>
<g><path style="opacity:1" fill="#f0f5f1" d="M 242.5,329.5 C 242.5,331.167 242.5,332.833 242.5,334.5C 240.712,334.215 239.045,334.548 237.5,335.5C 239.423,336.308 241.423,336.808 243.5,337C 240.649,338.289 237.649,338.789 234.5,338.5C 234.5,336.5 234.5,334.5 234.5,332.5C 236.735,332.795 238.735,332.461 240.5,331.5C 239.048,330.698 237.382,330.198 235.5,330C 237.81,329.503 240.143,329.337 242.5,329.5 Z"/></g>
<g><path style="opacity:1" fill="#c9dccb" d="M 146.5,331.5 C 144.052,330.527 141.385,330.194 138.5,330.5C 138.5,334.5 138.5,338.5 138.5,342.5C 139.5,342.5 140.5,342.5 141.5,342.5C 140.432,343.434 139.099,343.768 137.5,343.5C 137.5,338.833 137.5,334.167 137.5,329.5C 140.898,329.18 144.232,329.513 147.5,330.5C 147.376,331.107 147.043,331.44 146.5,331.5 Z"/></g>
<g><path style="opacity:1" fill="#f6f9f6" d="M 146.5,331.5 C 144.5,331.5 142.5,331.5 140.5,331.5C 140.5,334.5 140.5,337.5 140.5,340.5C 143.167,340.5 145.833,340.5 148.5,340.5C 148.5,341.167 148.5,341.833 148.5,342.5C 146.167,342.5 143.833,342.5 141.5,342.5C 140.5,342.5 139.5,342.5 138.5,342.5C 138.5,338.5 138.5,334.5 138.5,330.5C 141.385,330.194 144.052,330.527 146.5,331.5 Z"/></g>
<g><path style="opacity:1" fill="#7fad85" d="M 218.5,330.5 C 222.138,329.737 223.638,331.07 223,334.5C 218.415,336.413 216.915,335.079 218.5,330.5 Z"/></g>
<g><path style="opacity:1" fill="#71a577" d="M 183.5,336.5 C 183.5,337.833 183.5,339.167 183.5,340.5C 182.167,340.5 180.833,340.5 179.5,340.5C 179.5,339.167 179.5,337.833 179.5,336.5C 180.833,336.5 182.167,336.5 183.5,336.5 Z"/></g>
<g><path style="opacity:1" fill="#ebf2ec" d="M 195.5,338.5 C 201.537,338.171 207.537,338.504 213.5,339.5C 212.311,340.429 210.978,340.762 209.5,340.5C 209.5,342.833 209.5,345.167 209.5,347.5C 208.5,347.5 207.5,347.5 206.5,347.5C 206.5,345.167 206.5,342.833 206.5,340.5C 205.167,340.5 203.833,340.5 202.5,340.5C 202.5,342.833 202.5,345.167 202.5,347.5C 201.5,347.5 200.5,347.5 199.5,347.5C 199.5,345.167 199.5,342.833 199.5,340.5C 197.517,340.843 196.183,340.176 195.5,338.5 Z"/></g>
<g><path style="opacity:1" fill="#f6f9f6" d="M 231.5,343.5 C 227.774,343.177 224.107,343.511 220.5,344.5C 220.624,345.107 220.957,345.44 221.5,345.5C 225.226,345.177 228.893,345.511 232.5,346.5C 227.88,347.493 223.214,347.827 218.5,347.5C 218.5,345.833 218.5,344.167 218.5,342.5C 231.769,342.146 231.769,341.146 218.5,339.5C 222.783,338.508 227.116,338.174 231.5,338.5C 231.5,340.167 231.5,341.833 231.5,343.5 Z"/></g>
<g><path style="opacity:1" fill="#bad3bd" d="M 166.5,329.5 C 167.473,331.948 167.806,334.615 167.5,337.5C 165.167,337.5 162.833,337.5 160.5,337.5C 160.5,338.5 160.5,339.5 160.5,340.5C 162.167,340.5 163.833,340.5 165.5,340.5C 163.735,341.461 161.735,341.795 159.5,341.5C 159.5,339.833 159.5,338.167 159.5,336.5C 161.833,336.5 164.167,336.5 166.5,336.5C 166.5,334.167 166.5,331.833 166.5,329.5 Z"/></g>
<g><path style="opacity:1" fill="#b0ccb3" d="M 183.5,336.5 C 184.451,337.919 184.784,339.585 184.5,341.5C 182.585,341.784 180.919,341.451 179.5,340.5C 180.833,340.5 182.167,340.5 183.5,340.5C 183.5,339.167 183.5,337.833 183.5,336.5 Z"/></g>
<g><path style="opacity:1" fill="#f4f8f5" d="M 240.5,341.5 C 241.793,342.158 243.293,342.492 245,342.5C 246.981,342.371 248.647,341.704 250,340.5C 250.497,342.81 250.663,345.143 250.5,347.5C 246.167,347.5 241.833,347.5 237.5,347.5C 237.5,344.833 237.5,342.167 237.5,339.5C 239.179,339.285 240.179,339.952 240.5,341.5 Z"/></g>
<g><path style="opacity:1" fill="#b7d1ba" d="M 177.5,329.5 C 177.5,333.833 177.5,338.167 177.5,342.5C 180.5,342.5 183.5,342.5 186.5,342.5C 183.375,343.479 180.042,343.813 176.5,343.5C 176.181,338.637 176.514,333.97 177.5,329.5 Z"/></g>
<g><path style="opacity:1" fill="#b8d1bb" d="M 231.5,343.5 C 228.167,344.167 224.833,344.833 221.5,345.5C 220.957,345.44 220.624,345.107 220.5,344.5C 224.107,343.511 227.774,343.177 231.5,343.5 Z"/></g>
<g><path style="opacity:1" fill="#71a577" d="M 240.5,343.5 C 243.247,343.187 245.914,343.52 248.5,344.5C 247.167,344.833 245.833,345.167 244.5,345.5C 242.667,345.415 241.334,344.748 240.5,343.5 Z"/></g>
<g><path style="opacity:1" fill="#dde1de" d="M -0.5,349.5 C 0.166667,349.5 0.833333,349.5 1.5,349.5C 1.33375,356.175 1.50042,362.842 2,369.5C 3.14977,373.49 5.64977,375.823 9.5,376.5C 6.16667,376.5 2.83333,376.5 -0.5,376.5C -0.5,367.5 -0.5,358.5 -0.5,349.5 Z"/></g>
<g><path style="opacity:1" fill="#dbe0dc" d="M 364.5,368.5 C 364.5,371.167 364.5,373.833 364.5,376.5C 361.167,376.5 357.833,376.5 354.5,376.5C 359.599,376.07 362.932,373.403 364.5,368.5 Z"/></g>
</svg>
