<svg width="40" height="40" viewBox="0 0 40 40" fill="none" xmlns="http://www.w3.org/2000/svg">
<g id="&#8;X Button">
<path id="Union" fill-rule="evenodd" clip-rule="evenodd" d="M10.4393 12.5607C9.85355 11.9749 9.85355 11.0251 10.4393 10.4393C11.0251 9.85355 11.9749 9.85355 12.5607 10.4393L19.5 17.3787L26.4393 10.4393C27.0251 9.85355 27.9749 9.85355 28.5607 10.4393C29.1465 11.0251 29.1465 11.9749 28.5607 12.5607L21.6213 19.5L28.5607 26.4393C29.1464 27.0251 29.1464 27.9749 28.5607 28.5607C27.9749 29.1464 27.0251 29.1464 26.4393 28.5607L19.5 21.6213L12.5607 28.5607C11.9749 29.1464 11.0251 29.1464 10.4393 28.5607C9.85356 27.9749 9.85356 27.0251 10.4393 26.4393L17.3787 19.5L10.4393 12.5607Z" fill="#757575"/>
</g>
</svg>
