<svg width="26" height="26" viewBox="0 0 26 26" fill="none" xmlns="http://www.w3.org/2000/svg">
<g id="Icon/cart">
<path id="Vector" d="M2.7085 4.60413C2.7085 4.38864 2.7941 4.18197 2.94647 4.0296C3.09885 3.87723 3.30551 3.79163 3.521 3.79163H4.1255C5.15466 3.79163 5.77216 4.48388 6.12425 5.12738C6.35933 5.55638 6.52941 6.05363 6.66266 6.50429L6.771 6.49996H20.3105C21.2097 6.49996 21.8597 7.36013 21.6127 8.22571L19.6323 15.1688C19.4548 15.7916 19.0791 16.3395 18.5623 16.7297C18.0455 17.1198 17.4156 17.331 16.768 17.3311H10.3243C9.67161 17.3312 9.03695 17.1168 8.5179 16.7211C7.99884 16.3253 7.62412 15.7701 7.45133 15.1406L6.628 12.1376L5.263 7.53563L5.26191 7.52696C5.09291 6.91271 4.93475 6.33746 4.69858 5.90846C4.47216 5.49138 4.29016 5.41663 4.12658 5.41663H3.521C3.30551 5.41663 3.09885 5.33102 2.94647 5.17865C2.7941 5.02628 2.7085 4.81961 2.7085 4.60413ZM9.75016 22.75C10.3248 22.75 10.8759 22.5217 11.2822 22.1154C11.6886 21.709 11.9168 21.1579 11.9168 20.5833C11.9168 20.0087 11.6886 19.4576 11.2822 19.0512C10.8759 18.6449 10.3248 18.4166 9.75016 18.4166C9.17553 18.4166 8.62443 18.6449 8.2181 19.0512C7.81177 19.4576 7.5835 20.0087 7.5835 20.5833C7.5835 21.1579 7.81177 21.709 8.2181 22.1154C8.62443 22.5217 9.17553 22.75 9.75016 22.75ZM17.3335 22.75C17.9081 22.75 18.4592 22.5217 18.8656 22.1154C19.2719 21.709 19.5002 21.1579 19.5002 20.5833C19.5002 20.0087 19.2719 19.4576 18.8656 19.0512C18.4592 18.6449 17.9081 18.4166 17.3335 18.4166C16.7589 18.4166 16.2078 18.6449 15.8014 19.0512C15.3951 19.4576 15.1668 20.0087 15.1668 20.5833C15.1668 21.1579 15.3951 21.709 15.8014 22.1154C16.2078 22.5217 16.7589 22.75 17.3335 22.75Z" fill="black"/>
</g>
</svg>
