<svg width="192" height="100" viewBox="0 0 192 100" fill="none" xmlns="http://www.w3.org/2000/svg">
<g clip-path="url(#clip0_479_665)">
<mask id="path-1-outside-1_479_665" maskUnits="userSpaceOnUse" x="-1" y="39.1067" width="192" height="20" fill="black">
<rect fill="white" x="-1" y="39.1067" width="192" height="20"/>
<path d="M1.95143 58.5802C0.873684 58.5802 0 57.7065 0 56.6288V42.0581C0 41.1241 0.757192 40.3669 1.69124 40.3669C2.62528 40.3669 3.38247 41.1241 3.38247 42.0581V55.0676C3.38247 55.4269 3.6737 55.7181 4.03295 55.7181H11.4744C12.2647 55.7181 12.9054 56.3588 12.9054 57.1491C12.9054 57.9395 12.2647 58.5802 11.4744 58.5802H1.95143Z"/>
<path d="M25.3409 58.8404C23.9185 58.8404 22.6089 58.6062 21.412 58.1379C20.2151 57.6695 19.1744 57.019 18.2897 56.1864C17.4051 55.3365 16.7199 54.3478 16.2342 53.2203C15.7485 52.0754 15.5057 50.8265 15.5057 49.4735C15.5057 48.1205 15.7485 46.8803 16.2342 45.7528C16.7199 44.608 17.4051 43.6193 18.2897 42.7866C19.1744 41.9367 20.2151 41.2775 21.412 40.8092C22.6089 40.3409 23.9098 40.1067 25.3149 40.1067C26.7372 40.1067 28.0382 40.3409 29.2177 40.8092C30.4146 41.2775 31.4554 41.9367 32.34 42.7866C33.2247 43.6193 33.9098 44.608 34.3955 45.7528C34.8812 46.8803 35.124 48.1205 35.124 49.4735C35.124 50.8265 34.8812 52.0754 34.3955 53.2203C33.9098 54.3651 33.2247 55.3538 32.34 56.1864C31.4554 57.019 30.4146 57.6695 29.2177 58.1379C28.0382 58.6062 26.7459 58.8404 25.3409 58.8404ZM25.3149 55.8742C26.2342 55.8742 27.0842 55.7181 27.8647 55.4059C28.6453 55.0936 29.3218 54.6513 29.8942 54.0789C30.4666 53.4891 30.909 52.8126 31.2212 52.0494C31.5508 51.2688 31.7156 50.4102 31.7156 49.4735C31.7156 48.5368 31.5508 47.6869 31.2212 46.9237C30.909 46.1431 30.4666 45.4666 29.8942 44.8942C29.3218 44.3044 28.6453 43.8534 27.8647 43.5412C27.0842 43.229 26.2342 43.0729 25.3149 43.0729C24.3955 43.0729 23.5456 43.229 22.765 43.5412C22.0018 43.8534 21.3253 44.3044 20.7355 44.8942C20.1631 45.4666 19.7121 46.1431 19.3825 46.9237C19.0703 47.6869 18.9142 48.5368 18.9142 49.4735C18.9142 50.3929 19.0703 51.2428 19.3825 52.0234C19.7121 52.804 20.1631 53.4891 20.7355 54.0789C21.3079 54.6513 21.9844 55.0936 22.765 55.4059C23.5456 55.7181 24.3955 55.8742 25.3149 55.8742Z"/>
<path d="M48.7007 58.8404C47.313 58.8404 46.0207 58.6149 44.8238 58.1639C43.6443 57.6955 42.6122 57.0451 41.7276 56.2125C40.8603 55.3625 40.1838 54.3651 39.6981 53.2203C39.2124 52.0754 38.9696 50.8265 38.9696 49.4735C38.9696 48.1205 39.2124 46.8716 39.6981 45.7268C40.1838 44.582 40.869 43.5932 41.7536 42.7606C42.6383 41.9107 43.6703 41.2602 44.8499 40.8092C46.0294 40.3409 47.3217 40.1067 48.7267 40.1067C50.2185 40.1067 51.5801 40.3669 52.8117 40.8873C53.5832 41.2024 54.2798 41.6162 54.9016 42.1288C55.531 42.6476 55.4684 43.5887 54.8743 44.1476C54.2538 44.7311 53.2874 44.6754 52.5844 44.1944C52.2508 43.9662 51.9016 43.7745 51.5368 43.6193C50.7215 43.255 49.8368 43.0729 48.8828 43.0729C47.9288 43.0729 47.0528 43.229 46.2549 43.5412C45.4743 43.8534 44.7892 44.2958 44.1994 44.8682C43.627 45.4406 43.176 46.1171 42.8464 46.8977C42.5342 47.6782 42.3781 48.5368 42.3781 49.4735C42.3781 50.4102 42.5342 51.2688 42.8464 52.0494C43.176 52.83 43.627 53.5065 44.1994 54.0789C44.7892 54.6513 45.4743 55.0936 46.2549 55.4059C47.0528 55.7181 47.9288 55.8742 48.8828 55.8742C49.8368 55.8742 50.7215 55.7008 51.5368 55.3538C51.9009 55.1911 52.2495 54.9921 52.5825 54.7567C53.2838 54.261 54.2611 54.2029 54.883 54.7952C55.4719 55.3561 55.5267 56.2943 54.8975 56.8095C54.2768 57.3178 53.5815 57.7345 52.8117 58.0598C51.5801 58.5802 50.2098 58.8404 48.7007 58.8404Z"/>
<path d="M60.223 58.5802C59.0763 58.5802 58.3114 57.3972 58.782 56.3515L65.4573 41.5175C65.7724 40.8172 66.4689 40.3669 67.2368 40.3669H68.0454C68.8124 40.3669 69.5084 40.8163 69.824 41.5154L76.5061 56.3176C76.9851 57.3786 76.2091 58.5802 75.0451 58.5802C74.4043 58.5802 73.825 58.1986 73.5721 57.6098L67.2049 42.7842C67.0785 42.4899 67.2944 42.1622 67.6148 42.1622C67.9349 42.1622 68.1507 42.4894 68.0248 42.7837L61.6758 57.6216C61.427 58.2031 60.8555 58.5802 60.223 58.5802ZM63.1239 54.3651C62.2132 54.3651 61.5732 53.4688 61.8687 52.6075C62.0527 52.0713 62.557 51.7112 63.1239 51.7112H71.9057C72.4725 51.7112 72.9768 52.0713 73.1608 52.6075C73.4563 53.4688 72.8163 54.3651 71.9057 54.3651H63.1239Z"/>
<path d="M83.3564 58.5802C82.2786 58.5802 81.405 57.7065 81.405 56.6288V42.0581C81.405 41.1241 82.1621 40.3669 83.0962 40.3669C84.0302 40.3669 84.7874 41.1241 84.7874 42.0581V55.0676C84.7874 55.4269 85.0787 55.7181 85.4379 55.7181H92.8793C93.6697 55.7181 94.3104 56.3588 94.3104 57.1491C94.3104 57.9395 93.6697 58.5802 92.8793 58.5802H83.3564Z"/>
<path d="M108.907 58.5802C108.016 58.5802 107.294 57.8579 107.294 56.967V42.1438C107.294 41.1624 108.089 40.3669 109.071 40.3669C109.696 40.3669 110.274 40.6949 110.595 41.2309L117.664 53.0349C117.829 53.3113 117.63 53.6626 117.308 53.6626C116.987 53.6626 116.788 53.3139 116.951 53.0375L123.9 41.2401C124.219 40.699 124.8 40.3669 125.428 40.3669C126.406 40.3669 127.2 41.1592 127.201 42.1375L127.222 56.9773C127.223 57.8622 126.506 58.5802 125.622 58.5802C124.739 58.5802 124.023 57.8655 124.021 56.9827L123.999 45.6335C123.998 45.4983 124.108 45.3885 124.243 45.3885C124.433 45.3885 124.55 45.5958 124.453 45.7587L118.403 55.8489C118.162 56.252 117.726 56.4987 117.256 56.4987C116.789 56.4987 116.356 56.2554 116.114 55.8568L110 45.8154C109.886 45.6283 110.02 45.3885 110.239 45.3885C110.395 45.3885 110.52 45.5143 110.52 45.6694V56.967C110.52 57.8579 109.798 58.5802 108.907 58.5802Z"/>
<path d="M133.573 58.5802C132.427 58.5802 131.662 57.3972 132.132 56.3515L138.808 41.5175C139.123 40.8172 139.819 40.3669 140.587 40.3669H141.396C142.163 40.3669 142.859 40.8163 143.174 41.5154L149.856 56.3176C150.335 57.3786 149.559 58.5802 148.395 58.5802C147.755 58.5802 147.175 58.1986 146.922 57.6098L140.555 42.7842C140.429 42.4899 140.645 42.1622 140.965 42.1622C141.285 42.1622 141.501 42.4894 141.375 42.7837L135.026 57.6216C134.777 58.2031 134.206 58.5802 133.573 58.5802ZM136.474 54.3651C135.563 54.3651 134.923 53.4688 135.219 52.6075C135.403 52.0713 135.907 51.7112 136.474 51.7112H145.149C145.716 51.7112 146.22 52.0713 146.404 52.6075C146.7 53.4688 146.06 54.3651 145.149 54.3651H136.474Z"/>
<path d="M156.446 58.5802C155.512 58.5802 154.755 57.823 154.755 56.889V42.3183C154.755 41.2406 155.629 40.3669 156.707 40.3669H162.249C163.862 40.3669 165.241 40.6271 166.386 41.1475C167.548 41.6678 168.441 42.4137 169.066 43.3851C169.69 44.3565 170.002 45.51 170.002 46.8456C170.002 48.1813 169.69 49.3348 169.066 50.3061C168.441 51.2602 167.548 51.9974 166.386 52.5178C165.241 53.0208 163.862 53.2723 162.249 53.2723H157.692C157.297 53.2723 157.097 52.7959 157.374 52.514C157.654 52.2295 158.138 52.4276 158.138 52.8265V56.889C158.138 57.823 157.38 58.5802 156.446 58.5802ZM167.475 58.5802C166.973 58.5802 166.504 58.3302 166.224 57.9135L163.216 53.4392C162.545 52.4417 163.26 51.0997 164.462 51.0997C164.961 51.0997 165.427 51.3474 165.706 51.7606L168.725 56.2277C169.402 57.2292 168.684 58.5802 167.475 58.5802ZM158.138 50.9449C158.138 51.3591 157.631 51.5593 157.348 51.2569C157.075 50.9651 157.282 50.4883 157.681 50.4883H162.093C163.584 50.4883 164.703 50.1674 165.449 49.5256C166.212 48.8838 166.594 47.9905 166.594 46.8456C166.594 45.6834 166.212 44.7901 165.449 44.1657C164.703 43.5412 163.584 43.229 162.093 43.229H157.674C157.272 43.229 157.061 42.7521 157.331 42.4542C157.615 42.14 158.138 42.3414 158.138 42.7655V50.9449Z"/>
<path d="M178.984 53.5952C178.072 54.5083 176.51 53.903 176.451 52.614C176.432 52.204 176.584 51.8046 176.871 51.5107L187.324 40.7861C187.586 40.5181 187.944 40.3669 188.318 40.3669C189.535 40.3669 190.163 41.8207 189.329 42.7066L183.596 48.797L181.722 50.8525L178.984 53.5952ZM177.039 58.5802C176.105 58.5802 175.348 57.823 175.348 56.889V42.0581C175.348 41.1241 176.105 40.3669 177.039 40.3669C177.973 40.3669 178.73 41.1241 178.73 42.0581V56.889C178.73 57.823 177.973 58.5802 177.039 58.5802ZM188.75 58.5802C188.303 58.5802 187.877 58.3847 187.586 58.0451L181.445 50.8919C180.909 50.2672 180.921 49.3411 181.474 48.7308C182.143 47.9911 183.314 48.0189 183.947 48.7894L189.936 56.0704C190.759 57.0718 190.047 58.5802 188.75 58.5802Z"/>
</mask>
<path d="M1.95143 58.5802C0.873684 58.5802 0 57.7065 0 56.6288V42.0581C0 41.1241 0.757192 40.3669 1.69124 40.3669C2.62528 40.3669 3.38247 41.1241 3.38247 42.0581V55.0676C3.38247 55.4269 3.6737 55.7181 4.03295 55.7181H11.4744C12.2647 55.7181 12.9054 56.3588 12.9054 57.1491C12.9054 57.9395 12.2647 58.5802 11.4744 58.5802H1.95143Z" fill="#65BD83"/>
<path d="M25.3409 58.8404C23.9185 58.8404 22.6089 58.6062 21.412 58.1379C20.2151 57.6695 19.1744 57.019 18.2897 56.1864C17.4051 55.3365 16.7199 54.3478 16.2342 53.2203C15.7485 52.0754 15.5057 50.8265 15.5057 49.4735C15.5057 48.1205 15.7485 46.8803 16.2342 45.7528C16.7199 44.608 17.4051 43.6193 18.2897 42.7866C19.1744 41.9367 20.2151 41.2775 21.412 40.8092C22.6089 40.3409 23.9098 40.1067 25.3149 40.1067C26.7372 40.1067 28.0382 40.3409 29.2177 40.8092C30.4146 41.2775 31.4554 41.9367 32.34 42.7866C33.2247 43.6193 33.9098 44.608 34.3955 45.7528C34.8812 46.8803 35.124 48.1205 35.124 49.4735C35.124 50.8265 34.8812 52.0754 34.3955 53.2203C33.9098 54.3651 33.2247 55.3538 32.34 56.1864C31.4554 57.019 30.4146 57.6695 29.2177 58.1379C28.0382 58.6062 26.7459 58.8404 25.3409 58.8404ZM25.3149 55.8742C26.2342 55.8742 27.0842 55.7181 27.8647 55.4059C28.6453 55.0936 29.3218 54.6513 29.8942 54.0789C30.4666 53.4891 30.909 52.8126 31.2212 52.0494C31.5508 51.2688 31.7156 50.4102 31.7156 49.4735C31.7156 48.5368 31.5508 47.6869 31.2212 46.9237C30.909 46.1431 30.4666 45.4666 29.8942 44.8942C29.3218 44.3044 28.6453 43.8534 27.8647 43.5412C27.0842 43.229 26.2342 43.0729 25.3149 43.0729C24.3955 43.0729 23.5456 43.229 22.765 43.5412C22.0018 43.8534 21.3253 44.3044 20.7355 44.8942C20.1631 45.4666 19.7121 46.1431 19.3825 46.9237C19.0703 47.6869 18.9142 48.5368 18.9142 49.4735C18.9142 50.3929 19.0703 51.2428 19.3825 52.0234C19.7121 52.804 20.1631 53.4891 20.7355 54.0789C21.3079 54.6513 21.9844 55.0936 22.765 55.4059C23.5456 55.7181 24.3955 55.8742 25.3149 55.8742Z" fill="#65BD83"/>
<path d="M48.7007 58.8404C47.313 58.8404 46.0207 58.6149 44.8238 58.1639C43.6443 57.6955 42.6122 57.0451 41.7276 56.2125C40.8603 55.3625 40.1838 54.3651 39.6981 53.2203C39.2124 52.0754 38.9696 50.8265 38.9696 49.4735C38.9696 48.1205 39.2124 46.8716 39.6981 45.7268C40.1838 44.582 40.869 43.5932 41.7536 42.7606C42.6383 41.9107 43.6703 41.2602 44.8499 40.8092C46.0294 40.3409 47.3217 40.1067 48.7267 40.1067C50.2185 40.1067 51.5801 40.3669 52.8117 40.8873C53.5832 41.2024 54.2798 41.6162 54.9016 42.1288C55.531 42.6476 55.4684 43.5887 54.8743 44.1476C54.2538 44.7311 53.2874 44.6754 52.5844 44.1944C52.2508 43.9662 51.9016 43.7745 51.5368 43.6193C50.7215 43.255 49.8368 43.0729 48.8828 43.0729C47.9288 43.0729 47.0528 43.229 46.2549 43.5412C45.4743 43.8534 44.7892 44.2958 44.1994 44.8682C43.627 45.4406 43.176 46.1171 42.8464 46.8977C42.5342 47.6782 42.3781 48.5368 42.3781 49.4735C42.3781 50.4102 42.5342 51.2688 42.8464 52.0494C43.176 52.83 43.627 53.5065 44.1994 54.0789C44.7892 54.6513 45.4743 55.0936 46.2549 55.4059C47.0528 55.7181 47.9288 55.8742 48.8828 55.8742C49.8368 55.8742 50.7215 55.7008 51.5368 55.3538C51.9009 55.1911 52.2495 54.9921 52.5825 54.7567C53.2838 54.261 54.2611 54.2029 54.883 54.7952C55.4719 55.3561 55.5267 56.2943 54.8975 56.8095C54.2768 57.3178 53.5815 57.7345 52.8117 58.0598C51.5801 58.5802 50.2098 58.8404 48.7007 58.8404Z" fill="#65BD83"/>
<path d="M60.223 58.5802C59.0763 58.5802 58.3114 57.3972 58.782 56.3515L65.4573 41.5175C65.7724 40.8172 66.4689 40.3669 67.2368 40.3669H68.0454C68.8124 40.3669 69.5084 40.8163 69.824 41.5154L76.5061 56.3176C76.9851 57.3786 76.2091 58.5802 75.0451 58.5802C74.4043 58.5802 73.825 58.1986 73.5721 57.6098L67.2049 42.7842C67.0785 42.4899 67.2944 42.1622 67.6148 42.1622C67.9349 42.1622 68.1507 42.4894 68.0248 42.7837L61.6758 57.6216C61.427 58.2031 60.8555 58.5802 60.223 58.5802ZM63.1239 54.3651C62.2132 54.3651 61.5732 53.4688 61.8687 52.6075C62.0527 52.0713 62.557 51.7112 63.1239 51.7112H71.9057C72.4725 51.7112 72.9768 52.0713 73.1608 52.6075C73.4563 53.4688 72.8163 54.3651 71.9057 54.3651H63.1239Z" fill="#65BD83"/>
<path d="M83.3564 58.5802C82.2786 58.5802 81.405 57.7065 81.405 56.6288V42.0581C81.405 41.1241 82.1621 40.3669 83.0962 40.3669C84.0302 40.3669 84.7874 41.1241 84.7874 42.0581V55.0676C84.7874 55.4269 85.0787 55.7181 85.4379 55.7181H92.8793C93.6697 55.7181 94.3104 56.3588 94.3104 57.1491C94.3104 57.9395 93.6697 58.5802 92.8793 58.5802H83.3564Z" fill="#65BD83"/>
<path d="M108.907 58.5802C108.016 58.5802 107.294 57.8579 107.294 56.967V42.1438C107.294 41.1624 108.089 40.3669 109.071 40.3669C109.696 40.3669 110.274 40.6949 110.595 41.2309L117.664 53.0349C117.829 53.3113 117.63 53.6626 117.308 53.6626C116.987 53.6626 116.788 53.3139 116.951 53.0375L123.9 41.2401C124.219 40.699 124.8 40.3669 125.428 40.3669C126.406 40.3669 127.2 41.1592 127.201 42.1375L127.222 56.9773C127.223 57.8622 126.506 58.5802 125.622 58.5802C124.739 58.5802 124.023 57.8655 124.021 56.9827L123.999 45.6335C123.998 45.4983 124.108 45.3885 124.243 45.3885C124.433 45.3885 124.55 45.5958 124.453 45.7587L118.403 55.8489C118.162 56.252 117.726 56.4987 117.256 56.4987C116.789 56.4987 116.356 56.2554 116.114 55.8568L110 45.8154C109.886 45.6283 110.02 45.3885 110.239 45.3885C110.395 45.3885 110.52 45.5143 110.52 45.6694V56.967C110.52 57.8579 109.798 58.5802 108.907 58.5802Z" fill="#65BD83"/>
<path d="M133.573 58.5802C132.427 58.5802 131.662 57.3972 132.132 56.3515L138.808 41.5175C139.123 40.8172 139.819 40.3669 140.587 40.3669H141.396C142.163 40.3669 142.859 40.8163 143.174 41.5154L149.856 56.3176C150.335 57.3786 149.559 58.5802 148.395 58.5802C147.755 58.5802 147.175 58.1986 146.922 57.6098L140.555 42.7842C140.429 42.4899 140.645 42.1622 140.965 42.1622C141.285 42.1622 141.501 42.4894 141.375 42.7837L135.026 57.6216C134.777 58.2031 134.206 58.5802 133.573 58.5802ZM136.474 54.3651C135.563 54.3651 134.923 53.4688 135.219 52.6075C135.403 52.0713 135.907 51.7112 136.474 51.7112H145.149C145.716 51.7112 146.22 52.0713 146.404 52.6075C146.7 53.4688 146.06 54.3651 145.149 54.3651H136.474Z" fill="#65BD83"/>
<path d="M156.446 58.5802C155.512 58.5802 154.755 57.823 154.755 56.889V42.3183C154.755 41.2406 155.629 40.3669 156.707 40.3669H162.249C163.862 40.3669 165.241 40.6271 166.386 41.1475C167.548 41.6678 168.441 42.4137 169.066 43.3851C169.69 44.3565 170.002 45.51 170.002 46.8456C170.002 48.1813 169.69 49.3348 169.066 50.3061C168.441 51.2602 167.548 51.9974 166.386 52.5178C165.241 53.0208 163.862 53.2723 162.249 53.2723H157.692C157.297 53.2723 157.097 52.7959 157.374 52.514C157.654 52.2295 158.138 52.4276 158.138 52.8265V56.889C158.138 57.823 157.38 58.5802 156.446 58.5802ZM167.475 58.5802C166.973 58.5802 166.504 58.3302 166.224 57.9135L163.216 53.4392C162.545 52.4417 163.26 51.0997 164.462 51.0997C164.961 51.0997 165.427 51.3474 165.706 51.7606L168.725 56.2277C169.402 57.2292 168.684 58.5802 167.475 58.5802ZM158.138 50.9449C158.138 51.3591 157.631 51.5593 157.348 51.2569C157.075 50.9651 157.282 50.4883 157.681 50.4883H162.093C163.584 50.4883 164.703 50.1674 165.449 49.5256C166.212 48.8838 166.594 47.9905 166.594 46.8456C166.594 45.6834 166.212 44.7901 165.449 44.1657C164.703 43.5412 163.584 43.229 162.093 43.229H157.674C157.272 43.229 157.061 42.7521 157.331 42.4542C157.615 42.14 158.138 42.3414 158.138 42.7655V50.9449Z" fill="#65BD83"/>
<path d="M178.984 53.5952C178.072 54.5083 176.51 53.903 176.451 52.614C176.432 52.204 176.584 51.8046 176.871 51.5107L187.324 40.7861C187.586 40.5181 187.944 40.3669 188.318 40.3669C189.535 40.3669 190.163 41.8207 189.329 42.7066L183.596 48.797L181.722 50.8525L178.984 53.5952ZM177.039 58.5802C176.105 58.5802 175.348 57.823 175.348 56.889V42.0581C175.348 41.1241 176.105 40.3669 177.039 40.3669C177.973 40.3669 178.73 41.1241 178.73 42.0581V56.889C178.73 57.823 177.973 58.5802 177.039 58.5802ZM188.75 58.5802C188.303 58.5802 187.877 58.3847 187.586 58.0451L181.445 50.8919C180.909 50.2672 180.921 49.3411 181.474 48.7308C182.143 47.9911 183.314 48.0189 183.947 48.7894L189.936 56.0704C190.759 57.0718 190.047 58.5802 188.75 58.5802Z" fill="#65BD83"/>
<path d="M1.95143 58.5802C0.873684 58.5802 0 57.7065 0 56.6288V42.0581C0 41.1241 0.757192 40.3669 1.69124 40.3669C2.62528 40.3669 3.38247 41.1241 3.38247 42.0581V55.0676C3.38247 55.4269 3.6737 55.7181 4.03295 55.7181H11.4744C12.2647 55.7181 12.9054 56.3588 12.9054 57.1491C12.9054 57.9395 12.2647 58.5802 11.4744 58.5802H1.95143Z" stroke="#65BD83" stroke-width="0.52038" mask="url(#path-1-outside-1_479_665)"/>
<path d="M25.3409 58.8404C23.9185 58.8404 22.6089 58.6062 21.412 58.1379C20.2151 57.6695 19.1744 57.019 18.2897 56.1864C17.4051 55.3365 16.7199 54.3478 16.2342 53.2203C15.7485 52.0754 15.5057 50.8265 15.5057 49.4735C15.5057 48.1205 15.7485 46.8803 16.2342 45.7528C16.7199 44.608 17.4051 43.6193 18.2897 42.7866C19.1744 41.9367 20.2151 41.2775 21.412 40.8092C22.6089 40.3409 23.9098 40.1067 25.3149 40.1067C26.7372 40.1067 28.0382 40.3409 29.2177 40.8092C30.4146 41.2775 31.4554 41.9367 32.34 42.7866C33.2247 43.6193 33.9098 44.608 34.3955 45.7528C34.8812 46.8803 35.124 48.1205 35.124 49.4735C35.124 50.8265 34.8812 52.0754 34.3955 53.2203C33.9098 54.3651 33.2247 55.3538 32.34 56.1864C31.4554 57.019 30.4146 57.6695 29.2177 58.1379C28.0382 58.6062 26.7459 58.8404 25.3409 58.8404ZM25.3149 55.8742C26.2342 55.8742 27.0842 55.7181 27.8647 55.4059C28.6453 55.0936 29.3218 54.6513 29.8942 54.0789C30.4666 53.4891 30.909 52.8126 31.2212 52.0494C31.5508 51.2688 31.7156 50.4102 31.7156 49.4735C31.7156 48.5368 31.5508 47.6869 31.2212 46.9237C30.909 46.1431 30.4666 45.4666 29.8942 44.8942C29.3218 44.3044 28.6453 43.8534 27.8647 43.5412C27.0842 43.229 26.2342 43.0729 25.3149 43.0729C24.3955 43.0729 23.5456 43.229 22.765 43.5412C22.0018 43.8534 21.3253 44.3044 20.7355 44.8942C20.1631 45.4666 19.7121 46.1431 19.3825 46.9237C19.0703 47.6869 18.9142 48.5368 18.9142 49.4735C18.9142 50.3929 19.0703 51.2428 19.3825 52.0234C19.7121 52.804 20.1631 53.4891 20.7355 54.0789C21.3079 54.6513 21.9844 55.0936 22.765 55.4059C23.5456 55.7181 24.3955 55.8742 25.3149 55.8742Z" stroke="#65BD83" stroke-width="0.52038" mask="url(#path-1-outside-1_479_665)"/>
<path d="M48.7007 58.8404C47.313 58.8404 46.0207 58.6149 44.8238 58.1639C43.6443 57.6955 42.6122 57.0451 41.7276 56.2125C40.8603 55.3625 40.1838 54.3651 39.6981 53.2203C39.2124 52.0754 38.9696 50.8265 38.9696 49.4735C38.9696 48.1205 39.2124 46.8716 39.6981 45.7268C40.1838 44.582 40.869 43.5932 41.7536 42.7606C42.6383 41.9107 43.6703 41.2602 44.8499 40.8092C46.0294 40.3409 47.3217 40.1067 48.7267 40.1067C50.2185 40.1067 51.5801 40.3669 52.8117 40.8873C53.5832 41.2024 54.2798 41.6162 54.9016 42.1288C55.531 42.6476 55.4684 43.5887 54.8743 44.1476C54.2538 44.7311 53.2874 44.6754 52.5844 44.1944C52.2508 43.9662 51.9016 43.7745 51.5368 43.6193C50.7215 43.255 49.8368 43.0729 48.8828 43.0729C47.9288 43.0729 47.0528 43.229 46.2549 43.5412C45.4743 43.8534 44.7892 44.2958 44.1994 44.8682C43.627 45.4406 43.176 46.1171 42.8464 46.8977C42.5342 47.6782 42.3781 48.5368 42.3781 49.4735C42.3781 50.4102 42.5342 51.2688 42.8464 52.0494C43.176 52.83 43.627 53.5065 44.1994 54.0789C44.7892 54.6513 45.4743 55.0936 46.2549 55.4059C47.0528 55.7181 47.9288 55.8742 48.8828 55.8742C49.8368 55.8742 50.7215 55.7008 51.5368 55.3538C51.9009 55.1911 52.2495 54.9921 52.5825 54.7567C53.2838 54.261 54.2611 54.2029 54.883 54.7952C55.4719 55.3561 55.5267 56.2943 54.8975 56.8095C54.2768 57.3178 53.5815 57.7345 52.8117 58.0598C51.5801 58.5802 50.2098 58.8404 48.7007 58.8404Z" stroke="#65BD83" stroke-width="0.52038" mask="url(#path-1-outside-1_479_665)"/>
<path d="M60.223 58.5802C59.0763 58.5802 58.3114 57.3972 58.782 56.3515L65.4573 41.5175C65.7724 40.8172 66.4689 40.3669 67.2368 40.3669H68.0454C68.8124 40.3669 69.5084 40.8163 69.824 41.5154L76.5061 56.3176C76.9851 57.3786 76.2091 58.5802 75.0451 58.5802C74.4043 58.5802 73.825 58.1986 73.5721 57.6098L67.2049 42.7842C67.0785 42.4899 67.2944 42.1622 67.6148 42.1622C67.9349 42.1622 68.1507 42.4894 68.0248 42.7837L61.6758 57.6216C61.427 58.2031 60.8555 58.5802 60.223 58.5802ZM63.1239 54.3651C62.2132 54.3651 61.5732 53.4688 61.8687 52.6075C62.0527 52.0713 62.557 51.7112 63.1239 51.7112H71.9057C72.4725 51.7112 72.9768 52.0713 73.1608 52.6075C73.4563 53.4688 72.8163 54.3651 71.9057 54.3651H63.1239Z" stroke="#65BD83" stroke-width="0.52038" mask="url(#path-1-outside-1_479_665)"/>
<path d="M83.3564 58.5802C82.2786 58.5802 81.405 57.7065 81.405 56.6288V42.0581C81.405 41.1241 82.1621 40.3669 83.0962 40.3669C84.0302 40.3669 84.7874 41.1241 84.7874 42.0581V55.0676C84.7874 55.4269 85.0787 55.7181 85.4379 55.7181H92.8793C93.6697 55.7181 94.3104 56.3588 94.3104 57.1491C94.3104 57.9395 93.6697 58.5802 92.8793 58.5802H83.3564Z" stroke="#65BD83" stroke-width="0.52038" mask="url(#path-1-outside-1_479_665)"/>
<path d="M108.907 58.5802C108.016 58.5802 107.294 57.8579 107.294 56.967V42.1438C107.294 41.1624 108.089 40.3669 109.071 40.3669C109.696 40.3669 110.274 40.6949 110.595 41.2309L117.664 53.0349C117.829 53.3113 117.63 53.6626 117.308 53.6626C116.987 53.6626 116.788 53.3139 116.951 53.0375L123.9 41.2401C124.219 40.699 124.8 40.3669 125.428 40.3669C126.406 40.3669 127.2 41.1592 127.201 42.1375L127.222 56.9773C127.223 57.8622 126.506 58.5802 125.622 58.5802C124.739 58.5802 124.023 57.8655 124.021 56.9827L123.999 45.6335C123.998 45.4983 124.108 45.3885 124.243 45.3885C124.433 45.3885 124.55 45.5958 124.453 45.7587L118.403 55.8489C118.162 56.252 117.726 56.4987 117.256 56.4987C116.789 56.4987 116.356 56.2554 116.114 55.8568L110 45.8154C109.886 45.6283 110.02 45.3885 110.239 45.3885C110.395 45.3885 110.52 45.5143 110.52 45.6694V56.967C110.52 57.8579 109.798 58.5802 108.907 58.5802Z" stroke="#65BD83" stroke-width="0.52038" mask="url(#path-1-outside-1_479_665)"/>
<path d="M133.573 58.5802C132.427 58.5802 131.662 57.3972 132.132 56.3515L138.808 41.5175C139.123 40.8172 139.819 40.3669 140.587 40.3669H141.396C142.163 40.3669 142.859 40.8163 143.174 41.5154L149.856 56.3176C150.335 57.3786 149.559 58.5802 148.395 58.5802C147.755 58.5802 147.175 58.1986 146.922 57.6098L140.555 42.7842C140.429 42.4899 140.645 42.1622 140.965 42.1622C141.285 42.1622 141.501 42.4894 141.375 42.7837L135.026 57.6216C134.777 58.2031 134.206 58.5802 133.573 58.5802ZM136.474 54.3651C135.563 54.3651 134.923 53.4688 135.219 52.6075C135.403 52.0713 135.907 51.7112 136.474 51.7112H145.149C145.716 51.7112 146.22 52.0713 146.404 52.6075C146.7 53.4688 146.06 54.3651 145.149 54.3651H136.474Z" stroke="#65BD83" stroke-width="0.52038" mask="url(#path-1-outside-1_479_665)"/>
<path d="M156.446 58.5802C155.512 58.5802 154.755 57.823 154.755 56.889V42.3183C154.755 41.2406 155.629 40.3669 156.707 40.3669H162.249C163.862 40.3669 165.241 40.6271 166.386 41.1475C167.548 41.6678 168.441 42.4137 169.066 43.3851C169.69 44.3565 170.002 45.51 170.002 46.8456C170.002 48.1813 169.69 49.3348 169.066 50.3061C168.441 51.2602 167.548 51.9974 166.386 52.5178C165.241 53.0208 163.862 53.2723 162.249 53.2723H157.692C157.297 53.2723 157.097 52.7959 157.374 52.514C157.654 52.2295 158.138 52.4276 158.138 52.8265V56.889C158.138 57.823 157.38 58.5802 156.446 58.5802ZM167.475 58.5802C166.973 58.5802 166.504 58.3302 166.224 57.9135L163.216 53.4392C162.545 52.4417 163.26 51.0997 164.462 51.0997C164.961 51.0997 165.427 51.3474 165.706 51.7606L168.725 56.2277C169.402 57.2292 168.684 58.5802 167.475 58.5802ZM158.138 50.9449C158.138 51.3591 157.631 51.5593 157.348 51.2569C157.075 50.9651 157.282 50.4883 157.681 50.4883H162.093C163.584 50.4883 164.703 50.1674 165.449 49.5256C166.212 48.8838 166.594 47.9905 166.594 46.8456C166.594 45.6834 166.212 44.7901 165.449 44.1657C164.703 43.5412 163.584 43.229 162.093 43.229H157.674C157.272 43.229 157.061 42.7521 157.331 42.4542C157.615 42.14 158.138 42.3414 158.138 42.7655V50.9449Z" stroke="#65BD83" stroke-width="0.52038" mask="url(#path-1-outside-1_479_665)"/>
<path d="M178.984 53.5952C178.072 54.5083 176.51 53.903 176.451 52.614C176.432 52.204 176.584 51.8046 176.871 51.5107L187.324 40.7861C187.586 40.5181 187.944 40.3669 188.318 40.3669C189.535 40.3669 190.163 41.8207 189.329 42.7066L183.596 48.797L181.722 50.8525L178.984 53.5952ZM177.039 58.5802C176.105 58.5802 175.348 57.823 175.348 56.889V42.0581C175.348 41.1241 176.105 40.3669 177.039 40.3669C177.973 40.3669 178.73 41.1241 178.73 42.0581V56.889C178.73 57.823 177.973 58.5802 177.039 58.5802ZM188.75 58.5802C188.303 58.5802 187.877 58.3847 187.586 58.0451L181.445 50.8919C180.909 50.2672 180.921 49.3411 181.474 48.7308C182.143 47.9911 183.314 48.0189 183.947 48.7894L189.936 56.0704C190.759 57.0718 190.047 58.5802 188.75 58.5802Z" stroke="#65BD83" stroke-width="0.52038" mask="url(#path-1-outside-1_479_665)"/>
<circle cx="176.929" cy="34.9029" r="3.90285" fill="#FF8162"/>
<path d="M179.661 35.2932C179.661 35.8136 179.349 36.9324 178.1 37.2446" stroke="#FFF9F7" stroke-width="0.650475" stroke-linecap="round"/>
</g>
<defs>
<clipPath id="clip0_479_665">
<rect width="192" height="100" fill="white"/>
</clipPath>
</defs>
</svg>
